SplineFontDB: 3.2
FontName: AltiumMono-ExtraBold
FullName: JetBrains Mono ExtraBold
FamilyName: Altium Mono-ExtraBold
Weight: ExtraBold
Copyright: Copyright 2020 The JetBrains Mono Project Authors (https://github.com/JetBrains/JetBrainsMono)\nCopyright 2022 Dian Song
Version: 0.4; ttfautohint (v1.8.3)
ItalicAngle: 0
UnderlinePosition: -180
UnderlineWidth: 50
Ascent: 800
Descent: 200
InvalidEm: 0
sfntRevision: 0x00006666
LayerCount: 2
Layer: 0 1 "Back" 1
Layer: 1 1 "Fore" 0
XUID: [1021 25 786891604 25606]
StyleMap: 0x0020
FSType: 0
OS2Version: 4
OS2_WeightWidthSlopeOnly: 0
OS2_UseTypoMetrics: 1
CreationTime: 1627653265
ModificationTime: 1662484513
PfmFamily: 49
TTFWeight: 900
TTFWidth: 5
LineGap: 0
VLineGap: 0
Panose: 2 0 0 9 0 0 0 0 0 0
OS2TypoAscent: 1020
OS2TypoAOffset: 0
OS2TypoDescent: -300
OS2TypoDOffset: 0
OS2TypoLinegap: 0
OS2WinAscent: 1020
OS2WinAOffset: 0
OS2WinDescent: 300
OS2WinDOffset: 0
HheadAscent: 1020
HheadAOffset: 0
HheadDescent: -300
HheadDOffset: 0
OS2SubXSize: 650
OS2SubYSize: 600
OS2SubXOff: 0
OS2SubYOff: 75
OS2SupXSize: 650
OS2SupYSize: 600
OS2SupXOff: 0
OS2SupYOff: 350
OS2StrikeYSize: 50
OS2StrikeYPos: 320
OS2CapHeight: 730
OS2XHeight: 550
OS2Vendor: 'DS  '
OS2CodePages: 2000019f.dfd70000
OS2UnicodeRanges: a00402ff.1200f9fb.02000028.00000000
Lookup: 1 0 0 "'aalt' Access All Alternates in Latin lookup 0" { "'aalt' Access All Alternates in Latin lookup 0 subtable"  } ['aalt' ('DFLT' <'dflt' > 'latn' <'AZE ' 'CAT ' 'CRT ' 'KAZ ' 'MOL ' 'ROM ' 'TAT ' 'TRK ' 'dflt' > ) ]
Lookup: 3 0 0 "'aalt' Access All Alternates in Latin lookup 1" { "'aalt' Access All Alternates in Latin lookup 1 subtable"  } ['aalt' ('DFLT' <'dflt' > 'latn' <'AZE ' 'CAT ' 'CRT ' 'KAZ ' 'MOL ' 'ROM ' 'TAT ' 'TRK ' 'dflt' > ) ]

StartChar: .notdef
Encoding: 1114112 -1 0
Width: 600
GlyphClass: 1
Flags: W
LayerCount: 2
Fore
SplineSet
-36.4751946834 -4.59354776439e-14 m 2,0,-1
 -36.4751946834 730 l 2,1,2
 -36.4751946834 782.422820957 -36.4751946834 782.422820957 0.550992179902 819.44900782 c 0,3,4
 38 856 38 856 90 856.475194683 c 2,5,-1
 510 856.475194683 l 2,6,7
 562.422820957 856.475194683 562.422820957 856.475194683 599.44900782 819.44900782 c 0,8,9
 636 782 636 782 636.475194683 730 c 2,10,-1
 636.475194683 4.59354776439e-14 l 2,11,12
 636.475194683 -52.4228209568 636.475194683 -52.4228209568 599.44900782 -89.4490078201 c 0,13,14
 562 -126 562 -126 510 -126.475194683 c 2,15,-1
 90 -126.475194683 l 2,16,17
 37.5771790432 -126.475194683 37.5771790432 -126.475194683 0.550992179902 -89.4490078201 c 128,-1,18
 -36.4751946834 -52.4228209568 -36.4751946834 -52.4228209568 -36.4751946834 -4.59354776439e-14 c 2,0,-1
EndSplineSet
EndChar

StartChar: A
Encoding: 65 65 1
Width: 600
GlyphClass: 2
Flags: W
AnchorPoint: "Anchor-3" 480 0 basechar 0
AnchorPoint: "Anchor-2" 300 0 basechar 0
AnchorPoint: "Anchor-0" 300 730 basechar 0
LayerCount: 2
Fore
SplineSet
687.584587484 31.2286824468 m 6,0,1
 691.516824945 15.7122859774 691.516824945 15.7122859774 691.516824945 -0.346561150232 c 132,-1,2
 691.516824945 -16.4054082779 691.516824945 -16.4054082779 687.118303779 -33.0176960989 c 4,3,4
 678.560933047 -65.3370825934 678.560933047 -65.3370825934 654.44900782 -89.4490078201 c 4,5,6
 617 -126 617 -126 565 -126.475194683 c 6,7,8
 437 -126.475194683 437 -126.475194683 437 -126.475194683 c 6,9,10
 384.577179043 -126.475194683 384.577179043 -126.475194683 347.55099218 -89.4490078201 c 4,11,12
 321.68300171 -63.5810173502 321.68300171 -63.5810173502 313.649882515 -28.0344649127 c 6,13,14
 313.649882515 -28.0344649127 313.649882515 -28.0344649127 300 32.3662652165 c 5,15,-1
 286.350117485 -28.0344649127 l 6,16,17
 278.31699829 -63.5810173502 278.31699829 -63.5810173502 252.44900782 -89.4490078201 c 4,18,19
 215 -126 215 -126 163 -126.475194683 c 6,20,21
 35 -126.475194683 35 -126.475194683 35 -126.475194683 c 6,22,23
 -17.4228209568 -126.475194683 -17.4228209568 -126.475194683 -54.4490078201 -89.4490078201 c 4,24,25
 -78.5301599398 -65.3678557004 -78.5301599398 -65.3678557004 -87.0970820594 -33.0964758125 c 4,26,27
 -91.5165880926 -16.4483078795 -91.5165880926 -16.4483078795 -91.5165880926 -0.409490643923 c 132,-1,28
 -91.5165880926 15.6293265917 -91.5165880926 15.6293265917 -87.6245105473 31.0707212006 c 6,29,30
 96.3754894527 761.070721201 96.3754894527 761.070721201 96.3754894527 761.070721201 c 6,31,32
 104.868735306 794.766750947 104.868735306 794.766750947 129.55099218 819.44900782 c 4,33,34
 167 856 167 856 219 856.475194683 c 6,35,36
 380 856.475194683 380 856.475194683 380 856.475194683 c 6,37,38
 432.422820957 856.475194683 432.422820957 856.475194683 469.44900782 819.44900782 c 4,39,40
 494.06958206 794.828433581 494.06958206 794.828433581 502.584587484 761.228682447 c 6,41,42
 687.584587484 31.2286824468 687.584587484 31.2286824468 687.584587484 31.2286824468 c 6,0,1
EndSplineSet
Substitution2: "Single Substitution lookup 399 subtable" ordfeminine
Substitution2: "'aalt' Access All Alternates in Latin lookup 0 subtable" ordfeminine
EndChar

StartChar: Aogonek
Encoding: 260 260 21
Width: 600
GlyphClass: 2
Flags: W
AnchorPoint: "Anchor-3" 480 0 basechar 0
AnchorPoint: "Anchor-2" 300 0 basechar 0
AnchorPoint: "Anchor-0" 300 730 basechar 0
LayerCount: 2
Fore
SplineSet
691.516824945 0.103208963595 m 0,0,1
 691.516824945 -29.0019595399 691.516824945 -29.0019595399 679.049038746 -54.9995439055 c 1,2,3
 703 -87 703 -87 703.475194683 -130 c 2,4,-1
 703.475194683 -216 l 2,5,6
 703.475194683 -268.422820957 703.475194683 -268.422820957 666.44900782 -305.44900782 c 128,-1,7
 629.422820957 -342.475194683 629.422820957 -342.475194683 577 -342.475194683 c 2,8,-1
 482 -342.475194683 l 2,9,10
 365.077179043 -342.475194683 365.077179043 -342.475194683 293.09099218 -270.48900782 c 0,11,12
 264.772062935 -242.170078575 264.772062935 -242.170078575 248.558280962 -206.881258986 c 0,13,14
 228.524805317 -163.278988465 228.524805317 -163.278988465 228.524805317 -113 c 0,15,16
 228.524805317 -110.748054642 228.524805317 -110.748054642 228.569097404 -108.505170947 c 1,17,18
 200 -126 200 -126 163 -126.475194683 c 2,19,-1
 35 -126.475194683 l 2,20,21
 -17.4228209568 -126.475194683 -17.4228209568 -126.475194683 -54.4490078201 -89.4490078201 c 0,22,23
 -78.5301599398 -65.3678557004 -78.5301599398 -65.3678557004 -87.0970820594 -33.0964758125 c 0,24,25
 -91.5165880926 -16.4483078795 -91.5165880926 -16.4483078795 -91.5165880926 -0.409490643923 c 128,-1,26
 -91.5165880926 15.6293265917 -91.5165880926 15.6293265917 -87.6245105473 31.0707212006 c 2,27,-1
 96.3754894527 761.070721201 l 2,28,29
 104.868735306 794.766750947 104.868735306 794.766750947 129.55099218 819.44900782 c 0,30,31
 167 856 167 856 219 856.475194683 c 2,32,-1
 380 856.475194683 l 2,33,34
 432.422820957 856.475194683 432.422820957 856.475194683 469.44900782 819.44900782 c 0,35,36
 494.06958206 794.828433581 494.06958206 794.828433581 502.584587484 761.228682447 c 2,37,-1
 687.584587484 31.2286824468 l 2,38,39
 691.516824945 15.7122859774 691.516824945 15.7122859774 691.516824945 0.103208963595 c 0,0,1
EndSplineSet
EndChar

StartChar: AE
Encoding: 198 198 24
Width: 600
GlyphClass: 2
Flags: W
AnchorPoint: "Anchor-2" 300 0 basechar 0
AnchorPoint: "Anchor-0" 300 730 basechar 0
LayerCount: 2
Fore
SplineSet
677.475194683 319 m 2,0,1
 677.475194683 260.414196935 677.475194683 260.414196935 632.061398508 221.805997644 c 1,2,3
 650.081354078 212.816661562 650.081354078 212.816661562 665.44900782 197.44900782 c 0,4,5
 702 160 702 160 702.475194683 108 c 2,6,-1
 702.475194683 4.59354776439e-14 l 2,7,8
 702.475194683 -52.4228209568 702.475194683 -52.4228209568 665.44900782 -89.4490078201 c 0,9,10
 628 -126 628 -126 576 -126.475194683 c 2,11,-1
 296 -126.475194683 l 2,12,13
 249.422833253 -126.475194683 249.422833253 -126.475194683 215 -97.2461683624 c 1,14,15
 181 -126 181 -126 134 -126.475194683 c 2,16,-1
 12 -126.475194683 l 2,17,18
 -40.4228209568 -126.475194683 -40.4228209568 -126.475194683 -77.6478137745 -89.2502018657 c 128,-1,19
 -114.872806592 -52.0252090481 -114.872806592 -52.0252090481 -114.872806592 -3.0420842556 c 0,20,21
 -114.872806592 10.1270218542 -114.872806592 10.1270218542 -112.16780522 24.1316388897 c 2,22,-1
 28.8321947805 754.13163889 l 2,23,24
 36.1571499347 792.055165575 36.1571499347 792.055165575 63.5509921799 819.44900782 c 0,25,26
 101 856 101 856 153 856.475194683 c 2,27,-1
 576 856.475194683 l 2,28,29
 628.422820957 856.475194683 628.422820957 856.475194683 665.44900782 819.44900782 c 0,30,31
 702 782 702 782 702.475194683 730 c 2,32,-1
 702.475194683 623 l 2,33,34
 702.475194683 570.577179043 702.475194683 570.577179043 665.44900782 533.55099218 c 0,35,36
 654.970827041 523.0728114 654.970827041 523.0728114 643.25959939 515.559890664 c 1,37,38
 677 479 677 479 677.475194683 429 c 2,39,-1
 677.475194683 319 l 2,0,1
EndSplineSet
EndChar

StartChar: B
Encoding: 66 66 26
Width: 600
GlyphClass: 2
Flags: W
AnchorPoint: "Anchor-2" 300 0 basechar 0
AnchorPoint: "Anchor-0" 300 730 basechar 0
LayerCount: 2
Fore
SplineSet
619.244658475 392.492305566 m 1,0,1
 674.475194683 314.027657305 674.475194683 314.027657305 674.475194683 208 c 0,2,3
 674.475194683 108.508004711 674.475194683 108.508004711 625.700359117 30.7989446558 c 128,-1,4
 576.887382356 -46.9708827263 576.887382356 -46.9708827263 491.816869835 -88.2908459509 c 0,5,6
 413.202034209 -126.475194683 413.202034209 -126.475194683 312 -126.475194683 c 2,7,-1
 77 -126.475194683 l 2,8,9
 24.5771790432 -126.475194683 24.5771790432 -126.475194683 -12.4490078201 -89.4490078201 c 128,-1,10
 -49.4751946834 -52.4228209568 -49.4751946834 -52.4228209568 -49.4751946834 -4.59354776439e-14 c 2,11,-1
 -49.4751946834 730 l 2,12,13
 -49.4751946834 782.422820957 -49.4751946834 782.422820957 -12.4490078201 819.44900782 c 0,14,15
 25 856 25 856 77 856.475194683 c 2,16,-1
 301 856.475194683 l 2,17,18
 451.106241656 856.475194683 451.106241656 856.475194683 548.382134642 777.098066007 c 0,19,20
 614.646395591 723.026429072 614.646395591 723.026429072 641.164679302 644.797492126 c 0,21,22
 657.475194683 596.68147175 657.475194683 596.68147175 657.475194683 542 c 0,23,24
 657.475194683 458.514268345 657.475194683 458.514268345 619.244658475 392.492305566 c 1,0,1
EndSplineSet
EndChar

StartChar: C
Encoding: 67 67 27
Width: 600
GlyphClass: 2
Flags: W
AnchorPoint: "Anchor-2" 305 0 basechar 0
AnchorPoint: "Anchor-0" 305 730 basechar 0
LayerCount: 2
Fore
SplineSet
303.5 -136.475194683 m 128,-1,1
 404.477532875 -136.475194683 404.477532875 -136.475194683 483.46879649 -96.220031495 c 0,2,3
 567.899079258 -53.1930604691 567.899079258 -53.1930604691 615.160180437 25.8470570202 c 128,-1,4
 662.421281616 104.88717451 662.421281616 104.88717451 662.47303653 206.220285033 c 0,5,6
 661.923140112 258.98748659 661.923140112 258.98748659 624.423085916 296.487484758 c 0,7,8
 610.10466345 310.805907225 610.10466345 310.805907225 591.127298705 320.02212544 c 0,9,10
 583.601376122 323.67703463 583.601376122 323.67703463 577.633749811 329.644660941 c 0,11,12
 562.998893343 344.279517408 562.998893343 344.279517408 562.998893343 365 c 128,-1,13
 562.998893343 385.720482592 562.998893343 385.720482592 577.633749811 400.355339059 c 0,14,15
 583.601376122 406.32296537 583.601376122 406.32296537 591.127298705 409.97787456 c 0,16,17
 610.080254281 419.182238641 610.080254281 419.182238641 625.44900782 434.55099218 c 0,18,19
 662.475194683 471.577179043 662.475194683 471.577179043 662.475194683 524 c 0,20,21
 662.475194683 625.022660533 662.475194683 625.022660533 615.01706433 704.392292331 c 0,22,23
 567.899079258 783.193060469 567.899079258 783.193060469 483.46879649 826.220031495 c 0,24,25
 404.477532875 866.475194683 404.477532875 866.475194683 303.5 866.475194683 c 128,-1,26
 202.522467125 866.475194683 202.522467125 866.475194683 123.53120351 826.220031495 c 0,27,28
 38.6341842761 782.955204385 38.6341842761 782.955204385 -7.92050520366 703.730557376 c 128,-1,29
 -54.4751946834 624.505910367 -54.4751946834 624.505910367 -54.4751946834 524 c 2,30,-1
 -54.4751946834 206 l 2,31,32
 -54.4751946834 105.494089633 -54.4751946834 105.494089633 -7.64972981031 25.8086494108 c 0,33,34
 38.6341842761 -52.9552043853 38.6341842761 -52.9552043853 123.53120351 -96.220031495 c 0,35,0
 202.522467125 -136.475194683 202.522467125 -136.475194683 303.5 -136.475194683 c 128,-1,1
EndSplineSet
EndChar

StartChar: Ccedilla
Encoding: 199 199 30
Width: 600
GlyphClass: 2
Flags: W
AnchorPoint: "Anchor-2" 305 0 basechar 0
AnchorPoint: "Anchor-0" 305 730 basechar 0
LayerCount: 2
Fore
SplineSet
77.5248053166 -216 m 2,0,-1
 77.5248053166 -152 l 2,1,2
 77.5248053166 -115.312313201 77.5248053166 -115.312313201 95.6594425838 -86.1655696618 c 0,3,4
 95.2424191271 -83.2363111346 95.2424191271 -83.2363111346 94.9577999805 -80.3307802487 c 0,5,6
 53.4144549968 -53.8007872003 53.4144549968 -53.8007872003 21.4505554302 -15.6503264272 c 0,7,8
 -54.4751946834 74.9707301599 -54.4751946834 74.9707301599 -54.4751946834 206 c 2,9,-1
 -54.4751946834 524 l 2,10,11
 -54.4751946834 624.505910367 -54.4751946834 624.505910367 -8.60556694882 702.564750546 c 0,12,13
 38.6341842761 782.955204385 38.6341842761 782.955204385 123.53120351 826.220031495 c 0,14,15
 202.522467125 866.475194683 202.522467125 866.475194683 303.5 866.475194683 c 128,-1,16
 404.477532875 866.475194683 404.477532875 866.475194683 483.46879649 826.220031495 c 0,17,18
 567.899079258 783.193060469 567.899079258 783.193060469 615.187136971 704.107860501 c 128,-1,19
 662.475194683 625.022660533 662.475194683 625.022660533 662.475194683 524 c 0,20,21
 662.475194683 471.577179043 662.475194683 471.577179043 625.44900782 434.55099218 c 128,-1,22
 588.422820957 397.524805317 588.422820957 397.524805317 536 397.524805317 c 2,23,-1
 410 397.524805317 l 2,24,25
 359.630544816 397.524805317 359.630544816 397.524805317 323.475194683 431.707218599 c 1,26,-1
 323.475194683 298.292781401 l 1,27,28
 359.630544816 332.475194683 359.630544816 332.475194683 410 332.475194683 c 2,29,-1
 536 332.475194683 l 2,30,31
 588.422820957 332.475194683 588.422820957 332.475194683 625.44900782 295.44900782 c 0,32,33
 662 258 662 258 662.475194683 206 c 0,34,35
 662.475194683 143.584850179 662.475194683 143.584850179 644.674766826 89.4905171605 c 0,36,37
 616.605376354 4.18948013266 616.605376354 4.18948013266 547.277867891 -54.5880659494 c 1,38,39
 561.475194683 -89.0758911034 561.475194683 -89.0758911034 561.475194683 -131.242348979 c 128,-1,40
 561.475194683 -173.408806855 561.475194683 -173.408806855 541.154314275 -213.824780112 c 0,41,42
 518.700716795 -258.482490655 518.700716795 -258.482490655 473.90019357 -291.460653585 c 0,43,44
 404.597420756 -342.475194683 404.597420756 -342.475194683 304 -342.475194683 c 2,45,-1
 204 -342.475194683 l 2,46,47
 151.577179043 -342.475194683 151.577179043 -342.475194683 114.55099218 -305.44900782 c 128,-1,48
 77.5248053166 -268.422820957 77.5248053166 -268.422820957 77.5248053166 -216 c 2,0,-1
EndSplineSet
EndChar

StartChar: D
Encoding: 68 68 33
Width: 600
GlyphClass: 2
Flags: W
AnchorPoint: "Anchor-4" 300 365 basechar 0
AnchorPoint: "Anchor-2" 300 0 basechar 0
AnchorPoint: "Anchor-0" 300 730 basechar 0
LayerCount: 2
Fore
SplineSet
-51.4751946834 -4.59354776439e-14 m 2,0,-1
 -51.4751946834 730 l 2,1,2
 -51.4751946834 782.422820957 -51.4751946834 782.422820957 -14.4490078201 819.44900782 c 0,3,4
 23 856 23 856 75 856.475194683 c 2,5,-1
 292 856.475194683 l 2,6,7
 397.180035878 856.475194683 397.180035878 856.475194683 479.141185368 813.61477706 c 0,8,9
 565.703537326 768.348226037 565.703537326 768.348226037 613.589366004 686.942317283 c 128,-1,10
 661.475194683 605.536408528 661.475194683 605.536408528 661.475194683 502 c 2,11,-1
 661.475194683 229 l 2,12,13
 661.475194683 125.751307886 661.475194683 125.751307886 614.346530025 44.8471002215 c 0,14,15
 565.961952249 -38.2130916274 565.961952249 -38.2130916274 479.141185368 -83.6147770602 c 0,16,17
 397.180035878 -126.475194683 397.180035878 -126.475194683 292 -126.475194683 c 2,18,-1
 75 -126.475194683 l 2,19,20
 22.5771790432 -126.475194683 22.5771790432 -126.475194683 -14.4490078201 -89.4490078201 c 128,-1,21
 -51.4751946834 -52.4228209568 -51.4751946834 -52.4228209568 -51.4751946834 -4.59354776439e-14 c 2,0,-1
EndSplineSet
EndChar

StartChar: Eth
Encoding: 208 208 34
Width: 600
GlyphClass: 2
Flags: W
AnchorPoint: "Anchor-4" 300 365 basechar 0
AnchorPoint: "Anchor-2" 300 0 basechar 0
AnchorPoint: "Anchor-0" 300 730 basechar 0
LayerCount: 2
Fore
SplineSet
-51.4751946834 730 m 2,0,1
 -51.4751946834 782.422820957 -51.4751946834 782.422820957 -14.4490078201 819.44900782 c 0,2,3
 23 856 23 856 75 856.475194683 c 2,4,-1
 292 856.475194683 l 2,5,6
 397.180035878 856.475194683 397.180035878 856.475194683 479.141185368 813.61477706 c 0,7,8
 565.703537326 768.348226037 565.703537326 768.348226037 613.589366004 686.942317283 c 128,-1,9
 661.475194683 605.536408528 661.475194683 605.536408528 661.475194683 502 c 2,10,-1
 661.475194683 229 l 2,11,12
 661.475194683 125.751307886 661.475194683 125.751307886 614.346530025 44.8471002215 c 0,13,14
 565.961952249 -38.2130916274 565.961952249 -38.2130916274 479.141185368 -83.6147770602 c 0,15,16
 397.180035878 -126.475194683 397.180035878 -126.475194683 292 -126.475194683 c 2,17,-1
 75 -126.475194683 l 2,18,19
 22.5771790432 -126.475194683 22.5771790432 -126.475194683 -14.4490078201 -89.4490078201 c 128,-1,20
 -51.4751946834 -52.4228209568 -51.4751946834 -52.4228209568 -51.4751946834 -4.59354776439e-14 c 2,21,-1
 -51.4751946834 218.072434107 l 1,22,23
 -66.4159326532 226.517917013 -66.4159326532 226.517917013 -79.4490078201 239.55099218 c 0,24,25
 -116 277 -116 277 -116.475194683 329 c 2,26,-1
 -116.475194683 416 l 2,27,28
 -116.475194683 468.422820957 -116.475194683 468.422820957 -79.4490078201 505.44900782 c 0,29,30
 -66.4159326532 518.482082987 -66.4159326532 518.482082987 -51.4751946834 526.927565893 c 1,31,-1
 -51.4751946834 730 l 2,0,1
EndSplineSet
EndChar

StartChar: Dcroat
Encoding: 272 272 36
Width: 600
GlyphClass: 2
Flags: W
AnchorPoint: "Anchor-4" 300 365 basechar 0
AnchorPoint: "Anchor-2" 300 0 basechar 0
AnchorPoint: "Anchor-0" 300 730 basechar 0
LayerCount: 2
Fore
SplineSet
-51.4751946834 730 m 2,0,1
 -51.4751946834 782.422820957 -51.4751946834 782.422820957 -14.4490078201 819.44900782 c 0,2,3
 23 856 23 856 75 856.475194683 c 2,4,-1
 292 856.475194683 l 2,5,6
 397.180035878 856.475194683 397.180035878 856.475194683 479.141185368 813.61477706 c 0,7,8
 565.703537326 768.348226037 565.703537326 768.348226037 613.589366004 686.942317283 c 128,-1,9
 661.475194683 605.536408528 661.475194683 605.536408528 661.475194683 502 c 2,10,-1
 661.475194683 229 l 2,11,12
 661.475194683 125.751307886 661.475194683 125.751307886 614.346530025 44.8471002215 c 0,13,14
 565.961952249 -38.2130916274 565.961952249 -38.2130916274 479.141185368 -83.6147770602 c 0,15,16
 397.180035878 -126.475194683 397.180035878 -126.475194683 292 -126.475194683 c 2,17,-1
 75 -126.475194683 l 2,18,19
 22.5771790432 -126.475194683 22.5771790432 -126.475194683 -14.4490078201 -89.4490078201 c 128,-1,20
 -51.4751946834 -52.4228209568 -51.4751946834 -52.4228209568 -51.4751946834 -4.59354776439e-14 c 2,21,-1
 -51.4751946834 218.072434107 l 1,22,23
 -66.4159326532 226.517917013 -66.4159326532 226.517917013 -79.4490078201 239.55099218 c 0,24,25
 -116 277 -116 277 -116.475194683 329 c 2,26,-1
 -116.475194683 416 l 2,27,28
 -116.475194683 468.422820957 -116.475194683 468.422820957 -79.4490078201 505.44900782 c 0,29,30
 -66.4159326532 518.482082987 -66.4159326532 518.482082987 -51.4751946834 526.927565893 c 1,31,-1
 -51.4751946834 730 l 2,0,1
EndSplineSet
EndChar

StartChar: E
Encoding: 69 69 37
Width: 600
GlyphClass: 2
Flags: W
AnchorPoint: "Anchor-3" 434 0 basechar 0
AnchorPoint: "Anchor-2" 320 0 basechar 0
AnchorPoint: "Anchor-0" 320 730 basechar 0
LayerCount: 2
Fore
SplineSet
617.475194683 324 m 2,0,1
 617.475194683 266.27001359 617.475194683 266.27001359 573.193860379 227.779525719 c 1,2,3
 596.366272798 218.531742842 596.366272798 218.531742842 615.44900782 199.44900782 c 0,4,5
 652 162 652 162 652.475194683 110 c 2,6,-1
 652.475194683 4.59354776439e-14 l 2,7,8
 652.475194683 -52.4228209568 652.475194683 -52.4228209568 615.44900782 -89.4490078201 c 0,9,10
 578 -126 578 -126 526 -126.475194683 c 2,11,-1
 88 -126.475194683 l 2,12,13
 35.5771790432 -126.475194683 35.5771790432 -126.475194683 -1.4490078201 -89.4490078201 c 128,-1,14
 -38.4751946834 -52.4228209568 -38.4751946834 -52.4228209568 -38.4751946834 -4.59354776439e-14 c 2,15,-1
 -38.4751946834 730 l 2,16,17
 -38.4751946834 782.422820957 -38.4751946834 782.422820957 -1.4490078201 819.44900782 c 0,18,19
 36 856 36 856 88 856.475194683 c 2,20,-1
 526 856.475194683 l 2,21,22
 578.422820957 856.475194683 578.422820957 856.475194683 615.44900782 819.44900782 c 0,23,24
 652 782 652 782 652.475194683 730 c 2,25,-1
 652.475194683 620 l 2,26,27
 652.475194683 567.577179043 652.475194683 567.577179043 615.44900782 530.55099218 c 0,28,29
 603.121336681 518.223321041 603.121336681 518.223321041 589.086915618 510.000082159 c 1,30,31
 617 476 617 476 617.475194683 430 c 2,32,-1
 617.475194683 324 l 2,0,1
EndSplineSet
EndChar

StartChar: Eogonek
Encoding: 280 280 53
Width: 600
GlyphClass: 2
Flags: W
AnchorPoint: "Anchor-3" 434 0 basechar 0
AnchorPoint: "Anchor-2" 320 0 basechar 0
AnchorPoint: "Anchor-0" 320 730 basechar 0
LayerCount: 2
Fore
SplineSet
617.475194683 324 m 2,0,1
 617.475194683 266.27001359 617.475194683 266.27001359 573.193860379 227.779525719 c 1,2,3
 596.366272798 218.531742842 596.366272798 218.531742842 615.44900782 199.44900782 c 0,4,5
 652 162 652 162 652.475194683 110 c 2,6,-1
 652.475194683 4.59354776439e-14 l 2,7,8
 652.475194683 -34.1267258424 652.475194683 -34.1267258424 636.783947602 -61.7285456586 c 1,9,10
 656 -92 656 -92 656.475194683 -130 c 2,11,-1
 656.475194683 -216 l 2,12,13
 656.475194683 -268.422820957 656.475194683 -268.422820957 619.44900782 -305.44900782 c 128,-1,14
 582.422820957 -342.475194683 582.422820957 -342.475194683 530 -342.475194683 c 2,15,-1
 435 -342.475194683 l 2,16,17
 317.478169142 -342.475194683 317.478169142 -342.475194683 244.945365281 -269.942390822 c 0,18,19
 216.73490426 -241.731929802 216.73490426 -241.731929802 199.988923888 -205.376163718 c 128,-1,20
 183.242943516 -169.020397635 183.242943516 -169.020397635 180.893508673 -126.475194683 c 1,21,-1
 88 -126.475194683 l 2,22,23
 35.5771790432 -126.475194683 35.5771790432 -126.475194683 -1.4490078201 -89.4490078201 c 128,-1,24
 -38.4751946834 -52.4228209568 -38.4751946834 -52.4228209568 -38.4751946834 -4.59354776439e-14 c 2,25,-1
 -38.4751946834 730 l 2,26,27
 -38.4751946834 782.422820957 -38.4751946834 782.422820957 -1.4490078201 819.44900782 c 0,28,29
 36 856 36 856 88 856.475194683 c 2,30,-1
 526 856.475194683 l 2,31,32
 578.422820957 856.475194683 578.422820957 856.475194683 615.44900782 819.44900782 c 0,33,34
 652 782 652 782 652.475194683 730 c 2,35,-1
 652.475194683 620 l 2,36,37
 652.475194683 567.577179043 652.475194683 567.577179043 615.44900782 530.55099218 c 0,38,39
 603.121336681 518.223321041 603.121336681 518.223321041 589.086915618 510.000082159 c 1,40,41
 617 476 617 476 617.475194683 430 c 2,42,-1
 617.475194683 324 l 2,0,1
EndSplineSet
EndChar

StartChar: F
Encoding: 70 70 56
Width: 600
GlyphClass: 2
Flags: W
AnchorPoint: "Anchor-2" 300 0 basechar 0
AnchorPoint: "Anchor-0" 300 730 basechar 0
LayerCount: 2
Fore
SplineSet
-46.4751946834 -4.59354776439e-14 m 2,0,-1
 -46.4751946834 730 l 2,1,2
 -46.4751946834 782.422820957 -46.4751946834 782.422820957 -9.4490078201 819.44900782 c 0,3,4
 28 856 28 856 80 856.475194683 c 2,5,-1
 534 856.475194683 l 2,6,7
 586.422820957 856.475194683 586.422820957 856.475194683 623.44900782 819.44900782 c 0,8,9
 660 782 660 782 660.475194683 730 c 2,10,-1
 660.475194683 614 l 2,11,12
 660.475194683 561.577179043 660.475194683 561.577179043 623.44900782 524.55099218 c 0,13,14
 612.427743476 513.529727836 612.427743476 513.529727836 600.042302364 505.78906779 c 1,15,16
 634 470 634 470 634.475194683 419 c 2,17,-1
 634.475194683 303 l 2,18,19
 634.475194683 250.577179043 634.475194683 250.577179043 597.44900782 213.55099218 c 128,-1,20
 560.422820957 176.524805317 560.422820957 176.524805317 508 176.524805317 c 2,21,-1
 331.475194683 176.524805317 l 1,22,-1
 331.475194683 4.59354776439e-14 l 2,23,24
 331.475194683 -52.4228209568 331.475194683 -52.4228209568 294.44900782 -89.4490078201 c 0,25,26
 257 -126 257 -126 205 -126.475194683 c 2,27,-1
 80 -126.475194683 l 2,28,29
 27.5771790432 -126.475194683 27.5771790432 -126.475194683 -9.4490078201 -89.4490078201 c 128,-1,30
 -46.4751946834 -52.4228209568 -46.4751946834 -52.4228209568 -46.4751946834 -4.59354776439e-14 c 2,0,-1
EndSplineSet
EndChar

StartChar: G
Encoding: 71 71 57
Width: 600
GlyphClass: 2
Flags: W
AnchorPoint: "Anchor-2" 304 0 basechar 0
AnchorPoint: "Anchor-0" 300 730 basechar 0
LayerCount: 2
Fore
SplineSet
483.46879649 -96.220031495 m 0,0,1
 404.477532875 -136.475194683 404.477532875 -136.475194683 303.5 -136.475194683 c 128,-1,2
 202.522467125 -136.475194683 202.522467125 -136.475194683 123.53120351 -96.220031495 c 0,3,4
 38.6341842761 -52.9552043853 38.6341842761 -52.9552043853 -7.92050520365 26.269442624 c 128,-1,5
 -54.4751946834 105.494089633 -54.4751946834 105.494089633 -54.4751946834 206 c 2,6,-1
 -54.4751946834 524 l 2,7,8
 -54.4751946834 624.505910367 -54.4751946834 624.505910367 -8.60556694882 702.564750546 c 0,9,10
 38.6341842761 782.955204385 38.6341842761 782.955204385 123.53120351 826.220031495 c 0,11,12
 202.522467125 866.475194683 202.522467125 866.475194683 303.5 866.475194683 c 128,-1,13
 404.477532875 866.475194683 404.477532875 866.475194683 483.46879649 826.220031495 c 0,14,15
 567.899079258 783.193060469 567.899079258 783.193060469 615.187136971 704.107860501 c 128,-1,16
 662.475194683 625.022660533 662.475194683 625.022660533 662.475194683 524 c 0,17,18
 662.475194683 485.942773085 662.475194683 485.942773085 642.961365754 456 c 1,19,20
 662 426 662 426 662.475194683 388 c 2,21,-1
 662.475194683 206 l 2,22,23
 662.475194683 104.977339467 662.475194683 104.977339467 615.617420751 26.6117520287 c 0,24,25
 567.899079258 -53.1930604691 567.899079258 -53.1930604691 483.46879649 -96.220031495 c 0,0,1
EndSplineSet
EndChar

StartChar: H
Encoding: 72 72 64
Width: 600
GlyphClass: 2
Flags: W
AnchorPoint: "Anchor-4" 300 365 basechar 0
AnchorPoint: "Anchor-2" 300 0 basechar 0
AnchorPoint: "Anchor-0" 300 730 basechar 0
LayerCount: 2
Fore
SplineSet
398 -126.475194683 m 2,0,1
 338.685920567 -126.475194683 338.685920567 -126.475194683 300 -80.1043706833 c 1,2,3
 296.004779236 -84.893236404 296.004779236 -84.893236404 291.44900782 -89.4490078201 c 0,4,5
 254 -126 254 -126 202 -126.475194683 c 2,6,-1
 77 -126.475194683 l 2,7,8
 24.5771790432 -126.475194683 24.5771790432 -126.475194683 -12.4490078201 -89.4490078201 c 128,-1,9
 -49.4751946834 -52.4228209568 -49.4751946834 -52.4228209568 -49.4751946834 -4.59354776439e-14 c 2,10,-1
 -49.4751946834 730 l 2,11,12
 -49.4751946834 782.422820957 -49.4751946834 782.422820957 -12.4490078201 819.44900782 c 0,13,14
 25 856 25 856 77 856.475194683 c 2,15,-1
 202 856.475194683 l 2,16,17
 261.314079433 856.475194683 261.314079433 856.475194683 300 810.104370683 c 1,18,19
 303.995220764 814.893236404 303.995220764 814.893236404 308.55099218 819.44900782 c 0,20,21
 346 856 346 856 398 856.475194683 c 2,22,-1
 523 856.475194683 l 2,23,24
 575.422820957 856.475194683 575.422820957 856.475194683 612.44900782 819.44900782 c 0,25,26
 649 782 649 782 649.475194683 730 c 2,27,-1
 649.475194683 4.59354776439e-14 l 2,28,29
 649.475194683 -52.4228209568 649.475194683 -52.4228209568 612.44900782 -89.4490078201 c 0,30,31
 575 -126 575 -126 523 -126.475194683 c 2,32,-1
 398 -126.475194683 l 2,0,1
EndSplineSet
EndChar

StartChar: Hbar
Encoding: 294 294 65
Width: 600
GlyphClass: 2
Flags: W
AnchorPoint: "Anchor-4" 300 365 basechar 0
AnchorPoint: "Anchor-2" 300 0 basechar 0
AnchorPoint: "Anchor-0" 300 730 basechar 0
LayerCount: 2
Fore
SplineSet
398 -126.475194683 m 2,0,1
 338.685920567 -126.475194683 338.685920567 -126.475194683 300 -80.1043706833 c 1,2,3
 296.004779236 -84.893236404 296.004779236 -84.893236404 291.44900782 -89.4490078201 c 0,4,5
 254 -126 254 -126 202 -126.475194683 c 2,6,-1
 77 -126.475194683 l 2,7,8
 24.5771790432 -126.475194683 24.5771790432 -126.475194683 -12.4490078201 -89.4490078201 c 128,-1,9
 -49.4751946834 -52.4228209568 -49.4751946834 -52.4228209568 -49.4751946834 -4.59354776439e-14 c 2,10,-1
 -49.4751946834 412.967070659 l 1,11,12
 -65.5473104709 421.649294831 -65.5473104709 421.649294831 -79.4490078201 435.55099218 c 0,13,14
 -116 473 -116 473 -116.475194683 525 c 2,15,-1
 -116.475194683 612 l 2,16,17
 -116.475194683 664.422820957 -116.475194683 664.422820957 -79.4490078201 701.44900782 c 0,18,19
 -65.5473104709 715.350705169 -65.5473104709 715.350705169 -49.4751946834 724.032929341 c 1,20,-1
 -49.4751946834 730 l 2,21,22
 -49.4751946834 782.422820957 -49.4751946834 782.422820957 -12.4490078201 819.44900782 c 0,23,24
 25 856 25 856 77 856.475194683 c 2,25,-1
 202 856.475194683 l 2,26,27
 261.314079433 856.475194683 261.314079433 856.475194683 300 810.104370683 c 1,28,29
 303.995220764 814.893236404 303.995220764 814.893236404 308.55099218 819.44900782 c 0,30,31
 346 856 346 856 398 856.475194683 c 2,32,-1
 523 856.475194683 l 2,33,34
 575.422820957 856.475194683 575.422820957 856.475194683 612.44900782 819.44900782 c 0,35,36
 649 782 649 782 649.475194683 730 c 2,37,-1
 649.475194683 724.032929341 l 1,38,39
 665.547310471 715.350705169 665.547310471 715.350705169 679.44900782 701.44900782 c 0,40,41
 716 664 716 664 716.475194683 612 c 2,42,-1
 716.475194683 525 l 2,43,44
 716.475194683 472.577179043 716.475194683 472.577179043 679.44900782 435.55099218 c 0,45,46
 665.547310471 421.649294831 665.547310471 421.649294831 649.475194683 412.967070659 c 1,47,-1
 649.475194683 4.59354776439e-14 l 2,48,49
 649.475194683 -52.4228209568 649.475194683 -52.4228209568 612.44900782 -89.4490078201 c 0,50,51
 575 -126 575 -126 523 -126.475194683 c 2,52,-1
 398 -126.475194683 l 2,0,1
EndSplineSet
EndChar

StartChar: I
Encoding: 73 73 67
Width: 600
GlyphClass: 2
Flags: W
AnchorPoint: "Anchor-3" 320 0 basechar 0
AnchorPoint: "Anchor-2" 300 0 basechar 0
AnchorPoint: "Anchor-0" 300 730 basechar 0
LayerCount: 2
Fore
SplineSet
-36.4751946834 -4.59354776439e-14 m 2,0,-1
 -36.4751946834 113 l 2,1,2
 -36.4751946834 165.422820957 -36.4751946834 165.422820957 0.550992179902 202.44900782 c 128,-1,3
 37.5771790432 239.475194683 37.5771790432 239.475194683 90 239.475194683 c 2,4,-1
 110.524805317 239.475194683 l 1,5,-1
 110.524805317 490.524805317 l 1,6,-1
 90 490.524805317 l 2,7,8
 37.5771790432 490.524805317 37.5771790432 490.524805317 0.550992179902 527.55099218 c 0,9,10
 -36 565 -36 565 -36.4751946834 617 c 2,11,-1
 -36.4751946834 730 l 2,12,13
 -36.4751946834 782.422820957 -36.4751946834 782.422820957 0.550992179902 819.44900782 c 0,14,15
 38 856 38 856 90 856.475194683 c 2,16,-1
 510 856.475194683 l 2,17,18
 562.422820957 856.475194683 562.422820957 856.475194683 599.44900782 819.44900782 c 0,19,20
 636 782 636 782 636.475194683 730 c 2,21,-1
 636.475194683 617 l 2,22,23
 636.475194683 564.577179043 636.475194683 564.577179043 599.44900782 527.55099218 c 0,24,25
 562 491 562 491 510 490.524805317 c 2,26,-1
 489.475194683 490.524805317 l 1,27,-1
 489.475194683 239.475194683 l 1,28,-1
 510 239.475194683 l 2,29,30
 562.422820957 239.475194683 562.422820957 239.475194683 599.44900782 202.44900782 c 0,31,32
 636 165 636 165 636.475194683 113 c 2,33,-1
 636.475194683 4.59354776439e-14 l 2,34,35
 636.475194683 -52.4228209568 636.475194683 -52.4228209568 599.44900782 -89.4490078201 c 0,36,37
 562 -126 562 -126 510 -126.475194683 c 2,38,-1
 90 -126.475194683 l 2,39,40
 37.5771790432 -126.475194683 37.5771790432 -126.475194683 0.550992179902 -89.4490078201 c 128,-1,41
 -36.4751946834 -52.4228209568 -36.4751946834 -52.4228209568 -36.4751946834 -4.59354776439e-14 c 2,0,-1
EndSplineSet
EndChar

StartChar: Iogonek
Encoding: 302 302 77
Width: 600
GlyphClass: 2
Flags: W
AnchorPoint: "Anchor-3" 320 0 basechar 0
AnchorPoint: "Anchor-2" 300 0 basechar 0
AnchorPoint: "Anchor-0" 300 730 basechar 0
LayerCount: 2
Fore
SplineSet
-36.4751946834 -4.59354776439e-14 m 2,0,-1
 -36.4751946834 113 l 2,1,2
 -36.4751946834 165.422820957 -36.4751946834 165.422820957 0.550992179902 202.44900782 c 128,-1,3
 37.5771790432 239.475194683 37.5771790432 239.475194683 90 239.475194683 c 2,4,-1
 110.524805317 239.475194683 l 1,5,-1
 110.524805317 490.524805317 l 1,6,-1
 90 490.524805317 l 2,7,8
 37.5771790432 490.524805317 37.5771790432 490.524805317 0.550992179902 527.55099218 c 0,9,10
 -36 565 -36 565 -36.4751946834 617 c 2,11,-1
 -36.4751946834 730 l 2,12,13
 -36.4751946834 782.422820957 -36.4751946834 782.422820957 0.550992179902 819.44900782 c 0,14,15
 38 856 38 856 90 856.475194683 c 2,16,-1
 510 856.475194683 l 2,17,18
 562.422820957 856.475194683 562.422820957 856.475194683 599.44900782 819.44900782 c 0,19,20
 636 782 636 782 636.475194683 730 c 2,21,-1
 636.475194683 617 l 2,22,23
 636.475194683 564.577179043 636.475194683 564.577179043 599.44900782 527.55099218 c 0,24,25
 562 491 562 491 510 490.524805317 c 2,26,-1
 489.475194683 490.524805317 l 1,27,-1
 489.475194683 239.475194683 l 1,28,-1
 510 239.475194683 l 2,29,30
 562.422820957 239.475194683 562.422820957 239.475194683 599.44900782 202.44900782 c 0,31,32
 636 165 636 165 636.475194683 113 c 2,33,-1
 636.475194683 4.59354776439e-14 l 2,34,35
 636.475194683 -52.4228209568 636.475194683 -52.4228209568 599.44900782 -89.4490078201 c 0,36,37
 566.887627564 -122.010388076 566.887627564 -122.010388076 522.418943797 -125.936805513 c 0,38,39
 522.475194683 -127.956707327 522.475194683 -127.956707327 522.475194683 -130 c 2,40,-1
 522.475194683 -216 l 2,41,42
 522.475194683 -268.422820957 522.475194683 -268.422820957 485.44900782 -305.44900782 c 128,-1,43
 448.422820957 -342.475194683 448.422820957 -342.475194683 396 -342.475194683 c 2,44,-1
 301 -342.475194683 l 2,45,46
 183.478169142 -342.475194683 183.478169142 -342.475194683 110.945365281 -269.942390822 c 0,47,48
 82.7349042603 -241.731929802 82.7349042603 -241.731929802 65.2540133795 -203.780662353 c 128,-1,49
 47.7731224987 -165.829394904 47.7731224987 -165.829394904 46.6025702707 -119.218771675 c 1,50,51
 21.185788795 -110.083804435 21.185788795 -110.083804435 0.550992179902 -89.4490078201 c 0,52,53
 -36.4751946834 -52.4228209568 -36.4751946834 -52.4228209568 -36.4751946834 -4.59354776439e-14 c 2,0,-1
EndSplineSet
EndChar

StartChar: J
Encoding: 74 74 79
Width: 600
GlyphClass: 2
Flags: W
AnchorPoint: "Anchor-2" 300 0 basechar 0
AnchorPoint: "Anchor-0" 360 730 basechar 0
LayerCount: 2
Fore
SplineSet
270 -136.475194683 m 0,0,1
 102.963225555 -136.475194683 102.963225555 -136.475194683 0.919364272925 -34.4313334015 c 0,2,3
 -54.1342178002 20.6222486716 -54.1342178002 20.6222486716 -78.3693197023 95.3471462033 c 0,4,5
 -96.4751946834 151.173594061 -96.4751946834 151.173594061 -96.4751946834 216 c 0,6,7
 -96.4751946834 268.422820957 -96.4751946834 268.422820957 -59.4490078201 305.44900782 c 128,-1,8
 -22.4228209568 342.475194683 -22.4228209568 342.475194683 30 342.475194683 c 2,9,-1
 155 342.475194683 l 2,10,11
 207.422820957 342.475194683 207.422820957 342.475194683 244.44900782 305.44900782 c 0,12,13
 252.324458753 297.573556887 252.324458753 297.573556887 258.524805317 289.001545729 c 1,14,-1
 258.524805317 490.524805317 l 1,15,-1
 180 490.524805317 l 2,16,17
 127.577179043 490.524805317 127.577179043 490.524805317 90.5509921799 527.55099218 c 0,18,19
 54 565 54 565 53.5248053166 617 c 2,20,-1
 53.5248053166 730 l 2,21,22
 53.5248053166 782.422820957 53.5248053166 782.422820957 90.5509921799 819.44900782 c 0,23,24
 128 856 128 856 180 856.475194683 c 2,25,-1
 510 856.475194683 l 2,26,27
 562.422820957 856.475194683 562.422820957 856.475194683 599.44900782 819.44900782 c 0,28,29
 636 782 636 782 636.475194683 730 c 2,30,-1
 636.475194683 215 l 2,31,32
 636.475194683 150.440341198 636.475194683 150.440341198 618.515210807 94.8896933958 c 0,33,34
 592.740651576 15.1683822852 592.740651576 15.1683822852 533.56972577 -40.3330287424 c 0,35,36
 431.07105299 -136.475194683 431.07105299 -136.475194683 270 -136.475194683 c 0,0,1
EndSplineSet
EndChar

StartChar: K
Encoding: 75 75 81
Width: 600
GlyphClass: 2
Flags: W
AnchorPoint: "Anchor-2" 300 0 basechar 0
AnchorPoint: "Anchor-0" 300 730 basechar 0
LayerCount: 2
Fore
SplineSet
-50.4751946834 -4.59354776439e-14 m 2,0,-1
 -50.4751946834 730 l 2,1,2
 -50.4751946834 782.422820957 -50.4751946834 782.422820957 -13.4490078201 819.44900782 c 0,3,4
 24 856 24 856 76 856.475194683 c 2,5,-1
 201 856.475194683 l 2,6,7
 253.422820957 856.475194683 253.422820957 856.475194683 290.44900782 819.44900782 c 0,8,9
 304.876614727 805.021400914 304.876614727 805.021400914 313.682366981 788.256052902 c 1,10,11
 322.616735043 805.514750686 322.616735043 805.514750686 336.55099218 819.44900782 c 0,12,13
 374 856 374 856 426 856.475194683 c 2,14,-1
 561 856.475194683 l 2,15,16
 613.422820957 856.475194683 613.422820957 856.475194683 650.44900782 819.44900782 c 128,-1,17
 687.623311251 782.274704389 687.623311251 782.274704389 687.623311251 728.767565004 c 0,18,19
 687.623311251 701.062416288 687.623311251 701.062416288 675.427774542 676.014311427 c 2,20,-1
 536.300031489 380.792027389 l 1,21,-1
 684.337918925 52.0102076187 l 2,22,23
 695.631969911 27.7784625159 695.631969911 27.7784625159 695.631969911 1.19738772631 c 0,24,25
 695.631969911 -10.1111777835 695.631969911 -10.1111777835 693.587787224 -21.8449635334 c 0,26,27
 686.73870043 -61.1593152099 686.73870043 -61.1593152099 658.44900782 -89.4490078201 c 0,28,29
 621 -126 621 -126 569 -126.475194683 c 2,30,-1
 430 -126.475194683 l 2,31,32
 377.577179043 -126.475194683 377.577179043 -126.475194683 340.55099218 -89.4490078201 c 0,33,34
 324.996361045 -73.8943766857 324.996361045 -73.8943766857 315.693307223 -54.2437230665 c 1,35,36
 306.588874598 -73.3091410423 306.588874598 -73.3091410423 290.44900782 -89.4490078201 c 0,37,38
 253 -126 253 -126 201 -126.475194683 c 2,39,-1
 76 -126.475194683 l 2,40,41
 23.5771790432 -126.475194683 23.5771790432 -126.475194683 -13.4490078201 -89.4490078201 c 128,-1,42
 -50.4751946834 -52.4228209568 -50.4751946834 -52.4228209568 -50.4751946834 -4.59354776439e-14 c 2,0,-1
EndSplineSet
EndChar

StartChar: L
Encoding: 76 76 83
Width: 600
GlyphClass: 2
Flags: W
AnchorPoint: "Anchor-4" 300 365 basechar 0
AnchorPoint: "Anchor-2" 340 0 basechar 0
AnchorPoint: "Anchor-0" 184 730 basechar 0
LayerCount: 2
Fore
SplineSet
-5.47519468337 -4.59354776439e-14 m 2,0,-1
 -5.47519468337 730 l 2,1,2
 -5.47519468337 782.422820957 -5.47519468337 782.422820957 31.5509921799 819.44900782 c 0,3,4
 69 856 69 856 121 856.475194683 c 2,5,-1
 246 856.475194683 l 2,6,7
 298.422820957 856.475194683 298.422820957 856.475194683 335.44900782 819.44900782 c 128,-1,8
 372.475194683 782.422820957 372.475194683 782.422820957 372.475194683 730 c 2,9,-1
 372.475194683 239.475194683 l 1,10,-1
 556 239.475194683 l 2,11,12
 608.422820957 239.475194683 608.422820957 239.475194683 645.44900782 202.44900782 c 0,13,14
 682 165 682 165 682.475194683 113 c 2,15,-1
 682.475194683 4.59354776439e-14 l 2,16,17
 682.475194683 -52.4228209568 682.475194683 -52.4228209568 645.44900782 -89.4490078201 c 0,18,19
 608 -126 608 -126 556 -126.475194683 c 2,20,-1
 121 -126.475194683 l 2,21,22
 68.5771790432 -126.475194683 68.5771790432 -126.475194683 31.5509921799 -89.4490078201 c 128,-1,23
 -5.47519468337 -52.4228209568 -5.47519468337 -52.4228209568 -5.47519468337 -4.59354776439e-14 c 2,0,-1
EndSplineSet
EndChar

StartChar: Lslash
Encoding: 321 321 88
Width: 600
GlyphClass: 2
Flags: W
AnchorPoint: "Anchor-4" 306 365 basechar 0
AnchorPoint: "Anchor-2" 346 0 basechar 0
AnchorPoint: "Anchor-0" 190 730 basechar 0
LayerCount: 2
Fore
SplineSet
378.475194683 239.475194683 m 1,0,-1
 562 239.475194683 l 2,1,2
 614.422820957 239.475194683 614.422820957 239.475194683 651.44900782 202.44900782 c 0,3,4
 688 165 688 165 688.475194683 113 c 2,5,-1
 688.475194683 4.59354776439e-14 l 2,6,7
 688.475194683 -52.4228209568 688.475194683 -52.4228209568 651.44900782 -89.4490078201 c 0,8,9
 614 -126 614 -126 562 -126.475194683 c 2,10,-1
 127 -126.475194683 l 2,11,12
 74.5771790432 -126.475194683 74.5771790432 -126.475194683 37.5509921799 -89.4490078201 c 128,-1,13
 0.52480531663 -52.4228209568 0.52480531663 -52.4228209568 0.52480531663 -4.59354776439e-14 c 2,14,-1
 0.52480531663 105.018201078 l 1,15,16
 -40.1089788148 111.210963175 -40.1089788148 111.210963175 -69.4490078201 140.55099218 c 0,17,18
 -106 178 -106 178 -106.475194683 230 c 2,19,-1
 -106.475194683 345 l 2,20,21
 -106.475194683 397.422820957 -106.475194683 397.422820957 -69.4490078201 434.44900782 c 0,22,23
 -57.3588970779 446.539118562 -57.3588970779 446.539118562 -42.6385240456 454.931106927 c 2,24,-1
 0.52480531663 479.538238619 l 1,25,-1
 0.52480531663 730 l 2,26,27
 0.52480531663 782.422820957 0.52480531663 782.422820957 37.5509921799 819.44900782 c 0,28,29
 75 856 75 856 127 856.475194683 c 2,30,-1
 252 856.475194683 l 2,31,32
 304.422820957 856.475194683 304.422820957 856.475194683 341.44900782 819.44900782 c 128,-1,33
 378.475194683 782.422820957 378.475194683 782.422820957 378.475194683 730 c 2,34,-1
 378.475194683 685.529409716 l 1,35,36
 386.455271443 686.580646332 386.455271443 686.580646332 394.856365857 686.580646332 c 0,37,38
 448.317369309 686.580646332 448.317369309 686.580646332 485.44900782 649.44900782 c 128,-1,39
 522.475194683 612.422820957 522.475194683 612.422820957 522.475194683 560 c 2,40,-1
 522.475194683 445 l 2,41,42
 522.475194683 392.577179043 522.475194683 392.577179043 485.44900782 355.55099218 c 0,43,44
 473.336667544 343.438651903 473.336667544 343.438651903 458.585116652 335.038463201 c 2,45,-1
 378.475194683 289.420313191 l 1,46,-1
 378.475194683 239.475194683 l 1,0,-1
EndSplineSet
EndChar

StartChar: M
Encoding: 77 77 89
Width: 600
GlyphClass: 2
Flags: W
AnchorPoint: "Anchor-2" 300 0 basechar 0
AnchorPoint: "Anchor-0" 300 730 basechar 0
LayerCount: 2
Fore
SplineSet
204 856.475194683 m 2,0,1
 261.480405824 856.475194683 261.480405824 856.475194683 299.499854386 812.98149145 c 1,2,3
 302.393732795 816.291748435 302.393732795 816.291748435 305.55099218 819.44900782 c 0,4,5
 343 856 343 856 395 856.475194683 c 2,6,-1
 544 856.475194683 l 2,7,8
 596.422820957 856.475194683 596.422820957 856.475194683 633.44900782 819.44900782 c 0,9,10
 670 782 670 782 670.475194683 730 c 2,11,-1
 670.475194683 4.59354776439e-14 l 2,12,13
 670.475194683 -52.4228209568 670.475194683 -52.4228209568 633.44900782 -89.4490078201 c 0,14,15
 596 -126 596 -126 544 -126.475194683 c 2,16,-1
 427 -126.475194683 l 2,17,18
 374.577179043 -126.475194683 374.577179043 -126.475194683 337.55099218 -89.4490078201 c 128,-1,19
 300.524805317 -52.4228209568 300.524805317 -52.4228209568 300.524805317 -4.61852778244e-14 c 2,20,-1
 300.524805317 187.524805317 l 1,21,-1
 299.475194683 187.524805317 l 1,22,-1
 299.475194683 4.59354776439e-14 l 2,23,24
 299.475194683 -52.4228209568 299.475194683 -52.4228209568 262.44900782 -89.4490078201 c 0,25,26
 225 -126 225 -126 173 -126.475194683 c 2,27,-1
 56 -126.475194683 l 2,28,29
 3.57717904317 -126.475194683 3.57717904317 -126.475194683 -33.4490078201 -89.4490078201 c 128,-1,30
 -70.4751946834 -52.4228209568 -70.4751946834 -52.4228209568 -70.4751946834 -4.59354776439e-14 c 2,31,-1
 -70.4751946834 730 l 2,32,33
 -70.4751946834 782.422820957 -70.4751946834 782.422820957 -33.4490078201 819.44900782 c 0,34,35
 4 856 4 856 56 856.475194683 c 2,36,-1
 204 856.475194683 l 2,0,1
EndSplineSet
EndChar

StartChar: N
Encoding: 78 78 90
Width: 600
GlyphClass: 2
Flags: W
AnchorPoint: "Anchor-2" 300 0 basechar 0
AnchorPoint: "Anchor-0" 300 730 basechar 0
LayerCount: 2
Fore
SplineSet
375 -126.475194683 m 2,0,1
 318.395539723 -126.475194683 318.395539723 -126.475194683 280.511646031 -84.1230176461 c 1,2,3
 278.073329542 -86.8246860984 278.073329542 -86.8246860984 275.44900782 -89.4490078201 c 0,4,5
 238 -126 238 -126 186 -126.475194683 c 2,6,-1
 72 -126.475194683 l 2,7,8
 19.5771790432 -126.475194683 19.5771790432 -126.475194683 -17.4490078201 -89.4490078201 c 128,-1,9
 -54.4751946834 -52.4228209568 -54.4751946834 -52.4228209568 -54.4751946834 -4.59354776439e-14 c 2,10,-1
 -54.4751946834 730 l 2,11,12
 -54.4751946834 782.422820957 -54.4751946834 782.422820957 -17.4490078201 819.44900782 c 0,13,14
 20 856 20 856 72 856.475194683 c 2,15,-1
 225 856.475194683 l 2,16,17
 281.606385834 856.475194683 281.606385834 856.475194683 319.488282843 814.122938838 c 1,18,19
 321.926632182 816.824647822 321.926632182 816.824647822 324.55099218 819.44900782 c 0,20,21
 362 856 362 856 414 856.475194683 c 2,22,-1
 528 856.475194683 l 2,23,24
 580.422820957 856.475194683 580.422820957 856.475194683 617.44900782 819.44900782 c 0,25,26
 654 782 654 782 654.475194683 730 c 2,27,-1
 654.475194683 4.59354776439e-14 l 2,28,29
 654.475194683 -52.4228209568 654.475194683 -52.4228209568 617.44900782 -89.4490078201 c 0,30,31
 580 -126 580 -126 528 -126.475194683 c 2,32,-1
 375 -126.475194683 l 2,0,1
EndSplineSet
EndChar

StartChar: Eng
Encoding: 330 330 94
Width: 600
GlyphClass: 1
Flags: W
LayerCount: 2
Fore
SplineSet
225 856.475194683 m 2,0,1
 281.636958939 856.475194683 281.636958939 856.475194683 319.487145063 814.121678154 c 1,2,3
 321.926019889 816.824035529 321.926019889 816.824035529 324.55099218 819.44900782 c 0,4,5
 362 856 362 856 414 856.475194683 c 2,6,-1
 528 856.475194683 l 2,7,8
 580.422820957 856.475194683 580.422820957 856.475194683 617.44900782 819.44900782 c 0,9,10
 654 782 654 782 654.475194683 730 c 2,11,-1
 654.475194683 21 l 2,12,13
 654.475194683 -75.7690387103 654.475194683 -75.7690387103 606.428438935 -151.63233726 c 0,14,15
 559.056349569 -226.430373102 559.056349569 -226.430373102 476.610548618 -267.653273577 c 0,16,17
 398.966706406 -306.475194683 398.966706406 -306.475194683 302 -306.475194683 c 2,18,-1
 246 -306.475194683 l 2,19,20
 193.577179043 -306.475194683 193.577179043 -306.475194683 156.55099218 -269.44900782 c 128,-1,21
 119.524805317 -232.422820957 119.524805317 -232.422820957 119.524805317 -180 c 2,22,-1
 119.524805317 -126.475194683 l 1,23,-1
 72 -126.475194683 l 2,24,25
 19.5771790432 -126.475194683 19.5771790432 -126.475194683 -17.4490078201 -89.4490078201 c 0,26,27
 -54 -52 -54 -52 -54.4751946834 -4.61852778244e-14 c 2,28,-1
 -54.4751946834 730 l 2,29,30
 -54.4751946834 782.422820957 -54.4751946834 782.422820957 -17.4490078201 819.44900782 c 0,31,32
 20 856 20 856 72 856.475194683 c 2,33,-1
 225 856.475194683 l 2,0,1
EndSplineSet
EndChar

StartChar: O
Encoding: 79 79 96
Width: 600
GlyphClass: 2
Flags: W
AnchorPoint: "Anchor-4" 300 365 basechar 0
AnchorPoint: "Anchor-3" 347 0 basechar 0
AnchorPoint: "Anchor-2" 300 0 basechar 0
AnchorPoint: "Anchor-1" 320 700 basechar 0
AnchorPoint: "Anchor-0" 300 730 basechar 0
LayerCount: 2
Fore
SplineSet
300 -136.475194683 m 0,0,1
 234.453780319 -136.475194683 234.453780319 -136.475194683 178.373220988 -119.45463582 c 0,2,3
 98.1194220069 -95.0974516936 98.1194220069 -95.0974516936 40.4865458131 -37.4727967474 c 0,4,5
 -13.1698309532 16.1835800189 -13.1698309532 16.1835800189 -36.8120725063 88.8402247916 c 0,6,7
 -54.4751946834 143.122014897 -54.4751946834 143.122014897 -54.4751946834 206 c 2,8,-1
 -54.4751946834 524 l 2,9,10
 -54.4751946834 586.877985103 -54.4751946834 586.877985103 -36.8120725063 641.159775208 c 0,11,12
 -11.8661664799 717.822803484 -11.8661664799 717.822803484 45.1815279408 772.083793791 c 0,13,14
 144.420627037 866.475194683 144.420627037 866.475194683 300 866.475194683 c 0,15,16
 365.546219681 866.475194683 365.546219681 866.475194683 421.626779012 849.45463582 c 0,17,18
 501.881415232 825.09719759 501.881415232 825.09719759 559.54821378 767.438910771 c 0,19,20
 613.093210685 713.893913866 613.093210685 713.893913866 636.742310128 641.696866381 c 0,21,22
 654.475194683 587.561109058 654.475194683 587.561109058 654.475194683 525 c 2,23,-1
 654.475194683 206 l 2,24,25
 654.475194683 143.122014897 654.475194683 143.122014897 636.812072506 88.8402247916 c 0,26,27
 611.86616648 12.1771965155 611.86616648 12.1771965155 554.818472059 -42.0837937907 c 0,28,29
 455.579372963 -136.475194683 455.579372963 -136.475194683 300 -136.475194683 c 0,0,1
EndSplineSet
Substitution2: "Single Substitution lookup 399 subtable" ordmasculine
Substitution2: "'aalt' Access All Alternates in Latin lookup 0 subtable" ordmasculine
EndChar

StartChar: Ohorn
Encoding: 416 416 109
Width: 600
GlyphClass: 2
Flags: W
AnchorPoint: "Anchor-4" 300 365 basechar 0
AnchorPoint: "Anchor-3" 347 0 basechar 0
AnchorPoint: "Anchor-2" 300 0 basechar 0
AnchorPoint: "Anchor-1" 320 700 basechar 0
AnchorPoint: "Anchor-0" 290 730 basechar 0
LayerCount: 2
Fore
SplineSet
689.475194683 733 m 2,0,1
 689.475194683 655.252806867 689.475194683 655.252806867 648.513215739 594.582340219 c 1,2,3
 654.475194559 561.050758212 654.475194559 561.050758212 654.475194683 525 c 2,4,-1
 654.475194683 206 l 2,5,6
 654.475194683 143.122014897 654.475194683 143.122014897 636.812072506 88.8402247916 c 0,7,8
 611.86616648 12.1771965155 611.86616648 12.1771965155 554.818472059 -42.0837937907 c 0,9,10
 455.579372963 -136.475194683 455.579372963 -136.475194683 300 -136.475194683 c 0,11,12
 234.453780319 -136.475194683 234.453780319 -136.475194683 178.373220988 -119.45463582 c 0,13,14
 98.1194220069 -95.0974516936 98.1194220069 -95.0974516936 40.4865458131 -37.4727967474 c 0,15,16
 -13.1698309532 16.1835800189 -13.1698309532 16.1835800189 -36.8120725063 88.8402247916 c 0,17,18
 -54.4751946834 143.122014897 -54.4751946834 143.122014897 -54.4751946834 206 c 2,19,-1
 -54.4751946834 524 l 2,20,21
 -54.4751946834 586.877985103 -54.4751946834 586.877985103 -36.8120725063 641.159775208 c 0,22,23
 -11.8661664799 717.822803484 -11.8661664799 717.822803484 45.1815279408 772.083793791 c 0,24,25
 144.420627037 866.475194683 144.420627037 866.475194683 300 866.475194683 c 0,26,27
 323.751962242 866.475194683 323.751962242 866.475194683 346.290961918 864.210768188 c 1,28,29
 355.397177319 883.295192959 355.397177319 883.295192959 371.55099218 899.44900782 c 0,30,31
 409 936 409 936 461 936.475194683 c 2,32,-1
 563 936.475194683 l 2,33,34
 615.422820957 936.475194683 615.422820957 936.475194683 652.44900782 899.44900782 c 0,35,36
 689 862 689 862 689.475194683 810 c 2,37,-1
 689.475194683 733 l 2,0,1
EndSplineSet
EndChar

StartChar: uni01EA
Encoding: 490 490 117
Width: 600
GlyphClass: 2
Flags: W
AnchorPoint: "Anchor-1" 320 700 basechar 0
AnchorPoint: "Anchor-0" 300 730 basechar 0
LayerCount: 2
Fore
SplineSet
110.524805317 -113 m 0,0,1
 110.524805317 -102.130933985 110.524805317 -102.130933985 111.747339555 -91.3588113146 c 1,2,3
 72.5684442702 -69.5501187675 72.5684442702 -69.5501187675 40.4865458131 -37.4727967474 c 0,4,5
 -13.1698309532 16.1835800189 -13.1698309532 16.1835800189 -36.8120725063 88.8402247916 c 0,6,7
 -54.4751946834 143.122014897 -54.4751946834 143.122014897 -54.4751946834 206 c 2,8,-1
 -54.4751946834 524 l 2,9,10
 -54.4751946834 586.877985103 -54.4751946834 586.877985103 -36.8120725063 641.159775208 c 0,11,12
 -11.8661664799 717.822803484 -11.8661664799 717.822803484 45.1815279408 772.083793791 c 0,13,14
 144.420627037 866.475194683 144.420627037 866.475194683 300 866.475194683 c 0,15,16
 365.546219681 866.475194683 365.546219681 866.475194683 421.626779012 849.45463582 c 0,17,18
 501.881415232 825.09719759 501.881415232 825.09719759 559.54821378 767.438910771 c 0,19,20
 613.093210685 713.893913866 613.093210685 713.893913866 636.742310128 641.696866381 c 0,21,22
 654.475194683 587.561109058 654.475194683 587.561109058 654.475194683 525 c 2,23,-1
 654.475194683 206 l 2,24,25
 654.475194683 113.092979246 654.475194683 113.092979246 613.977068851 37.655293873 c 0,26,27
 591.170517175 -4.82749846487 591.170517175 -4.82749846487 558.00025782 -37.9977578201 c 1,28,29
 549.62210738 -40.6478440175 549.62210738 -40.6478440175 552.33635158 -43.5213001128 c 0,30,31
 586 -80 586 -80 586.475194683 -130 c 2,32,-1
 586.475194683 -216 l 2,33,34
 586.475194683 -268.422820957 586.475194683 -268.422820957 549.44900782 -305.44900782 c 128,-1,35
 512.422820957 -342.475194683 512.422820957 -342.475194683 460 -342.475194683 c 2,36,-1
 364 -342.475194683 l 2,37,38
 247.478169142 -342.475194683 247.478169142 -342.475194683 174.945365281 -269.942390822 c 0,39,40
 146.73490426 -241.731929802 146.73490426 -241.731929802 130.563340739 -206.623231026 c 0,41,42
 110.524805317 -163.119280211 110.524805317 -163.119280211 110.524805317 -113 c 0,0,1
EndSplineSet
EndChar

StartChar: Oslash
Encoding: 216 216 118
Width: 600
GlyphClass: 2
Flags: W
AnchorPoint: "Anchor-2" 300 0 basechar 0
AnchorPoint: "Anchor-1" 320 730 basechar 0
AnchorPoint: "Anchor-0" 300 730 basechar 0
LayerCount: 2
Fore
SplineSet
217.013635474 -128.880904907 m 1,0,1
 179.878131025 -166.475194683 179.878131025 -166.475194683 127 -166.475194683 c 2,2,-1
 23 -166.475194683 l 2,3,4
 -29.4228209568 -166.475194683 -29.4228209568 -166.475194683 -66.4490078201 -129.44900782 c 128,-1,5
 -103.579785168 -92.3182304725 -103.579785168 -92.3182304725 -103.579785168 -38.7112022825 c 0,6,7
 -103.579785168 -5.78629062342 -103.579785168 -5.78629062342 -86.8684791115 22.7482509441 c 2,8,-1
 -41.0120642652 102.996976925 l 1,9,10
 -54.4751946834 151.155012139 -54.4751946834 151.155012139 -54.4751946834 206 c 2,11,-1
 -54.4751946834 524 l 2,12,13
 -54.4751946834 586.877985103 -54.4751946834 586.877985103 -36.8120725063 641.159775208 c 0,14,15
 -11.8661664799 717.822803484 -11.8661664799 717.822803484 45.1815279408 772.083793791 c 0,16,17
 144.420627037 866.475194683 144.420627037 866.475194683 300 866.475194683 c 0,18,19
 354.216179008 866.475194683 354.216179008 866.475194683 401.862924227 854.847876552 c 1,20,21
 432.934808099 876.475194667 432.934808099 876.475194667 473 876.475194683 c 2,22,-1
 577 876.475194683 l 2,23,24
 629.422820957 876.475194683 629.422820957 876.475194683 666.44900782 839.44900782 c 128,-1,25
 703.580793471 802.317222169 703.580793471 802.317222169 703.580793471 748.710539219 c 0,26,27
 703.580793471 715.903946585 703.580793471 715.903946585 686.977415994 687.442777061 c 2,28,-1
 644.761257593 613.262955872 l 1,29,30
 654.475194683 571.317926435 654.475194683 571.317926435 654.475194683 525 c 2,31,-1
 654.475194683 206 l 2,32,33
 654.475194683 143.122014897 654.475194683 143.122014897 636.812072506 88.8402247916 c 0,34,35
 611.86616648 12.1771965155 611.86616648 12.1771965155 554.818472059 -42.0837937907 c 0,36,37
 455.579372963 -136.475194683 455.579372963 -136.475194683 300 -136.475194683 c 0,38,39
 256.422273175 -136.475194683 256.422273175 -136.475194683 217.013635474 -128.880904907 c 1,0,1
EndSplineSet
EndChar

StartChar: OE
Encoding: 338 338 121
Width: 600
GlyphClass: 1
Flags: W
LayerCount: 2
Fore
SplineSet
679.475194683 321 m 2,0,1
 679.475194683 261.265822838 679.475194683 261.265822838 632.554958965 222.544118221 c 1,2,3
 651.440962325 213.457053315 651.440962325 213.457053315 667.44900782 197.44900782 c 0,4,5
 704 160 704 160 704.475194683 108 c 2,6,-1
 704.475194683 4.59354776439e-14 l 2,7,8
 704.475194683 -52.4228209568 704.475194683 -52.4228209568 667.44900782 -89.4490078201 c 0,9,10
 630 -126 630 -126 578 -126.475194683 c 2,11,-1
 298 -126.475194683 l 2,12,13
 278.396636516 -126.475194683 278.396636516 -126.475194683 260.946283788 -121.297583911 c 1,14,15
 225.072948184 -132.475194683 225.072948184 -132.475194683 180.464148398 -132.475194683 c 128,-1,16
 135.855348612 -132.475194683 135.855348612 -132.475194683 94.1986230951 -118.511296363 c 0,17,18
 20.936281909 -93.9527678111 20.936281909 -93.9527678111 -27.3214139293 -30.4236492392 c 0,19,20
 -92 55 -92 55 -92.4751946834 189 c 2,21,-1
 -92.4751946834 545 l 2,22,23
 -92.4751946834 678.651583436 -92.4751946834 678.651583436 -27.3214139293 764.423649239 c 0,24,25
 20.936281909 827.952767811 20.936281909 827.952767811 94.1986230951 852.511296363 c 0,26,27
 135.855348612 866.475194683 135.855348612 866.475194683 182.33362911 866.475194683 c 128,-1,28
 228.811909608 866.475194683 228.811909608 866.475194683 267.307900818 852.996085232 c 1,29,30
 282 856 282 856 298 856.475194683 c 2,31,-1
 578 856.475194683 l 2,32,33
 630.422820957 856.475194683 630.422820957 856.475194683 667.44900782 819.44900782 c 0,34,35
 704 782 704 782 704.475194683 730 c 2,36,-1
 704.475194683 623 l 2,37,38
 704.475194683 570.577179043 704.475194683 570.577179043 667.44900782 533.55099218 c 0,39,40
 656.970827041 523.0728114 656.970827041 523.0728114 645.25959939 515.559890664 c 1,41,42
 679 479 679 479 679.475194683 429 c 2,43,-1
 679.475194683 321 l 2,0,1
279.591092964 547.989474197 m 129,-1,44
 279.576359357 547.985968375 279.576359357 547.985968375 279.591092964 547.989474197 c 129,-1,44
EndSplineSet
EndChar

StartChar: P
Encoding: 80 80 122
Width: 600
GlyphClass: 2
Flags: W
AnchorPoint: "Anchor-2" 300 0 basechar 0
AnchorPoint: "Anchor-0" 300 730 basechar 0
LayerCount: 2
Fore
SplineSet
-49.4751946834 -4.59354776439e-14 m 2,0,-1
 -49.4751946834 730 l 2,1,2
 -49.4751946834 782.422820957 -49.4751946834 782.422820957 -12.4490078201 819.44900782 c 0,3,4
 25 856 25 856 77 856.475194683 c 2,5,-1
 320 856.475194683 l 2,6,7
 423.696835861 856.475194683 423.696835861 856.475194683 505.335771148 814.532255454 c 0,8,9
 592.189013842 769.910405996 592.189013842 769.910405996 640.332104263 688.869537121 c 128,-1,10
 688.475194683 607.828668247 688.475194683 607.828668247 688.475194683 505 c 128,-1,11
 688.475194683 402.171331753 688.475194683 402.171331753 640.801306478 321.920286608 c 0,12,13
 592.189013842 240.089594004 592.189013842 240.089594004 505.335771148 195.467744546 c 0,14,15
 427.047659179 155.246329223 427.047659179 155.246329223 328.475194683 153.595464279 c 1,16,-1
 328.475194683 4.59354776439e-14 l 2,17,18
 328.475194683 -52.4228209568 328.475194683 -52.4228209568 291.44900782 -89.4490078201 c 0,19,20
 254 -126 254 -126 202 -126.475194683 c 2,21,-1
 77 -126.475194683 l 2,22,23
 24.5771790432 -126.475194683 24.5771790432 -126.475194683 -12.4490078201 -89.4490078201 c 128,-1,24
 -49.4751946834 -52.4228209568 -49.4751946834 -52.4228209568 -49.4751946834 -4.59354776439e-14 c 2,0,-1
EndSplineSet
EndChar

StartChar: Thorn
Encoding: 222 222 123
Width: 600
GlyphClass: 1
Flags: W
LayerCount: 2
Fore
SplineSet
-48.4751946834 -4.59354776439e-14 m 2,0,-1
 -48.4751946834 730 l 2,1,2
 -48.4751946834 782.422820957 -48.4751946834 782.422820957 -11.4490078201 819.44900782 c 0,3,4
 26 856 26 856 78 856.475194683 c 2,5,-1
 203 856.475194683 l 2,6,7
 255.422820957 856.475194683 255.422820957 856.475194683 292.44900782 819.44900782 c 128,-1,8
 329.475194683 782.422820957 329.475194683 782.422820957 329.475194683 730 c 2,9,-1
 329.475194683 715.475194683 l 1,10,-1
 337 715.475194683 l 2,11,12
 498.122328346 715.475194683 498.122328346 715.475194683 596.194621642 617.402901387 c 0,13,14
 648.468543674 565.128979355 648.468543674 565.128979355 671.430194165 494.014280831 c 0,15,16
 688.475194683 441.224082945 688.475194683 441.224082945 688.475194683 380 c 128,-1,17
 688.475194683 318.775917055 688.475194683 318.775917055 671.430194165 265.985719169 c 0,18,19
 646.530044029 188.867278974 646.530044029 188.867278974 589.281505511 135.876896214 c 0,20,21
 490.588621595 44.5248053166 490.588621595 44.5248053166 337 44.5248053166 c 2,22,-1
 329.475194683 44.5248053166 l 1,23,-1
 329.475194683 4.59354776439e-14 l 2,24,25
 329.475194683 -52.4228209568 329.475194683 -52.4228209568 292.44900782 -89.4490078201 c 0,26,27
 255 -126 255 -126 203 -126.475194683 c 2,28,-1
 78 -126.475194683 l 2,29,30
 25.5771790432 -126.475194683 25.5771790432 -126.475194683 -11.4490078201 -89.4490078201 c 128,-1,31
 -48.4751946834 -52.4228209568 -48.4751946834 -52.4228209568 -48.4751946834 -4.59354776439e-14 c 2,0,-1
EndSplineSet
EndChar

StartChar: Q
Encoding: 81 81 124
Width: 600
GlyphClass: 2
Flags: W
AnchorPoint: "Anchor-2" 300 0 basechar 0
AnchorPoint: "Anchor-0" 300 730 basechar 0
LayerCount: 2
Fore
SplineSet
658.475194683 208 m 2,0,1
 658.475194683 81.5381146631 658.475194683 81.5381146631 587.349573842 -8.83223679788 c 1,2,-1
 651.843096099 -113.834087085 l 2,3,4
 670.561586257 -143.658653692 670.561586257 -143.658653692 670.561586257 -178.738969429 c 0,5,6
 670.561586257 -232.336429383 670.561586257 -232.336429383 633.44900782 -269.44900782 c 0,7,8
 596 -306 596 -306 544 -306.475194683 c 2,9,-1
 409 -306.475194683 l 2,10,11
 356.577179043 -306.475194683 356.577179043 -306.475194683 319.55099218 -269.44900782 c 0,12,13
 308.665975811 -258.563991451 308.665975811 -258.563991451 300.760010723 -245.515311208 c 2,14,-1
 231.603569752 -131.373612519 l 1,15,16
 171.096018915 -121.978925503 171.096018915 -121.978925503 122.315861056 -96.6507666142 c 0,17,18
 35.5601120373 -51.6045123161 35.5601120373 -51.6045123161 -11.457541323 27.839108879 c 128,-1,19
 -58.4751946834 107.282730074 -58.4751946834 107.282730074 -58.4751946834 208 c 2,20,-1
 -58.4751946834 522 l 2,21,22
 -58.4751946834 622.203672024 -58.4751946834 622.203672024 -12.8885662785 700.580682264 c 0,23,24
 34.2325838497 781.59599301 34.2325838497 781.59599301 119.617959846 825.508472094 c 0,25,26
 199.275475992 866.475194683 199.275475992 866.475194683 300.130358216 866.475194683 c 128,-1,27
 400.985240441 866.475194683 400.985240441 866.475194683 480.317017624 825.283694992 c 0,28,29
 564.439887963 781.604512316 564.439887963 781.604512316 611.457541323 702.160891121 c 128,-1,30
 658.475194683 622.717269926 658.475194683 622.717269926 658.475194683 522 c 2,31,-1
 658.475194683 208 l 2,0,1
EndSplineSet
EndChar

StartChar: R
Encoding: 82 82 125
Width: 600
GlyphClass: 2
Flags: W
AnchorPoint: "Anchor-2" 300 0 basechar 0
AnchorPoint: "Anchor-0" 300 730 basechar 0
LayerCount: 2
Fore
SplineSet
-50.4751946834 -4.59354776439e-14 m 2,0,-1
 -50.4751946834 730 l 2,1,2
 -50.4751946834 782.422820957 -50.4751946834 782.422820957 -13.4490078201 819.44900782 c 0,3,4
 24 856 24 856 76 856.475194683 c 2,5,-1
 307 856.475194683 l 2,6,7
 410.215347269 856.475194683 410.215347269 856.475194683 490.528895126 815.943123802 c 0,8,9
 575.83986132 772.888991331 575.83986132 772.888991331 624.635751688 694.002301902 c 128,-1,10
 673.475194683 615.045202393 673.475194683 615.045202393 673.475194683 513 c 0,11,12
 673.475194683 401.480239956 673.475194683 401.480239956 615.676324423 315.177817239 c 0,13,14
 596.672609965 286.80240798 596.672609965 286.80240798 572.882494125 263.30947986 c 1,15,-1
 671.449012436 53.9405995871 l 2,16,17
 683.623514851 28.9110150887 683.623514851 28.9110150887 683.623514851 1.23171985235 c 0,18,19
 683.623514851 -52.2745007897 683.623514851 -52.2745007897 646.44900782 -89.4490078201 c 0,20,21
 609 -126 609 -126 557 -126.475194683 c 2,22,-1
 417 -126.475194683 l 2,23,24
 364.577179043 -126.475194683 364.577179043 -126.475194683 327.55099218 -89.4490078201 c 0,25,26
 316.867965579 -78.7659812195 316.867965579 -78.7659812195 309.137629144 -66.1594429454 c 1,27,28
 301.418139434 -78.4798762067 301.418139434 -78.4798762067 290.44900782 -89.4490078201 c 0,29,30
 253 -126 253 -126 201 -126.475194683 c 2,31,-1
 76 -126.475194683 l 2,32,33
 23.5771790432 -126.475194683 23.5771790432 -126.475194683 -13.4490078201 -89.4490078201 c 128,-1,34
 -50.4751946834 -52.4228209568 -50.4751946834 -52.4228209568 -50.4751946834 -4.59354776439e-14 c 2,0,-1
EndSplineSet
EndChar

StartChar: S
Encoding: 83 83 129
Width: 600
GlyphClass: 2
Flags: W
AnchorPoint: "Anchor-2" 300 0 basechar 0
AnchorPoint: "Anchor-0" 300 730 basechar 0
LayerCount: 2
Fore
SplineSet
589.21738432 425.778632072 m 1,0,1
 669.475194683 332.752616408 669.475194683 332.752616408 669.475194683 200 c 0,2,3
 669.475194683 100.31650801 669.475194683 100.31650801 620.012561823 22.0006726487 c 128,-1,4
 570.589061477 -56.2532029003 570.589061477 -56.2532029003 483.929287097 -97.9782794535 c 0,5,6
 403.974155466 -136.475194683 403.974155466 -136.475194683 301.367871277 -136.475194683 c 128,-1,7
 198.761587089 -136.475194683 198.761587089 -136.475194683 118.828461931 -99.0752920865 c 0,8,9
 31.8867804611 -58.39615672 31.8867804611 -58.39615672 -18.7942071111 18.8715784311 c 128,-1,10
 -69.4751946834 96.1393135822 -69.4751946834 96.1393135822 -69.4751946834 197 c 0,11,12
 -69.4751946834 249.422820957 -69.4751946834 249.422820957 -32.4490078201 286.44900782 c 0,13,14
 -8.61593314077 310.282082499 -8.61593314077 310.282082499 21.5963670364 318.774246134 c 1,15,16
 -54.4751946834 410.279631247 -54.4751946834 410.279631247 -54.4751946834 536 c 0,17,18
 -54.4751946834 595.231292487 -54.4751946834 595.231292487 -37.2986652034 646.864771227 c 0,19,20
 -11.6796367502 723.876810387 -11.6796367502 723.876810387 49.6991166532 778.820694482 c 0,21,22
 147.61945922 866.475194683 147.61945922 866.475194683 301 866.475194683 c 0,23,24
 468.062820957 866.475194683 468.062820957 866.475194683 568.54900782 765.98900782 c 0,25,26
 619.07136182 715.46665382 619.07136182 715.46665382 641.524311746 648.107804042 c 0,27,28
 658.475194683 597.25515523 658.475194683 597.25515523 658.475194683 539 c 0,29,30
 658.475194683 486.577179043 658.475194683 486.577179043 621.44900782 449.55099218 c 0,31,32
 606.575443061 434.677427421 606.575443061 434.677427421 589.21738432 425.778632072 c 1,0,1
EndSplineSet
EndChar

StartChar: Scedilla
Encoding: 350 350 132
Width: 600
GlyphClass: 2
Flags: W
AnchorPoint: "Anchor-2" 300 0 basechar 0
AnchorPoint: "Anchor-0" 300 730 basechar 0
LayerCount: 2
Fore
SplineSet
589.21738432 425.778632072 m 1,0,1
 669.475194683 332.752616408 669.475194683 332.752616408 669.475194683 200 c 0,2,3
 669.475194683 100.31650801 669.475194683 100.31650801 620.012561823 22.0006726487 c 0,4,5
 589.641642187 -26.0866167762 589.641642187 -26.0866167762 544.748826555 -60.9140609482 c 1,6,7
 556.475194683 -92.624942749 556.475194683 -92.624942749 556.475194683 -128 c 0,8,9
 556.475194683 -173.408806855 556.475194683 -173.408806855 536.154314275 -213.824780112 c 0,10,11
 513.700716795 -258.482490655 513.700716795 -258.482490655 468.90019357 -291.460653585 c 0,12,13
 399.597420756 -342.475194683 399.597420756 -342.475194683 299 -342.475194683 c 2,14,-1
 199 -342.475194683 l 2,15,16
 146.577179043 -342.475194683 146.577179043 -342.475194683 109.55099218 -305.44900782 c 128,-1,17
 72.5248053166 -268.422820957 72.5248053166 -268.422820957 72.5248053166 -216 c 2,18,-1
 72.5248053166 -152 l 2,19,20
 72.5248053166 -115.312313201 72.5248053166 -115.312313201 90.6594425838 -86.1655696618 c 0,21,22
 90.5627347439 -85.486273905 90.5627347439 -85.486273905 90.4731472884 -84.808254152 c 0,23,24
 47.4245652351 -59.9196850232 47.4245652351 -59.9196850232 13.5940790177 -23.3554221417 c 0,25,26
 -32.9423010341 26.9414734697 -32.9423010341 26.9414734697 -53.6722005256 91.7485834963 c 0,27,28
 -69.4751946834 141.152893515 -69.4751946834 141.152893515 -69.4751946834 195.287857236 c 128,-1,29
 -69.4751946834 249.422820957 -69.4751946834 249.422820957 -32.4490078201 286.44900782 c 0,30,31
 -8.61593314074 310.282082499 -8.61593314074 310.282082499 21.5963670364 318.774246134 c 1,32,33
 -54.4751946834 410.279631247 -54.4751946834 410.279631247 -54.4751946834 536 c 0,34,35
 -54.4751946834 595.231292487 -54.4751946834 595.231292487 -37.2986652034 646.864771227 c 0,36,37
 -11.6796367502 723.876810387 -11.6796367502 723.876810387 49.6991166532 778.820694482 c 0,38,39
 147.61945922 866.475194683 147.61945922 866.475194683 301 866.475194683 c 0,40,41
 468.062820957 866.475194683 468.062820957 866.475194683 568.54900782 765.98900782 c 0,42,43
 619.07136182 715.46665382 619.07136182 715.46665382 641.524311746 648.107804042 c 0,44,45
 658.475194683 597.25515523 658.475194683 597.25515523 658.475194683 539 c 0,46,47
 658.475194683 486.577179043 658.475194683 486.577179043 621.44900782 449.55099218 c 0,48,49
 606.575443061 434.677427421 606.575443061 434.677427421 589.21738432 425.778632072 c 1,0,1
EndSplineSet
Substitution2: "'locl' Localized Forms in Latin lookup 390 subtable" uni0218
Substitution2: "'locl' Localized Forms in Latin lookup 389 subtable" uni0218
Substitution2: "'aalt' Access All Alternates in Latin lookup 0 subtable" uni0218
EndChar

StartChar: uni1E9E
Encoding: 7838 7838 135
Width: 600
GlyphClass: 1
Flags: W
LayerCount: 2
Fore
SplineSet
-53.4751946834 -4.59354776439e-14 m 2,0,-1
 -53.4751946834 516 l 2,1,2
 -53.4751946834 615.289520051 -53.4751946834 615.289520051 -8.30837227826 692.71835846 c 0,3,4
 38.1650886333 772.387148594 38.1650886333 772.387148594 121.649922707 815.766523162 c 0,5,6
 199.994913182 856.475194683 199.994913182 856.475194683 298 856.475194683 c 2,7,-1
 539 856.475194683 l 2,8,9
 591.422820957 856.475194683 591.422820957 856.475194683 628.44900782 819.44900782 c 0,10,11
 665 782 665 782 665.475194683 730 c 2,12,-1
 665.475194683 611 l 2,13,14
 665.475194683 564.827052272 665.475194683 564.827052272 635.885047862 529.653858881 c 2,15,-1
 579.207105064 462.281964612 l 1,16,17
 640.07082251 403.374126439 640.07082251 403.374126439 663.619836945 319.928705723 c 0,18,19
 677.475194683 270.832546781 677.475194683 270.832546781 677.475194683 215 c 0,20,21
 677.475194683 114.977339467 677.475194683 114.977339467 630.617420751 36.6117520287 c 0,22,23
 582.763382192 -43.4200021129 582.763382192 -43.4200021129 497.536840606 -86.4391135801 c 0,24,25
 418.220076156 -126.475194683 418.220076156 -126.475194683 317 -126.475194683 c 2,26,-1
 259 -126.475194683 l 2,27,28
 240.824615498 -126.475194683 240.824615498 -126.475194683 224.500000043 -122.024421841 c 1,29,30
 208 -126 208 -126 190 -126.475194683 c 2,31,-1
 73 -126.475194683 l 2,32,33
 20.5771790432 -126.475194683 20.5771790432 -126.475194683 -16.4490078201 -89.4490078201 c 128,-1,34
 -53.4751946834 -52.4228209568 -53.4751946834 -52.4228209568 -53.4751946834 -4.59354776439e-14 c 2,0,-1
EndSplineSet
EndChar

StartChar: uni018F
Encoding: 399 399 136
Width: 600
GlyphClass: 1
Flags: W
LayerCount: 2
Fore
SplineSet
481.156670589 -94.5778083807 m 0,0,1
 402.793040652 -136.475194683 402.793040652 -136.475194683 301.271436851 -136.475194683 c 128,-1,2
 199.749833049 -136.475194683 199.749833049 -136.475194683 120.74228015 -95.0537591826 c 0,3,4
 75.7051612496 -71.4420657787 75.7051612496 -71.4420657787 43.5840960316 -39.3210005607 c 0,5,6
 -54.4751946834 58.7382901543 -54.4751946834 58.7382901543 -54.4751946834 206 c 2,7,-1
 -54.4751946834 409 l 2,8,9
 -54.4751946834 441.717217783 -54.4751946834 441.717217783 -40.053345695 468.437384542 c 1,10,11
 -52 494 -52 494 -52.4751946834 524 c 0,12,13
 -52.4751946834 587.046481909 -52.4751946834 587.046481909 -34.8181423908 641.428755671 c 0,14,15
 -10.0695558947 717.652373507 -10.0695558947 717.652373507 46.5433646465 771.942420401 c 0,16,17
 145.120852512 866.475194683 145.120852512 866.475194683 301 866.475194683 c 0,18,19
 366.593042329 866.475194683 366.593042329 866.475194683 422.615294989 849.428111299 c 0,20,21
 502.261524389 825.19245762 502.261524389 825.19245762 557.709392681 769.747394321 c 0,22,23
 654.475194683 672.9864875 654.475194683 672.9864875 654.475194683 524 c 2,24,-1
 654.475194683 206 l 2,25,26
 654.475194683 107.014490965 654.475194683 107.014490965 609.591682084 29.269835212 c 0,27,28
 588.247070197 -7.70208180732 588.247070197 -7.70208180732 556.421891419 -39.527260585 c 128,-1,29
 524.596712641 -71.3524393626 524.596712641 -71.3524393626 481.156670589 -94.5778083807 c 0,0,1
EndSplineSet
EndChar

StartChar: T
Encoding: 84 84 137
Width: 600
GlyphClass: 2
Flags: W
AnchorPoint: "Anchor-4" 300 365 basechar 0
AnchorPoint: "Anchor-2" 300 0 basechar 0
AnchorPoint: "Anchor-0" 300 730 basechar 0
LayerCount: 2
Fore
SplineSet
489.475194683 4.59354776439e-14 m 2,0,1
 489.475194683 -52.4228209568 489.475194683 -52.4228209568 452.44900782 -89.4490078201 c 0,2,3
 415 -126 415 -126 363 -126.475194683 c 2,4,-1
 237 -126.475194683 l 2,5,6
 184.577179043 -126.475194683 184.577179043 -126.475194683 147.55099218 -89.4490078201 c 128,-1,7
 110.524805317 -52.4228209568 110.524805317 -52.4228209568 110.524805317 -4.59354776439e-14 c 2,8,-1
 110.524805317 490.524805317 l 1,9,-1
 46 490.524805317 l 2,10,11
 -6.42282095683 490.524805317 -6.42282095683 490.524805317 -43.4490078201 527.55099218 c 0,12,13
 -80 565 -80 565 -80.4751946834 617 c 2,14,-1
 -80.4751946834 730 l 2,15,16
 -80.4751946834 782.422820957 -80.4751946834 782.422820957 -43.4490078201 819.44900782 c 0,17,18
 -6 856 -6 856 46 856.475194683 c 2,19,-1
 554 856.475194683 l 2,20,21
 606.422820957 856.475194683 606.422820957 856.475194683 643.44900782 819.44900782 c 0,22,23
 680 782 680 782 680.475194683 730 c 2,24,-1
 680.475194683 617 l 2,25,26
 680.475194683 564.577179043 680.475194683 564.577179043 643.44900782 527.55099218 c 0,27,28
 606 491 606 491 554 490.524805317 c 2,29,-1
 489.475194683 490.524805317 l 1,30,-1
 489.475194683 4.59354776439e-14 l 2,0,1
EndSplineSet
EndChar

StartChar: Tbar
Encoding: 358 358 138
Width: 600
GlyphClass: 2
Flags: W
AnchorPoint: "Anchor-4" 300 365 basechar 0
AnchorPoint: "Anchor-2" 300 0 basechar 0
AnchorPoint: "Anchor-0" 300 730 basechar 0
LayerCount: 2
Fore
SplineSet
489.475194683 4.59354776439e-14 m 2,0,1
 489.475194683 -52.4228209568 489.475194683 -52.4228209568 452.44900782 -89.4490078201 c 0,2,3
 415 -126 415 -126 363 -126.475194683 c 2,4,-1
 237 -126.475194683 l 2,5,6
 184.577179043 -126.475194683 184.577179043 -126.475194683 147.55099218 -89.4490078201 c 128,-1,7
 110.524805317 -52.4228209568 110.524805317 -52.4228209568 110.524805317 -4.59354776439e-14 c 2,8,-1
 110.524805317 150.524805317 l 1,9,-1
 104 150.524805317 l 2,10,11
 51.5771790432 150.524805317 51.5771790432 150.524805317 14.5509921799 187.55099218 c 0,12,13
 -22 225 -22 225 -22.4751946834 277 c 2,14,-1
 -22.4751946834 382 l 2,15,16
 -22.4751946834 434.422820957 -22.4751946834 434.422820957 14.5509921799 471.44900782 c 0,17,18
 25.9265887262 482.824604366 25.9265887262 482.824604366 38.7554882753 490.705263753 c 1,19,20
 -9.00771711575 493.109701471 -9.00771711575 493.109701471 -43.4490078201 527.55099218 c 0,21,22
 -80 565 -80 565 -80.4751946834 617 c 2,23,-1
 -80.4751946834 730 l 2,24,25
 -80.4751946834 782.422820957 -80.4751946834 782.422820957 -43.4490078201 819.44900782 c 0,26,27
 -6 856 -6 856 46 856.475194683 c 2,28,-1
 554 856.475194683 l 2,29,30
 606.422820957 856.475194683 606.422820957 856.475194683 643.44900782 819.44900782 c 0,31,32
 680 782 680 782 680.475194683 730 c 2,33,-1
 680.475194683 617 l 2,34,35
 680.475194683 564.577179043 680.475194683 564.577179043 644.741455895 528.843440254 c 128,-1,36
 609.007717106 493.109701466 609.007717106 493.109701466 561.244511685 490.705263762 c 1,37,38
 574.073411259 482.824604381 574.073411259 482.824604381 585.44900782 471.44900782 c 0,39,40
 622 434 622 434 622.475194683 382 c 2,41,-1
 622.475194683 277 l 2,42,43
 622.475194683 224.577179043 622.475194683 224.577179043 585.44900782 187.55099218 c 128,-1,44
 548.422820957 150.524805317 548.422820957 150.524805317 496 150.524805317 c 2,45,-1
 489.475194683 150.524805317 l 1,46,-1
 489.475194683 4.59354776439e-14 l 2,0,1
EndSplineSet
EndChar

StartChar: uni0162
Encoding: 354 354 140
Width: 600
GlyphClass: 2
Flags: W
AnchorPoint: "Anchor-4" 300 365 basechar 0
AnchorPoint: "Anchor-2" 300 0 basechar 0
AnchorPoint: "Anchor-0" 300 730 basechar 0
LayerCount: 2
Fore
SplineSet
110.524805317 490.524805317 m 1,0,-1
 46 490.524805317 l 2,1,2
 -6.42282095683 490.524805317 -6.42282095683 490.524805317 -43.4490078201 527.55099218 c 0,3,4
 -80 565 -80 565 -80.4751946834 617 c 2,5,-1
 -80.4751946834 730 l 2,6,7
 -80.4751946834 782.422820957 -80.4751946834 782.422820957 -43.4490078201 819.44900782 c 0,8,9
 -6 856 -6 856 46 856.475194683 c 2,10,-1
 554 856.475194683 l 2,11,12
 606.422820957 856.475194683 606.422820957 856.475194683 643.44900782 819.44900782 c 0,13,14
 680 782 680 782 680.475194683 730 c 2,15,-1
 680.475194683 617 l 2,16,17
 680.475194683 564.577179043 680.475194683 564.577179043 643.44900782 527.55099218 c 0,18,19
 606 491 606 491 554 490.524805317 c 2,20,-1
 489.475194683 490.524805317 l 1,21,-1
 489.475194683 52.7077071329 l 1,22,23
 563.281699885 14.9985839642 563.281699885 14.9985839642 592.277324045 -47.9826089775 c 0,24,25
 609.475194683 -85.3379838067 609.475194683 -85.3379838067 609.475194683 -129.305848913 c 128,-1,26
 609.475194683 -173.273714018 609.475194683 -173.273714018 589.183380125 -213.579373073 c 0,27,28
 566.432617045 -258.769244943 566.432617045 -258.769244943 520.731319996 -291.949638692 c 0,29,30
 451.13951646 -342.475194683 451.13951646 -342.475194683 351 -342.475194683 c 2,31,-1
 252 -342.475194683 l 2,32,33
 199.577179043 -342.475194683 199.577179043 -342.475194683 162.55099218 -305.44900782 c 128,-1,34
 125.524805317 -268.422820957 125.524805317 -268.422820957 125.524805317 -216 c 2,35,-1
 125.524805317 -152 l 2,36,37
 125.524805317 -116.133805469 125.524805317 -116.133805469 142.856411467 -87.4746290032 c 0,38,39
 142.591980954 -85.7310591974 142.591980954 -85.7310591974 142.374002644 -83.9961596025 c 0,40,41
 111 -49 111 -49 110.524805317 -4.59354776439e-14 c 2,42,-1
 110.524805317 490.524805317 l 1,0,-1
EndSplineSet
Substitution2: "'locl' Localized Forms in Latin lookup 390 subtable" uni021A
Substitution2: "'locl' Localized Forms in Latin lookup 389 subtable" uni021A
Substitution2: "'aalt' Access All Alternates in Latin lookup 0 subtable" uni021A
EndChar

StartChar: U
Encoding: 85 85 142
Width: 600
GlyphClass: 2
Flags: W
AnchorPoint: "Anchor-3" 347 0 basechar 0
AnchorPoint: "Anchor-2" 300 0 basechar 0
AnchorPoint: "Anchor-1" 385 730 basechar 0
AnchorPoint: "Anchor-0" 300 730 basechar 0
LayerCount: 2
Fore
SplineSet
40.7242884378 -38.6611390294 m 0,0,1
 -13.307776306 15.3709257143 -13.307776306 15.3709257143 -36.9655034128 89.3746423253 c 0,2,3
 -54.4751946834 144.146693118 -54.4751946834 144.146693118 -54.4751946834 208 c 2,4,-1
 -54.4751946834 730 l 2,5,6
 -54.4751946834 782.422820957 -54.4751946834 782.422820957 -17.4490078201 819.44900782 c 0,7,8
 20 856 20 856 72 856.475194683 c 2,9,-1
 198 856.475194683 l 2,10,11
 250.422820957 856.475194683 250.422820957 856.475194683 287.44900782 819.44900782 c 0,12,13
 294.371654495 812.526361145 294.371654495 812.526361145 300 805.065503997 c 1,14,15
 305.628345505 812.526361145 305.628345505 812.526361145 312.55099218 819.44900782 c 0,16,17
 350 856 350 856 402 856.475194683 c 2,18,-1
 528 856.475194683 l 2,19,20
 580.422820957 856.475194683 580.422820957 856.475194683 617.44900782 819.44900782 c 0,21,22
 654 782 654 782 654.475194683 730 c 2,23,-1
 654.475194683 208 l 2,24,25
 654.475194683 143.975921193 654.475194683 143.975921193 636.974999365 89.1055171206 c 0,26,27
 612.658928463 12.8645031492 612.658928463 12.8645031492 556.699484223 -41.6950833337 c 0,28,29
 459.487560561 -136.475194683 459.487560561 -136.475194683 299.015775192 -136.475194683 c 128,-1,30
 138.543989823 -136.475194683 138.543989823 -136.475194683 40.7242884378 -38.6611390294 c 0,0,1
EndSplineSet
EndChar

StartChar: Uhorn
Encoding: 431 431 150
Width: 600
GlyphClass: 2
Flags: W
AnchorPoint: "Anchor-3" 347 0 basechar 0
AnchorPoint: "Anchor-2" 300 0 basechar 0
AnchorPoint: "Anchor-1" 385 730 basechar 0
AnchorPoint: "Anchor-0" 300 730 basechar 0
LayerCount: 2
Fore
SplineSet
40.7242884378 -38.6611390294 m 0,0,1
 -13.307776306 15.3709257143 -13.307776306 15.3709257143 -36.9655034128 89.3746423253 c 0,2,3
 -54.4751946834 144.146693118 -54.4751946834 144.146693118 -54.4751946834 208 c 2,4,-1
 -54.4751946834 730 l 2,5,6
 -54.4751946834 782.422820957 -54.4751946834 782.422820957 -17.4490078201 819.44900782 c 0,7,8
 20 856 20 856 72 856.475194683 c 2,9,-1
 198 856.475194683 l 2,10,11
 250.422820957 856.475194683 250.422820957 856.475194683 287.44900782 819.44900782 c 0,12,13
 294.371654495 812.526361145 294.371654495 812.526361145 300 805.065503997 c 1,14,15
 305.628345505 812.526361145 305.628345505 812.526361145 312.55099218 819.44900782 c 0,16,17
 349.040284484 855.938300124 349.040284484 855.938300124 400.482933465 856.467409497 c 1,18,19
 405.480964469 898.378980109 405.480964469 898.378980109 436.55099218 929.44900782 c 0,20,21
 474 966 474 966 526 966.475194683 c 2,22,-1
 628 966.475194683 l 2,23,24
 680.422820957 966.475194683 680.422820957 966.475194683 717.44900782 929.44900782 c 0,25,26
 754 892 754 892 754.475194683 840 c 2,27,-1
 754.475194683 763 l 2,28,29
 754.475194683 659.20508602 754.475194683 659.20508602 685.26133881 589.991230146 c 0,30,31
 670.795356262 575.525247598 670.795356262 575.525247598 654.475194683 563.977440242 c 1,32,-1
 654.475194683 208 l 2,33,34
 654.475194683 143.975921193 654.475194683 143.975921193 636.974999365 89.1055171206 c 0,35,36
 612.658928463 12.8645031492 612.658928463 12.8645031492 556.699484223 -41.6950833337 c 0,37,38
 459.487560561 -136.475194683 459.487560561 -136.475194683 299.015775192 -136.475194683 c 128,-1,39
 138.543989823 -136.475194683 138.543989823 -136.475194683 40.7242884378 -38.6611390294 c 0,0,1
EndSplineSet
EndChar

StartChar: Uogonek
Encoding: 370 370 158
Width: 600
GlyphClass: 2
Flags: W
AnchorPoint: "Anchor-1" 385 730 basechar 0
AnchorPoint: "Anchor-0" 300 730 basechar 0
LayerCount: 2
Fore
SplineSet
110.524805317 -113 m 0,0,1
 110.524805317 -102.130933985 110.524805317 -102.130933985 111.747339555 -91.3588113146 c 1,2,3
 72.5684442702 -69.5501187675 72.5684442702 -69.5501187675 40.4865458131 -37.4727967474 c 0,4,5
 -13.1698309532 16.1835800189 -13.1698309532 16.1835800189 -36.8120725063 88.8402247916 c 0,6,7
 -54.4751946834 143.122014897 -54.4751946834 143.122014897 -54.4751946834 206 c 2,8,-1
 -54.4751946834 730 l 2,9,10
 -54.4751946834 782.422820957 -54.4751946834 782.422820957 -17.4490078201 819.44900782 c 0,11,12
 20 856 20 856 72 856.475194683 c 2,13,-1
 198 856.475194683 l 2,14,15
 250.422820957 856.475194683 250.422820957 856.475194683 287.44900782 819.44900782 c 0,16,17
 294.371654495 812.526361145 294.371654495 812.526361145 300 805.065503997 c 1,18,19
 305.628345505 812.526361145 305.628345505 812.526361145 312.55099218 819.44900782 c 0,20,21
 350 856 350 856 402 856.475194683 c 2,22,-1
 528 856.475194683 l 2,23,24
 580.422820957 856.475194683 580.422820957 856.475194683 617.44900782 819.44900782 c 0,25,26
 654 782 654 782 654.475194683 730 c 2,27,-1
 654.475194683 206 l 2,28,29
 654.475194683 113.092979246 654.475194683 113.092979246 613.977068851 37.655293873 c 0,30,31
 591.170517175 -4.82749846487 591.170517175 -4.82749846487 558.00025782 -37.9977578201 c 1,32,33
 549.62210738 -40.6478440175 549.62210738 -40.6478440175 552.33635158 -43.5213001128 c 0,34,35
 586 -80 586 -80 586.475194683 -130 c 2,36,-1
 586.475194683 -216 l 2,37,38
 586.475194683 -268.422820957 586.475194683 -268.422820957 549.44900782 -305.44900782 c 128,-1,39
 512.422820957 -342.475194683 512.422820957 -342.475194683 460 -342.475194683 c 2,40,-1
 364 -342.475194683 l 2,41,42
 247.478169142 -342.475194683 247.478169142 -342.475194683 174.945365281 -269.942390822 c 0,43,44
 146.73490426 -241.731929802 146.73490426 -241.731929802 130.563340739 -206.623231026 c 0,45,46
 110.524805317 -163.119280211 110.524805317 -163.119280211 110.524805317 -113 c 0,0,1
EndSplineSet
EndChar

StartChar: V
Encoding: 86 86 161
Width: 600
GlyphClass: 2
Flags: W
AnchorPoint: "Anchor-2" 300 0 basechar 0
AnchorPoint: "Anchor-0" 300 730 basechar 0
LayerCount: 2
Fore
SplineSet
-87.6245105473 698.929278799 m 2,0,1
 -91.5165880926 714.370673408 -91.5165880926 714.370673408 -91.5165880926 730.409490644 c 128,-1,2
 -91.5165880926 746.44830788 -91.5165880926 746.44830788 -87.0970820594 763.096475813 c 0,3,4
 -78.5301599398 795.3678557 -78.5301599398 795.3678557 -54.4490078201 819.44900782 c 0,5,6
 -17 856 -17 856 35 856.475194683 c 2,7,-1
 164 856.475194683 l 2,8,9
 216.422820957 856.475194683 216.422820957 856.475194683 253.44900782 819.44900782 c 0,10,11
 278.98699111 793.91102453 278.98699111 793.91102453 287.156137786 758.879368513 c 2,12,-1
 301.237588909 698.494046579 l 1,13,-1
 314.630631785 757.949143457 l 2,14,15
 322.649672341 793.547687981 322.649672341 793.547687981 348.55099218 819.44900782 c 0,16,17
 386 856 386 856 438 856.475194683 c 2,18,-1
 565 856.475194683 l 2,19,20
 617.422820957 856.475194683 617.422820957 856.475194683 654.44900782 819.44900782 c 0,21,22
 678.53015994 795.3678557 678.53015994 795.3678557 687.097082059 763.096475813 c 0,23,24
 691.516588093 746.44830788 691.516588093 746.44830788 691.516588093 730.409490644 c 128,-1,25
 691.516588093 714.370673408 691.516588093 714.370673408 687.624510547 698.929278799 c 2,26,-1
 503.624510547 -31.0707212006 l 2,27,28
 495.131264694 -64.7667509467 495.131264694 -64.7667509467 470.44900782 -89.4490078201 c 0,29,30
 433 -126 433 -126 381 -126.475194683 c 2,31,-1
 219 -126.475194683 l 2,32,33
 166.577179043 -126.475194683 166.577179043 -126.475194683 129.55099218 -89.4490078201 c 0,34,35
 104.868735306 -64.7667509467 104.868735306 -64.7667509467 96.3754894527 -31.0707212006 c 2,36,-1
 -87.6245105473 698.929278799 l 2,0,1
EndSplineSet
EndChar

StartChar: W
Encoding: 87 87 162
Width: 600
GlyphClass: 2
Flags: W
AnchorPoint: "Anchor-2" 300 0 basechar 0
AnchorPoint: "Anchor-0" 300 730 basechar 0
LayerCount: 2
Fore
SplineSet
-110.58764608 731.872770556 m 0,0,1
 -110.58764608 782.310369561 -110.58764608 782.310369561 -73.4490078201 819.44900782 c 0,2,3
 -36 856 -36 856 16 856.475194683 c 2,4,-1
 124 856.475194683 l 2,5,6
 158.604426981 856.475194683 158.604426981 856.475194683 186.5 840.34158529 c 1,7,8
 214 856 214 856 249 856.475194683 c 2,9,-1
 354 856.475194683 l 2,10,11
 387.985508666 856.475194683 387.985508666 856.475194683 415.5 840.9135404 c 1,12,13
 443 856 443 856 477 856.475194683 c 2,14,-1
 584 856.475194683 l 2,15,16
 636.422820957 856.475194683 636.422820957 856.475194683 673.44900782 819.44900782 c 128,-1,17
 710.600004499 782.298011141 710.600004499 782.298011141 710.600004499 731.956404906 c 0,18,19
 710.600004499 724.27918244 710.600004499 724.27918244 709.735982931 716.29518567 c 2,20,-1
 630.735982931 -13.7048143298 l 2,21,22
 625.947779779 -57.9502358612 625.947779779 -57.9502358612 594.44900782 -89.4490078201 c 0,23,24
 557 -126 557 -126 505 -126.475194683 c 2,25,-1
 367 -126.475194683 l 2,26,27
 328.624663108 -126.475194683 328.624663108 -126.475194683 298.5 -106.63378081 c 1,28,29
 268 -126 268 -126 230 -126.475194683 c 2,30,-1
 91 -126.475194683 l 2,31,32
 38.5771790432 -126.475194683 38.5771790432 -126.475194683 1.5509921799 -89.4490078201 c 0,33,34
 -30.2200742963 -57.6779413439 -30.2200742963 -57.6779413439 -34.8083227082 -13.0189901347 c 2,35,-1
 -109.808322708 716.981009865 l 2,36,37
 -110.58764608 724.566424015 -110.58764608 724.566424015 -110.58764608 731.872770556 c 0,0,1
EndSplineSet
EndChar

StartChar: X
Encoding: 88 88 167
Width: 600
GlyphClass: 2
Flags: W
AnchorPoint: "Anchor-2" 300 0 basechar 0
AnchorPoint: "Anchor-0" 300 730 basechar 0
LayerCount: 2
Fore
SplineSet
-98.5934752937 1.29012196492 m 0,0,1
 -98.5934752937 32.6085317341 -98.5934752937 32.6085317341 -83.3265432412 60.124247523 c 2,2,-1
 86.392566914 374.356659394 l 1,3,-1
 -71.6212905961 670.424729255 l 2,4,5
 -86.5962858648 697.724396703 -86.5962858648 697.724396703 -86.5962858648 728.711667964 c 0,6,7
 -86.5962858648 782.301729775 -86.5962858648 782.301729775 -49.4490078201 819.44900782 c 0,8,9
 -12 856 -12 856 40 856.475194683 c 2,10,-1
 180 856.475194683 l 2,11,12
 232.422820957 856.475194683 232.422820957 856.475194683 269.44900782 819.44900782 c 0,13,14
 283.919377541 804.9786381 283.919377541 804.9786381 293.030491676 786.855443678 c 2,15,-1
 301.950836953 769.111648925 l 1,16,-1
 311.215848648 787.34280097 l 2,17,18
 320.279280744 805.177296384 320.279280744 805.177296384 334.55099218 819.44900782 c 0,19,20
 372 856 372 856 424 856.475194683 c 2,21,-1
 560 856.475194683 l 2,22,23
 612.422820957 856.475194683 612.422820957 856.475194683 649.44900782 819.44900782 c 128,-1,24
 686.594293603 782.303722037 686.594293603 782.303722037 686.594293603 728.710325915 c 0,25,26
 686.594293603 697.48823742 686.594293603 697.48823742 671.412488175 670.035153313 c 2,27,-1
 513.615151128 376.864311325 l 1,28,-1
 683.524637075 59.7560132932 l 2,29,30
 698.595362944 32.3851080743 698.595362944 32.3851080743 698.595362944 1.2889981988 c 0,31,32
 698.595362944 -52.3026526965 698.595362944 -52.3026526965 661.44900782 -89.4490078201 c 0,33,34
 624 -126 624 -126 572 -126.475194683 c 2,35,-1
 432 -126.475194683 l 2,36,37
 379.577179043 -126.475194683 379.577179043 -126.475194683 342.55099218 -89.4490078201 c 0,38,39
 328.341035147 -75.2390507869 328.341035147 -75.2390507869 319.292885286 -57.4941355267 c 2,40,-1
 298.103403946 -15.9380653248 l 1,41,-1
 276.482794873 -57.9319406386 l 2,42,43
 267.480130247 -75.4178853929 267.480130247 -75.4178853929 253.44900782 -89.4490078201 c 0,44,45
 216 -126 216 -126 164 -126.475194683 c 2,46,-1
 28 -126.475194683 l 2,47,48
 -24.4228209568 -126.475194683 -24.4228209568 -126.475194683 -61.4490078201 -89.4490078201 c 128,-1,49
 -98.5934752937 -52.3045403465 -98.5934752937 -52.3045403465 -98.5934752937 1.29012196492 c 0,0,1
EndSplineSet
EndChar

StartChar: Y
Encoding: 89 89 168
Width: 600
GlyphClass: 2
Flags: W
AnchorPoint: "Anchor-2" 300 0 basechar 0
AnchorPoint: "Anchor-0" 300 730 basechar 0
LayerCount: 2
Fore
SplineSet
489.475194683 4.59354776439e-14 m 2,0,1
 489.475194683 -52.4228209568 489.475194683 -52.4228209568 452.44900782 -89.4490078201 c 0,2,3
 415 -126 415 -126 363 -126.475194683 c 2,4,-1
 237 -126.475194683 l 2,5,6
 184.577179043 -126.475194683 184.577179043 -126.475194683 147.55099218 -89.4490078201 c 128,-1,7
 110.524805317 -52.4228209568 110.524805317 -52.4228209568 110.524805317 -4.59354776439e-14 c 2,8,-1
 110.524805317 237.179739492 l 1,9,-1
 -91.9090030866 677.0475942 l 2,10,11
 -103.627908439 701.669943067 -103.627908439 701.669943067 -103.627908439 728.784956185 c 0,12,13
 -103.627908439 739.856123169 -103.627908439 739.856123169 -101.674224927 751.342847485 c 0,14,15
 -94.9356660594 790.962349581 -94.9356660594 790.962349581 -66.4490078201 819.44900782 c 0,16,17
 -29 856 -29 856 23 856.475194683 c 2,18,-1
 154 856.475194683 l 2,19,20
 206.422820957 856.475194683 206.422820957 856.475194683 243.44900782 819.44900782 c 0,21,22
 259.865357509 803.032658131 259.865357509 803.032658131 269.323722803 782.041724628 c 2,23,-1
 300.912278411 711.937298585 l 1,24,-1
 331.171084301 780.905567866 l 2,25,26
 340.679197402 802.577213042 340.679197402 802.577213042 357.55099218 819.44900782 c 0,27,28
 395 856 395 856 447 856.475194683 c 2,29,-1
 577 856.475194683 l 2,30,31
 629.422820957 856.475194683 629.422820957 856.475194683 666.44900782 819.44900782 c 0,32,33
 694.935666059 790.962349581 694.935666059 790.962349581 701.674224927 751.342847485 c 0,34,35
 703.627908439 739.856123169 703.627908439 739.856123169 703.627908439 728.784956185 c 0,36,37
 703.627908439 701.669943067 703.627908439 701.669943067 691.909003087 677.0475942 c 2,38,-1
 489.475194683 237.179739492 l 1,39,-1
 489.475194683 4.59354776439e-14 l 2,0,1
EndSplineSet
EndChar

StartChar: Z
Encoding: 90 90 177
Width: 600
GlyphClass: 2
Flags: W
AnchorPoint: "Anchor-4" 300 365 basechar 0
AnchorPoint: "Anchor-2" 300 0 basechar 0
AnchorPoint: "Anchor-0" 300 730 basechar 0
LayerCount: 2
Fore
SplineSet
-47.4751946834 -4.59354776439e-14 m 2,0,-1
 -47.4751946834 116 l 2,1,2
 -47.4751946834 150.365004676 -47.4751946834 150.365004676 -30.2377348657 179.839296037 c 2,3,-1
 151.460576949 490.524805317 l 1,4,-1
 86 490.524805317 l 2,5,6
 33.5771790432 490.524805317 33.5771790432 490.524805317 -3.4490078201 527.55099218 c 0,7,8
 -40 565 -40 565 -40.4751946834 617 c 2,9,-1
 -40.4751946834 730 l 2,10,11
 -40.4751946834 782.422820957 -40.4751946834 782.422820957 -3.4490078201 819.44900782 c 0,12,13
 34 856 34 856 86 856.475194683 c 2,14,-1
 510 856.475194683 l 2,15,16
 562.422820957 856.475194683 562.422820957 856.475194683 599.44900782 819.44900782 c 0,17,18
 636 782 636 782 636.475194683 730 c 2,19,-1
 636.475194683 614 l 2,20,21
 636.475194683 579.534468899 636.475194683 579.534468899 619.143483506 549.999818219 c 2,22,-1
 436.919452928 239.475194683 l 1,23,-1
 521 239.475194683 l 2,24,25
 573.422820957 239.475194683 573.422820957 239.475194683 610.44900782 202.44900782 c 0,26,27
 647 165 647 165 647.475194683 113 c 2,28,-1
 647.475194683 4.59354776439e-14 l 2,29,30
 647.475194683 -52.4228209568 647.475194683 -52.4228209568 610.44900782 -89.4490078201 c 0,31,32
 573 -126 573 -126 521 -126.475194683 c 2,33,-1
 79 -126.475194683 l 2,34,35
 26.5771790432 -126.475194683 26.5771790432 -126.475194683 -10.4490078201 -89.4490078201 c 128,-1,36
 -47.4751946834 -52.4228209568 -47.4751946834 -52.4228209568 -47.4751946834 -4.59354776439e-14 c 2,0,-1
EndSplineSet
EndChar

StartChar: a
Encoding: 97 97 181
Width: 600
GlyphClass: 2
Flags: W
AnchorPoint: "Anchor-3" 450 0 basechar 0
AnchorPoint: "Anchor-2" 305 0 basechar 0
AnchorPoint: "Anchor-0" 305 550 basechar 0
LayerCount: 2
Fore
SplineSet
-70.4751946834 156 m 0,0,1
 -70.4751946834 249.153291302 -70.4751946834 249.153291302 -23.8582894962 318.81450293 c 1,2,3
 -45.5037920531 349.715164998 -45.5037920531 349.715164998 -45.5037920531 388.981222498 c 0,4,5
 -45.5037920531 392.757327112 -45.5037920531 392.757327112 -45.3036118561 396.610795903 c 0,6,7
 -42.1287230273 457.727405859 -42.1287230273 457.727405859 -16.9431802559 509.704681654 c 0,8,9
 12.7444874225 570.973327108 12.7444874225 570.973327108 70.3012261676 614.491836891 c 0,10,11
 165.505021957 686.475194683 165.505021957 686.475194683 305 686.475194683 c 0,12,13
 469.266570957 686.475194683 469.266570957 686.475194683 565.992953133 589.748812508 c 0,14,15
 614.204083965 541.537681675 614.204083965 541.537681675 635.535255438 476.821076697 c 0,16,17
 651.475194683 428.460922038 651.475194683 428.460922038 651.475194683 373 c 2,18,-1
 651.475194683 4.59354776439e-14 l 2,19,20
 651.475194683 -52.4228209568 651.475194683 -52.4228209568 614.44900782 -89.4490078201 c 0,21,22
 577 -126 577 -126 525 -126.475194683 c 2,23,-1
 404 -126.475194683 l 2,24,25
 378.667390204 -126.475194683 378.667390204 -126.475194683 356.930161097 -117.82893886 c 1,26,27
 303.683904657 -136.475194683 303.683904657 -136.475194683 239 -136.475194683 c 0,28,29
 96.8287127855 -136.475194683 96.8287127855 -136.475194683 10.2893338563 -49.9358157542 c 0,30,31
 -35.506280163 -4.14020173483 -35.506280163 -4.14020173483 -55.638489033 57.8485128213 c 0,32,33
 -70.4751946834 103.531940679 -70.4751946834 103.531940679 -70.4751946834 156 c 0,0,1
EndSplineSet
Substitution2: "Single Substitution lookup 399 subtable" ordfeminine
Substitution2: "'aalt' Access All Alternates in Latin lookup 0 subtable" ordfeminine
EndChar

StartChar: aogonek
Encoding: 261 261 201
Width: 600
GlyphClass: 2
Flags: W
AnchorPoint: "Anchor-3" 450 0 basechar 0
AnchorPoint: "Anchor-2" 305 0 basechar 0
AnchorPoint: "Anchor-0" 305 550 basechar 0
LayerCount: 2
Fore
SplineSet
-70.4751946834 156 m 0,0,1
 -70.4751946834 249.153291302 -70.4751946834 249.153291302 -23.8582894962 318.81450293 c 1,2,3
 -45.5037920531 349.715164998 -45.5037920531 349.715164998 -45.5037920531 388.981222498 c 0,4,5
 -45.5037920531 392.757327112 -45.5037920531 392.757327112 -45.3036118561 396.610795903 c 0,6,7
 -42.1287230273 457.727405859 -42.1287230273 457.727405859 -16.9431802559 509.704681654 c 0,8,9
 12.7444874225 570.973327108 12.7444874225 570.973327108 70.3012261676 614.491836891 c 0,10,11
 165.505021957 686.475194683 165.505021957 686.475194683 305 686.475194683 c 0,12,13
 469.266570957 686.475194683 469.266570957 686.475194683 565.992953133 589.748812508 c 0,14,15
 614.204083965 541.537681675 614.204083965 541.537681675 635.535255438 476.821076697 c 0,16,17
 651.475194683 428.460922038 651.475194683 428.460922038 651.475194683 373 c 2,18,-1
 651.475194683 4.59354776439e-14 l 2,19,20
 651.475194683 -13.0674480472 651.475194683 -13.0674480472 649.174548794 -25.1782163511 c 1,21,22
 658.737891912 -31.8398762717 658.737891912 -31.8398762717 667.44900782 -40.5509921799 c 0,23,24
 704 -78 704 -78 704.475194683 -130 c 2,25,-1
 704.475194683 -216 l 2,26,27
 704.475194683 -268.422820957 704.475194683 -268.422820957 667.44900782 -305.44900782 c 128,-1,28
 630.422820957 -342.475194683 630.422820957 -342.475194683 578 -342.475194683 c 2,29,-1
 482 -342.475194683 l 2,30,31
 365.478169142 -342.475194683 365.478169142 -342.475194683 292.945365281 -269.942390822 c 0,32,33
 264.73490426 -241.731929802 264.73490426 -241.731929802 249.003886881 -207.579663086 c 128,-1,34
 233.272869502 -173.427396371 233.272869502 -173.427396371 229.649843302 -136.379783604 c 1,35,36
 93.9458225024 -133.5923044 93.9458225024 -133.5923044 10.2893338563 -49.9358157542 c 0,37,38
 -35.506280163 -4.14020173483 -35.506280163 -4.14020173483 -55.638489033 57.8485128213 c 0,39,40
 -70.4751946834 103.531940679 -70.4751946834 103.531940679 -70.4751946834 156 c 0,0,1
EndSplineSet
EndChar

StartChar: ae
Encoding: 230 230 204
Width: 600
GlyphClass: 2
Flags: W
AnchorPoint: "Anchor-0" 300 550 basechar 0
LayerCount: 2
Fore
SplineSet
298.841077581 -109.609495273 m 1,0,1
 243.944572766 -136.475194683 243.944572766 -136.475194683 171 -136.475194683 c 0,2,3
 124.280104975 -136.475194683 124.280104975 -136.475194683 83.1540744137 -122.907844395 c 0,4,5
 22.6564319694 -102.949859259 22.6564319694 -102.949859259 -19.2868879508 -57.6057296155 c 0,6,7
 -91.4751946834 20.4356830684 -91.4751946834 20.4356830684 -91.4751946834 136 c 2,8,-1
 -91.4751946834 190 l 2,9,10
 -91.4751946834 264.929865142 -91.4751946834 264.929865142 -55.361610558 324.82747471 c 1,11,12
 -86 360 -86 360 -86.2375973417 408.709832538 c 128,-1,13
 -86.4751946834 457.419665076 -86.4751946834 457.419665076 -73.4766452035 500.551215623 c 0,14,15
 -54.0629465802 564.969397418 -54.0629465802 564.969397418 -7.45012165391 611.582222344 c 0,16,17
 34.8048678879 653.837211886 34.8048678879 653.837211886 91.3276231847 672.565310448 c 0,18,19
 133.308659342 686.475194683 133.308659342 686.475194683 181 686.475194683 c 0,20,21
 249.038400399 686.475194683 249.038400399 686.475194683 300.748680094 660.584159909 c 1,22,23
 352.002492144 686.475194458 352.002492144 686.475194458 420 686.475194683 c 0,24,25
 468.651555116 686.475194683 468.651555116 686.475194683 511.350177275 672.423542337 c 0,26,27
 573.008291222 652.132527366 573.008291222 652.132527366 616.422091921 605.971017761 c 0,28,29
 691.475194683 526.167718622 691.475194683 526.167718622 691.475194683 406 c 2,30,-1
 691.475194683 252 l 2,31,32
 691.475194683 220.160136922 691.475194683 220.160136922 677.816455981 194 c 1,33,34
 691 168 691 168 691.475194683 136 c 0,35,36
 691.475194683 86.4279885775 691.475194683 86.4279885775 677.314838993 43.061899276 c 0,37,38
 658.092984 -15.8050316402 658.092984 -15.8050316402 614.44900782 -59.4490078201 c 128,-1,39
 570.947890607 -102.950125033 570.947890607 -102.950125033 512.610860936 -122.195330698 c 0,40,41
 469.32502323 -136.475194683 469.32502323 -136.475194683 420 -136.475194683 c 0,42,43
 350.896791811 -136.475194683 350.896791811 -136.475194683 298.841077581 -109.609495273 c 1,0,1
EndSplineSet
EndChar

StartChar: b
Encoding: 98 98 206
Width: 600
GlyphClass: 2
Flags: W
AnchorPoint: "Anchor-2" 300 0 basechar 0
AnchorPoint: "Anchor-0" 300 730 basechar 0
LayerCount: 2
Fore
SplineSet
347 686.475194683 m 0,0,1
 401.829614105 686.475194683 401.829614105 686.475194683 449.954528998 670.291594985 c 0,2,3
 523.11028783 645.690543342 523.11028783 645.690543342 575.171851797 586.34036042 c 0,4,5
 656.475194683 493.654549529 656.475194683 493.654549529 656.475194683 349 c 2,6,-1
 656.475194683 200 l 2,7,8
 656.475194683 43.6051120041 656.475194683 43.6051120041 562.01237975 -50.8577029295 c 0,9,10
 513.977780584 -98.8923020956 513.977780584 -98.8923020956 450.194916014 -120.29531233 c 0,11,12
 401.977434752 -136.475194683 401.977434752 -136.475194683 345.843254901 -136.475194683 c 128,-1,13
 289.709075049 -136.475194683 289.709075049 -136.475194683 241.730183203 -119.456312826 c 1,14,15
 221.824425722 -126.475194683 221.824425722 -126.475194683 199 -126.475194683 c 2,16,-1
 77 -126.475194683 l 2,17,18
 24.5771790432 -126.475194683 24.5771790432 -126.475194683 -12.4490078201 -89.4490078201 c 0,19,20
 -49 -52 -49 -52 -49.4751946834 -4.61852778244e-14 c 2,21,-1
 -49.4751946834 730 l 2,22,23
 -49.4751946834 782.422820957 -49.4751946834 782.422820957 -12.4490078201 819.44900782 c 0,24,25
 25 856 25 856 77 856.475194683 c 2,26,-1
 202 856.475194683 l 2,27,28
 254.422820957 856.475194683 254.422820957 856.475194683 291.44900782 819.44900782 c 128,-1,29
 328.475194683 782.422820957 328.475194683 782.422820957 328.475194683 730 c 2,30,-1
 328.475194683 686.014611131 l 1,31,32
 337.613054352 686.475194683 337.613054352 686.475194683 347 686.475194683 c 0,0,1
EndSplineSet
EndChar

StartChar: c
Encoding: 99 99 207
Width: 600
GlyphClass: 2
Flags: W
AnchorPoint: "Anchor-2" 303 0 basechar 0
AnchorPoint: "Anchor-0" 303 550 basechar 0
LayerCount: 2
Fore
SplineSet
303 -136.475194683 m 0,0,1
 202.779923844 -136.475194683 202.779923844 -136.475194683 123.463159394 -96.4391135801 c 0,2,3
 38.2366178077 -53.4200021129 38.2366178077 -53.4200021129 -9.11928843785 25.778668677 c 128,-1,4
 -56.4751946834 104.977339467 -56.4751946834 104.977339467 -56.4751946834 206 c 2,5,-1
 -56.4751946834 344 l 2,6,7
 -56.4751946834 445.022660533 -56.4751946834 445.022660533 -9.61742075121 523.388247971 c 0,8,9
 38.2366178077 603.420002113 38.2366178077 603.420002113 123.463159394 646.43911358 c 0,10,11
 202.779923844 686.475194683 202.779923844 686.475194683 303 686.475194683 c 0,12,13
 468.663846598 686.475194683 468.663846598 686.475194683 568.810848714 586.328192567 c 0,14,15
 617.967321319 537.171719962 617.967321319 537.171719962 641.121759466 471.5146615 c 0,16,17
 658.550780316 422.092678827 658.550780316 422.092678827 660.407495733 365.15340604 c 0,18,19
 660.486429188 362.732780098 660.486429188 362.732780098 660.486429188 360.343520209 c 0,20,21
 660.486429188 310.976299556 660.486429188 310.976299556 626.787842945 275 c 1,22,23
 660.486429188 239.023700444 660.486429188 239.023700444 660.486429188 189.656479791 c 0,24,25
 660.486429188 187.267219902 660.486429188 187.267219902 660.407495733 184.84659396 c 0,26,27
 658.550780316 127.907321173 658.550780316 127.907321173 641.121759466 78.4853384995 c 0,28,29
 613.97485687 1.50719031423 613.97485687 1.50719031423 551.55906116 -52.3516011451 c 0,30,31
 454.070036873 -136.475194683 454.070036873 -136.475194683 303 -136.475194683 c 0,0,1
EndSplineSet
EndChar

StartChar: ccedilla
Encoding: 231 231 210
Width: 600
GlyphClass: 2
Flags: W
AnchorPoint: "Anchor-2" 303 0 basechar 0
AnchorPoint: "Anchor-0" 303 550 basechar 0
LayerCount: 2
Fore
SplineSet
73.5248053166 -216 m 2,0,-1
 73.5248053166 -152 l 2,1,2
 73.5248053166 -115.313967766 73.5248053166 -115.313967766 91.657806832 -86.1681985769 c 0,3,4
 91.0309151269 -81.7705372206 91.0309151269 -81.7705372206 90.7031575352 -77.4255944255 c 0,5,6
 50.8967648473 -51.346722974 50.8967648473 -51.346722974 19.8152447642 -14.5836347037 c 0,7,8
 -56.4751946834 75.652368944 -56.4751946834 75.652368944 -56.4751946834 206 c 2,9,-1
 -56.4751946834 344 l 2,10,11
 -56.4751946834 445.022660533 -56.4751946834 445.022660533 -9.61742075121 523.388247971 c 0,12,13
 38.2366178077 603.420002113 38.2366178077 603.420002113 123.463159394 646.43911358 c 0,14,15
 202.779923844 686.475194683 202.779923844 686.475194683 303 686.475194683 c 0,16,17
 468.663846598 686.475194683 468.663846598 686.475194683 568.810848714 586.328192567 c 0,18,19
 617.967321319 537.171719962 617.967321319 537.171719962 641.121759466 471.5146615 c 0,20,21
 658.550780316 422.092678827 658.550780316 422.092678827 660.407495733 365.15340604 c 0,22,23
 660.486429188 362.732780098 660.486429188 362.732780098 660.486429188 360.343520209 c 0,24,25
 660.486429188 310.976299556 660.486429188 310.976299556 626.787842945 275 c 1,26,27
 660.486429188 239.023700444 660.486429188 239.023700444 660.486429188 189.656479791 c 0,28,29
 660.486429188 187.267219902 660.486429188 187.267219902 660.407495733 184.84659396 c 0,30,31
 658.545789843 127.754280002 658.545789843 127.754280002 641.117426068 78.2382505248 c 0,32,33
 612.490446662 -3.09436189585 612.490446662 -3.09436189585 544.74355402 -58.5149752384 c 1,34,35
 557.475194683 -91.2932255195 557.475194683 -91.2932255195 557.475194683 -128 c 0,36,37
 557.475194683 -173.408806855 557.475194683 -173.408806855 537.154314275 -213.824780112 c 0,38,39
 514.700716795 -258.482490655 514.700716795 -258.482490655 469.90019357 -291.460653585 c 0,40,41
 400.597420756 -342.475194683 400.597420756 -342.475194683 299 -342.475194683 c 2,42,-1
 200 -342.475194683 l 2,43,44
 147.577179043 -342.475194683 147.577179043 -342.475194683 110.55099218 -305.44900782 c 128,-1,45
 73.5248053166 -268.422820957 73.5248053166 -268.422820957 73.5248053166 -216 c 2,0,-1
EndSplineSet
EndChar

StartChar: d
Encoding: 100 100 213
Width: 600
GlyphClass: 2
Flags: W
AnchorPoint: "Anchor-4" 300 275 basechar 0
AnchorPoint: "Anchor-2" 300 0 basechar 0
AnchorPoint: "Anchor-0" 300 730 basechar 0
LayerCount: 2
Fore
SplineSet
250 686.475194683 m 0,0,1
 260.923770178 686.475194683 260.923770178 686.475194683 271.524805317 685.824439508 c 1,2,-1
 271.524805317 730 l 2,3,4
 271.524805317 782.422820957 271.524805317 782.422820957 308.55099218 819.44900782 c 0,5,6
 346 856 346 856 398 856.475194683 c 2,7,-1
 523 856.475194683 l 2,8,9
 575.422820957 856.475194683 575.422820957 856.475194683 612.44900782 819.44900782 c 0,10,11
 649 782 649 782 649.475194683 730 c 2,12,-1
 649.475194683 4.59354776439e-14 l 2,13,14
 649.475194683 -52.4228209568 649.475194683 -52.4228209568 612.44900782 -89.4490078201 c 0,15,16
 575 -126 575 -126 523 -126.475194683 c 2,17,-1
 401 -126.475194683 l 2,18,19
 376.929926763 -126.475194683 376.929926763 -126.475194683 356.105788665 -118.669293713 c 1,20,21
 307.720035496 -136.475194683 307.720035496 -136.475194683 250 -136.475194683 c 0,22,23
 181.857813286 -136.475194683 181.857813286 -136.475194683 124.084451322 -110.463491429 c 0,24,25
 67.5011717477 -84.9876072607 67.5011717477 -84.9876072607 24.8281482032 -36.34036042 c 0,26,27
 -56.4751946834 56.3454504707 -56.4751946834 56.3454504707 -56.4751946834 200 c 2,28,-1
 -56.4751946834 349 l 2,29,30
 -56.4751946834 506.558414177 -56.4751946834 506.558414177 38.6670507838 601.700659644 c 0,31,32
 86.0445299709 649.078138831 86.0445299709 649.078138831 148.451931884 670.299447759 c 0,33,34
 196.021398167 686.475194683 196.021398167 686.475194683 250 686.475194683 c 0,0,1
EndSplineSet
EndChar

StartChar: eth
Encoding: 240 240 214
Width: 600
GlyphClass: 1
Flags: W
LayerCount: 2
Fore
SplineSet
606.475194683 647 m 2,0,1
 606.475194683 593.983106691 606.475194683 593.983106691 568.694528749 556.802523414 c 1,2,3
 614.162217555 487.556493423 614.162217555 487.556493423 639.883066608 419.129328977 c 0,4,5
 674.475194683 327.101214663 674.475194683 327.101214663 674.475194683 239 c 0,6,7
 674.475194683 131.446929925 674.475194683 131.446929925 626.991399223 47.967354035 c 0,8,9
 603.715835943 7.04741213961 603.715835943 7.04741213961 569.715692478 -26.9527313255 c 128,-1,10
 535.715549013 -60.9528747907 535.715549013 -60.9528747907 490.661286077 -85.3065304315 c 0,11,12
 407.099257211 -130.475194683 407.099257211 -130.475194683 300.470462892 -130.475194683 c 128,-1,13
 193.841668573 -130.475194683 193.841668573 -130.475194683 110.894898857 -87.1336393363 c 0,14,15
 23.6635333087 -41.5532861667 23.6635333087 -41.5532861667 -25.4058306873 40.7566147299 c 128,-1,16
 -74.4751946834 123.066515627 -74.4751946834 123.066515627 -74.4751946834 227 c 0,17,18
 -74.4751946834 355.549077546 -74.4751946834 355.549077546 -5.09117004115 447.794254658 c 1,19,20
 -15 471 -15 471 -15.4751946834 499 c 2,21,-1
 -15.4751946834 594 l 2,22,23
 -15.4751946834 649.000460908 -15.4751946834 649.000460908 24.8130118207 686.60078139 c 1,24,25
 17.4859063859 706.578413998 17.4859063859 706.578413998 17.4859063859 728.987614773 c 0,26,27
 17.4859063859 782.383922026 17.4859063859 782.383922026 54.5509921799 819.44900782 c 0,28,29
 92 856 92 856 144 856.475194683 c 2,30,-1
 285 856.475194683 l 2,31,32
 328.53721226 856.475194683 328.53721226 856.475194683 361.454871232 830.937043811 c 1,33,-1
 433.039858523 859.48042482 l 2,34,35
 455.142317814 868.651311248 455.142317814 868.651311248 478.924823761 868.651311248 c 0,36,37
 491.481838973 868.651311248 491.481838973 868.651311248 504.507213277 866.094675083 c 0,38,39
 542.202147713 858.695867927 542.202147713 858.695867927 569.44900782 831.44900782 c 0,40,41
 606 794 606 794 606.475194683 742 c 2,42,-1
 606.475194683 647 l 2,0,1
EndSplineSet
EndChar

StartChar: dcaron
Encoding: 271 271 215
Width: 600
GlyphClass: 1
Flags: W
LayerCount: 2
Fore
SplineSet
304.933241893 -120.992090941 m 1,0,1
 262.026886542 -136.475194683 262.026886542 -136.475194683 212.572776114 -136.475194683 c 128,-1,2
 163.118665687 -136.475194683 163.118665687 -136.475194683 119.029401764 -121.520547486 c 0,3,4
 45.0841524778 -96.4390419983 45.0841524778 -96.4390419983 -5.21666835802 -32.9914157169 c 0,5,6
 -76.4751946834 56.8914981708 -76.4751946834 56.8914981708 -76.4751946834 195 c 2,7,-1
 -76.4751946834 355 l 2,8,9
 -76.4751946834 493.108501829 -76.4751946834 493.108501829 -5.21666835802 582.991415717 c 0,10,11
 45.0841524777 646.439041998 45.0841524777 646.439041998 119.029401764 671.520547486 c 0,12,13
 163.118665687 686.475194683 163.118665687 686.475194683 213 686.475194683 c 0,14,15
 213.262490646 686.475194683 213.262490646 686.475194683 213.524805317 686.474750994 c 1,16,-1
 213.524805317 730 l 2,17,18
 213.524805317 782.422820957 213.524805317 782.422820957 250.55099218 819.44900782 c 0,19,20
 288 856 288 856 340 856.475194683 c 2,21,-1
 459 856.475194683 l 2,22,23
 471.433019572 856.475194683 471.433019572 856.475194683 482.999998596 854.392519696 c 1,24,25
 495 856 495 856 507 856.475194683 c 2,26,-1
 609 856.475194683 l 2,27,28
 661.422820957 856.475194683 661.422820957 856.475194683 698.44900782 819.44900782 c 128,-1,29
 735.507918139 782.390097501 735.507918139 782.390097501 735.507918139 731.084106116 c 0,30,31
 735.507918139 727.051858714 735.507918139 727.051858714 725.27901549 542.931611028 c 0,32,33
 722.599567774 494.701552134 722.599567774 494.701552134 688.44900782 460.55099218 c 0,34,35
 651.422820957 423.524805317 651.422820957 423.524805317 599 423.524805317 c 2,36,-1
 585.475194683 423.524805317 l 1,37,-1
 585.475194683 4.59354776439e-14 l 2,38,39
 585.475194683 -52.4228209568 585.475194683 -52.4228209568 548.44900782 -89.4490078201 c 0,40,41
 511 -126 511 -126 459 -126.475194683 c 2,42,-1
 343 -126.475194683 l 2,43,44
 322.826598854 -126.475194683 322.826598854 -126.475194683 304.933241893 -120.992090941 c 1,0,1
EndSplineSet
EndChar

StartChar: dcroat
Encoding: 273 273 216
Width: 600
GlyphClass: 1
Flags: W
LayerCount: 2
Fore
SplineSet
357.578584845 -119.564702622 m 1,0,1
 310.122692671 -136.475194683 310.122692671 -136.475194683 254.333945334 -136.475194683 c 0,2,3
 112.234434888 -136.475194683 112.234434888 -136.475194683 25.3557412395 -36.2987418026 c 0,4,5
 -54.4751946834 55.7512149247 -54.4751946834 55.7512149247 -54.4751946834 200 c 2,6,-1
 -54.4751946834 289 l 2,7,8
 -54.4751946834 447.12611766 -54.4751946834 447.12611766 40.4291469921 542.030459336 c 0,9,10
 74.8353190907 576.436631434 74.8353190907 576.436631434 117.524805317 596.99036757 c 1,11,-1
 117.524805317 645 l 2,12,13
 117.524805317 697.422820957 117.524805317 697.422820957 154.55099218 734.44900782 c 0,14,15
 192 771 192 771 244 771.475194683 c 2,16,-1
 277.109131866 771.475194683 l 1,17,18
 286.138661508 798.036677149 286.138661508 798.036677149 307.55099218 819.44900782 c 0,19,20
 345 856 345 856 397 856.475194683 c 2,21,-1
 522 856.475194683 l 2,22,23
 574.422820957 856.475194683 574.422820957 856.475194683 611.44900782 819.44900782 c 0,24,25
 635.859664096 795.038351545 635.859664096 795.038351545 644.176841936 763.935529002 c 1,26,27
 669.131054568 754.766961072 669.131054568 754.766961072 689.44900782 734.44900782 c 0,28,29
 726 697 726 697 726.475194683 645 c 2,30,-1
 726.475194683 561 l 2,31,32
 726.475194683 508.577179043 726.475194683 508.577179043 689.44900782 471.55099218 c 0,33,34
 670.895162738 452.997147097 670.895162738 452.997147097 648.475194683 443.740645233 c 1,35,-1
 648.475194683 4.59354776439e-14 l 2,36,37
 648.475194683 -52.4228209568 648.475194683 -52.4228209568 611.44900782 -89.4490078201 c 0,38,39
 574 -126 574 -126 522 -126.475194683 c 2,40,-1
 400 -126.475194683 l 2,41,42
 377.352494217 -126.475194683 377.352494217 -126.475194683 357.578584845 -119.564702622 c 1,0,1
EndSplineSet
EndChar

StartChar: e
Encoding: 101 101 217
Width: 600
GlyphClass: 2
Flags: W
AnchorPoint: "Anchor-3" 347 0 basechar 0
AnchorPoint: "Anchor-2" 300 0 basechar 0
AnchorPoint: "Anchor-0" 300 550 basechar 0
LayerCount: 2
Fore
SplineSet
644.515202153 190.384987283 m 1,0,1
 652.506029089 168.698211158 652.506029089 168.698211158 652.506029089 146.019121092 c 0,2,3
 652.506029089 133.72154915 652.506029089 133.72154915 650.073414336 121.384717192 c 0,4,5
 632.153581723 30.5055660831 632.153581723 30.5055660831 567.73025782 -33.9177578201 c 0,6,7
 547.148246454 -54.4997691866 547.148246454 -54.4997691866 522.338677702 -71.6445931205 c 0,8,9
 428.524983676 -136.475194683 428.524983676 -136.475194683 301 -136.475194683 c 0,10,11
 200.014759559 -136.475194683 200.014759559 -136.475194683 120.682982376 -95.2836949919 c 0,12,13
 36.3701460114 -51.5058761103 36.3701460114 -51.5058761103 -9.81492699431 27.2470619448 c 128,-1,14
 -56 106 -56 106 -56.4751946834 206 c 2,15,-1
 -56.4751946834 344 l 2,16,17
 -56.4751946834 443.505910367 -56.4751946834 443.505910367 -10.6055669488 521.564750546 c 0,18,19
 36.3701460114 601.50587611 36.3701460114 601.50587611 120.682982376 645.283694992 c 0,20,21
 200.014759559 686.475194683 200.014759559 686.475194683 300.632463255 686.475194683 c 128,-1,22
 401.250166951 686.475194683 401.250166951 686.475194683 480.25771985 645.053759183 c 0,23,24
 563.76724837 601.272064619 563.76724837 601.272064619 610.121221527 522.388987493 c 128,-1,25
 656.475194683 443.505910367 656.475194683 443.505910367 656.475194683 344 c 2,26,-1
 656.475194683 245 l 2,27,28
 656.475194683 215.205826172 656.475194683 215.205826172 644.515202153 190.384987283 c 1,0,1
300.901910266 339.496855696 m 1,29,-1
 299.419230209 340.972698282 l 1,30,-1
 299.024458556 340.576097616 l 1,31,-1
 300.901910266 339.496855696 l 1,29,-1
EndSplineSet
EndChar

StartChar: eogonek
Encoding: 281 281 233
Width: 600
GlyphClass: 2
Flags: W
AnchorPoint: "Anchor-0" 300 550 basechar 0
LayerCount: 2
Fore
SplineSet
643.075074451 191.563618866 m 1,0,1
 651.506611383 169.37468813 651.506611383 169.37468813 651.506611383 146.013773782 c 0,2,3
 651.506611383 133.548327438 651.506611383 133.548327438 649.006459129 121.047566168 c 0,4,5
 629.653537845 24.2829597455 629.653537845 24.2829597455 554.187623159 -44.4304293323 c 1,6,7
 587 -80 587 -80 587.475194683 -130 c 2,8,-1
 587.475194683 -216 l 2,9,10
 587.475194683 -268.422820957 587.475194683 -268.422820957 550.44900782 -305.44900782 c 128,-1,11
 513.422820957 -342.475194683 513.422820957 -342.475194683 461 -342.475194683 c 2,12,-1
 365 -342.475194683 l 2,13,14
 248.478169142 -342.475194683 248.478169142 -342.475194683 175.945365281 -269.942390822 c 0,15,16
 147.73490426 -241.731929802 147.73490426 -241.731929802 131.563340739 -206.623231026 c 0,17,18
 111.524805317 -163.119280211 111.524805317 -163.119280211 111.524805317 -113 c 0,19,20
 111.524805317 -101.735595577 111.524805317 -101.735595577 112.689613734 -90.6970188474 c 1,21,22
 34.4598282495 -47.0336737584 34.4598282495 -47.0336737584 -10.007683217 29.9904086031 c 128,-1,23
 -54.4751946834 107.014490965 -54.4751946834 107.014490965 -54.4751946834 206 c 2,24,-1
 -54.4751946834 344 l 2,25,26
 -54.4751946834 442.985509035 -54.4751946834 442.985509035 -9.59168208393 520.730164788 c 0,27,28
 11.4630308136 557.199935343 11.4630308136 557.199935343 43.5840960316 589.321000561 c 128,-1,29
 75.7051612496 621.442065779 75.7051612496 621.442065779 120.74228015 645.053759183 c 0,30,31
 199.749833049 686.475194683 199.749833049 686.475194683 300.5 686.475194683 c 128,-1,32
 401.250166951 686.475194683 401.250166951 686.475194683 480.25771985 645.053759183 c 0,33,34
 524.986719092 621.60360424 524.986719092 621.60360424 557.219626018 589.370697314 c 0,35,36
 654.475194683 492.115128649 654.475194683 492.115128649 654.475194683 344 c 2,37,-1
 654.475194683 245 l 2,38,39
 654.475194683 215.911548076 654.475194683 215.911548076 643.075074451 191.563618866 c 1,0,1
300.834396798 339.391288641 m 1,40,-1
 301.551260093 339.845167882 l 1,41,-1
 299.413817335 341.972662638 l 1,42,-1
 298.358410238 340.912320363 l 1,43,-1
 300.834396798 339.391288641 l 1,40,-1
EndSplineSet
EndChar

StartChar: uni0259
Encoding: 601 601 235
Width: 600
GlyphClass: 1
Flags: W
LayerCount: 2
Fore
SplineSet
-42.5152021531 359.615012717 m 1,0,1
 -50.5060290885 381.301788842 -50.5060290885 381.301788842 -50.5060290885 403.980878908 c 0,2,3
 -50.5060290885 416.27845085 -50.5060290885 416.27845085 -48.0734143364 428.615282808 c 0,4,5
 -30.0135817233 520.204433917 -30.0135817233 520.204433917 34.6893921799 584.90740782 c 0,6,7
 54.3598246589 604.577840299 54.3598246589 604.577840299 77.8671997838 621.091285635 c 0,8,9
 170.943117371 686.475194683 170.943117371 686.475194683 299 686.475194683 c 0,10,11
 400.250166951 686.475194683 400.250166951 686.475194683 479.25771985 645.053759183 c 0,12,13
 524.29483875 621.442065779 524.29483875 621.442065779 556.415903968 589.321000561 c 0,14,15
 654.475194683 491.261709846 654.475194683 491.261709846 654.475194683 344 c 2,16,-1
 654.475194683 206 l 2,17,18
 654.475194683 107.014490965 654.475194683 107.014490965 609.591682084 29.269835212 c 0,19,20
 588.536969186 -7.19993534268 588.536969186 -7.19993534268 556.415903968 -39.3210005607 c 128,-1,21
 524.29483875 -71.4420657787 524.29483875 -71.4420657787 479.25771985 -95.0537591826 c 0,22,23
 400.250166951 -136.475194683 400.250166951 -136.475194683 299.365383252 -136.475194683 c 128,-1,24
 198.480599553 -136.475194683 198.480599553 -136.475194683 119.795760478 -94.8185151732 c 0,25,26
 75.555212992 -71.3970488569 75.555212992 -71.3970488569 43.5807823273 -39.4226181922 c 0,27,28
 -54.4751946834 58.6333588185 -54.4751946834 58.6333588185 -54.4751946834 206 c 2,29,-1
 -54.4751946834 305 l 2,30,31
 -54.4751946834 334.794173828 -54.4751946834 334.794173828 -42.5152021531 359.615012717 c 1,0,1
302.257369204 209.782174521 m 1,32,-1
 299.32678079 211.577483356 l 1,33,-1
 297.260241691 210.264563626 l 1,34,-1
 300 207.524805317 l 1,35,-1
 302.257369204 209.782174521 l 1,32,-1
EndSplineSet
EndChar

StartChar: f
Encoding: 102 102 236
Width: 600
GlyphClass: 2
Flags: W
AnchorPoint: "Anchor-2" 300 0 basechar 0
AnchorPoint: "Anchor-0" 300 730 basechar 0
LayerCount: 2
Fore
SplineSet
456.475194683 4.59354776439e-14 m 2,0,1
 456.475194683 -52.4228209568 456.475194683 -52.4228209568 419.44900782 -89.4490078201 c 0,2,3
 382 -126 382 -126 330 -126.475194683 c 2,4,-1
 205 -126.475194683 l 2,5,6
 152.577179043 -126.475194683 152.577179043 -126.475194683 115.55099218 -89.4490078201 c 128,-1,7
 78.5248053166 -52.4228209568 78.5248053166 -52.4228209568 78.5248053166 -4.59354776439e-14 c 2,8,-1
 78.5248053166 249.524805317 l 1,9,-1
 54 249.524805317 l 2,10,11
 1.57717904317 249.524805317 1.57717904317 249.524805317 -35.4490078201 286.55099218 c 0,12,13
 -72 324 -72 324 -72.4751946834 376 c 2,14,-1
 -72.4751946834 489 l 2,15,16
 -72.4751946834 541.422820957 -72.4751946834 541.422820957 -35.4490078201 578.44900782 c 0,17,18
 2 615 2 615 54 615.475194683 c 2,19,-1
 81.4117725647 615.475194683 l 1,20,21
 95.0517240052 715.344917152 95.0517240052 715.344917152 168.663657743 781.288941126 c 0,22,23
 252.592498924 856.475194683 252.592498924 856.475194683 380 856.475194683 c 2,24,-1
 541 856.475194683 l 2,25,26
 593.422820957 856.475194683 593.422820957 856.475194683 630.44900782 819.44900782 c 0,27,28
 667 782 667 782 667.475194683 730 c 2,29,-1
 667.475194683 620 l 2,30,31
 667.475194683 583.522634857 667.475194683 583.522634857 649.54788441 554.5 c 1,32,33
 667 525 667 525 667.475194683 489 c 2,34,-1
 667.475194683 376 l 2,35,36
 667.475194683 323.577179043 667.475194683 323.577179043 630.44900782 286.55099218 c 128,-1,37
 593.422820957 249.524805317 593.422820957 249.524805317 541 249.524805317 c 2,38,-1
 456.475194683 249.524805317 l 1,39,-1
 456.475194683 4.59354776439e-14 l 2,0,1
EndSplineSet
EndChar

StartChar: g
Encoding: 103 103 237
Width: 600
GlyphClass: 2
Flags: W
AnchorPoint: "Anchor-2" 300 -270 basechar 0
AnchorPoint: "Anchor-0" 297 550 basechar 0
LayerCount: 2
Fore
SplineSet
42.7173071501 -11.7052290539 m 1,0,1
 -54.4751946834 83.4135004288 -54.4751946834 83.4135004288 -54.4751946834 243 c 2,2,-1
 -54.4751946834 350 l 2,3,4
 -54.4751946834 506.537575055 -54.4751946834 506.537575055 40.3975388072 601.410308546 c 0,5,6
 88.2500039877 649.262773726 88.2500039877 649.262773726 152.133637051 670.510721704 c 0,7,8
 200.132085418 686.475194683 200.132085418 686.475194683 255.322014056 686.475194683 c 128,-1,9
 310.511942694 686.475194683 310.511942694 686.475194683 357.005071811 670.052980752 c 1,10,11
 376.167258277 676.475194683 376.167258277 676.475194683 398 676.475194683 c 2,12,-1
 523 676.475194683 l 2,13,14
 575.422820957 676.475194683 575.422820957 676.475194683 612.44900782 639.44900782 c 0,15,16
 649 602 649 602 649.475194683 550 c 2,17,-1
 649.475194683 4.59354776439e-14 l 2,18,19
 649.475194683 -54.6647141428 649.475194683 -54.6647141428 633.980382701 -102.205614543 c 0,20,21
 609.910389095 -176.056731288 609.910389095 -176.056731288 551.0978707 -227.38402007 c 0,22,23
 460.472566455 -306.475194683 460.472566455 -306.475194683 317 -306.475194683 c 2,24,-1
 152 -306.475194683 l 2,25,26
 99.5771790432 -306.475194683 99.5771790432 -306.475194683 62.5509921799 -269.44900782 c 128,-1,27
 25.5248053166 -232.422820957 25.5248053166 -232.422820957 25.5248053166 -180 c 2,28,-1
 25.5248053166 -76 l 2,29,30
 25.5248053166 -40.2780274265 25.5248053166 -40.2780274265 42.7173071501 -11.7052290539 c 1,0,1
323.869539409 351.178867422 m 1,31,-1
 323.925639713 351.270086301 l 1,32,33
 323.896657163 351.237424009 323.896657163 351.237424009 323.869539409 351.178867422 c 1,31,-1
EndSplineSet
EndChar

StartChar: h
Encoding: 104 104 244
Width: 600
GlyphClass: 2
Flags: W
AnchorPoint: "Anchor-4" 300 365 basechar 0
AnchorPoint: "Anchor-2" 300 0 basechar 0
AnchorPoint: "Anchor-0" 300 730 basechar 0
LayerCount: 2
Fore
SplineSet
400 -126.475194683 m 2,0,1
 339.756469191 -126.475194683 339.756469191 -126.475194683 301 -78.8912931671 c 1,2,3
 296.580027456 -84.317988184 296.580027456 -84.317988184 291.44900782 -89.4490078201 c 0,4,5
 254 -126 254 -126 202 -126.475194683 c 2,6,-1
 77 -126.475194683 l 2,7,8
 24.5771790432 -126.475194683 24.5771790432 -126.475194683 -12.4490078201 -89.4490078201 c 128,-1,9
 -49.4751946834 -52.4228209568 -49.4751946834 -52.4228209568 -49.4751946834 -4.59354776439e-14 c 2,10,-1
 -49.4751946834 730 l 2,11,12
 -49.4751946834 782.422820957 -49.4751946834 782.422820957 -12.4490078201 819.44900782 c 0,13,14
 25 856 25 856 77 856.475194683 c 2,15,-1
 202 856.475194683 l 2,16,17
 254.422820957 856.475194683 254.422820957 856.475194683 291.44900782 819.44900782 c 128,-1,18
 328.475194683 782.422820957 328.475194683 782.422820957 328.475194683 730 c 2,19,-1
 328.475194683 686.013875698 l 1,20,21
 337.606961929 686.475194683 337.606961929 686.475194683 347 686.475194683 c 0,22,23
 401.333321016 686.475194683 401.333321016 686.475194683 448.906851398 670.629577779 c 0,24,25
 519.916545644 646.977929426 519.916545644 646.977929426 570.679614641 590.458223738 c 0,26,27
 651.475194683 500.500258331 651.475194683 500.500258331 651.475194683 361 c 2,28,-1
 651.475194683 4.59354776439e-14 l 2,29,30
 651.475194683 -52.4228209568 651.475194683 -52.4228209568 614.44900782 -89.4490078201 c 0,31,32
 577 -126 577 -126 525 -126.475194683 c 2,33,-1
 400 -126.475194683 l 2,0,1
EndSplineSet
EndChar

StartChar: dotlessi
Encoding: 305 305 248
Width: 600
GlyphClass: 2
Flags: W
AnchorPoint: "Anchor-3" 330 0 basechar 0
AnchorPoint: "Anchor-2" 318 0 basechar 0
AnchorPoint: "Anchor-0" 318 550 basechar 0
LayerCount: 2
Fore
SplineSet
-50.4751946834 -4.59354776439e-14 m 2,0,-1
 -50.4751946834 113 l 2,1,2
 -50.4751946834 165.422820957 -50.4751946834 165.422820957 -13.4490078201 202.44900782 c 128,-1,3
 23.5771790432 239.475194683 23.5771790432 239.475194683 76 239.475194683 c 2,4,-1
 137.524805317 239.475194683 l 1,5,-1
 137.524805317 310.524805317 l 1,6,-1
 96 310.524805317 l 2,7,8
 43.5771790432 310.524805317 43.5771790432 310.524805317 6.5509921799 347.55099218 c 0,9,10
 -30 385 -30 385 -30.4751946834 437 c 2,11,-1
 -30.4751946834 550 l 2,12,13
 -30.4751946834 602.422820957 -30.4751946834 602.422820957 6.5509921799 639.44900782 c 0,14,15
 44 676 44 676 96 676.475194683 c 2,16,-1
 389 676.475194683 l 2,17,18
 441.422820957 676.475194683 441.422820957 676.475194683 478.44900782 639.44900782 c 128,-1,19
 515.475194683 602.422820957 515.475194683 602.422820957 515.475194683 550 c 2,20,-1
 515.475194683 239.475194683 l 1,21,-1
 558 239.475194683 l 2,22,23
 610.422820957 239.475194683 610.422820957 239.475194683 647.44900782 202.44900782 c 0,24,25
 684 165 684 165 684.475194683 113 c 2,26,-1
 684.475194683 4.59354776439e-14 l 2,27,28
 684.475194683 -52.4228209568 684.475194683 -52.4228209568 647.44900782 -89.4490078201 c 0,29,30
 610 -126 610 -126 558 -126.475194683 c 2,31,-1
 76 -126.475194683 l 2,32,33
 23.5771790432 -126.475194683 23.5771790432 -126.475194683 -13.4490078201 -89.4490078201 c 128,-1,34
 -50.4751946834 -52.4228209568 -50.4751946834 -52.4228209568 -50.4751946834 -4.59354776439e-14 c 2,0,-1
EndSplineSet
EndChar

StartChar: iogonek
Encoding: 303 303 259
Width: 600
GlyphClass: 2
Flags: W
AnchorPoint: "Anchor-3" 330 0 basechar 0
AnchorPoint: "Anchor-2" 318 0 basechar 0
AnchorPoint: "Anchor-0" 318 786 basechar 0
LayerCount: 2
Fore
SplineSet
526.475194683 714 m 0,0,1
 526.475194683 657.651224753 526.475194683 657.651224753 499.525136825 612.181506823 c 1,2,3
 515.475194683 584.407017189 515.475194683 584.407017189 515.475194683 550 c 2,4,-1
 515.475194683 239.475194683 l 1,5,-1
 558 239.475194683 l 2,6,7
 610.422820957 239.475194683 610.422820957 239.475194683 647.44900782 202.44900782 c 0,8,9
 684 165 684 165 684.475194683 113 c 2,10,-1
 684.475194683 4.59354776439e-14 l 2,11,12
 684.475194683 -52.4228209568 684.475194683 -52.4228209568 647.44900782 -89.4490078201 c 0,13,14
 610 -126 610 -126 558 -126.475194683 c 2,15,-1
 540.432927939 -126.475194683 l 1,16,17
 540.475194683 -128.228809432 540.475194683 -128.228809432 540.475194683 -130 c 2,18,-1
 540.475194683 -216 l 2,19,20
 540.475194683 -268.422820957 540.475194683 -268.422820957 503.44900782 -305.44900782 c 128,-1,21
 466.422820957 -342.475194683 466.422820957 -342.475194683 414 -342.475194683 c 2,22,-1
 318 -342.475194683 l 2,23,24
 201.478169142 -342.475194683 201.478169142 -342.475194683 128.945365281 -269.942390822 c 0,25,26
 100.73490426 -241.731929802 100.73490426 -241.731929802 83.9450932337 -205.281006732 c 128,-1,27
 67.1552822071 -168.830083663 67.1552822071 -168.830083663 64.8701104263 -126.044411888 c 1,28,29
 19.5834033501 -122.48141899 19.5834033501 -122.48141899 -13.4490078201 -89.4490078201 c 0,30,31
 -50.4751946834 -52.4228209568 -50.4751946834 -52.4228209568 -50.4751946834 -4.59354776439e-14 c 2,32,-1
 -50.4751946834 113 l 2,33,34
 -50.4751946834 165.422820957 -50.4751946834 165.422820957 -13.4490078201 202.44900782 c 128,-1,35
 23.5771790432 239.475194683 23.5771790432 239.475194683 76 239.475194683 c 2,36,-1
 137.524805317 239.475194683 l 1,37,-1
 137.524805317 310.524805317 l 1,38,-1
 96 310.524805317 l 2,39,40
 43.5771790432 310.524805317 43.5771790432 310.524805317 6.5509921799 347.55099218 c 0,41,42
 -30 385 -30 385 -30.4751946834 437 c 2,43,-1
 -30.4751946834 550 l 2,44,45
 -30.4751946834 602.422820957 -30.4751946834 602.422820957 6.5509921799 639.44900782 c 0,46,47
 44 676 44 676 96 676.475194683 c 2,48,-1
 112.780061782 676.475194683 l 1,49,50
 109.524805317 694.69134977 109.524805317 694.69134977 109.524805317 714 c 0,51,52
 109.524805317 748.160935513 109.524805317 748.160935513 119.714024164 778.90227192 c 0,53,54
 135.704234731 827.145464031 135.704234731 827.145464031 174.166392879 861.236922389 c 0,55,56
 231.973674442 912.475194683 231.973674442 912.475194683 318 912.475194683 c 0,57,58
 411.098877295 912.475194683 411.098877295 912.475194683 470.438494033 853.135577945 c 0,59,60
 502.213003828 821.36106815 502.213003828 821.36106815 516.285975836 778.90227192 c 0,61,62
 526.475194683 748.160935513 526.475194683 748.160935513 526.475194683 714 c 0,0,1
EndSplineSet
EndChar

StartChar: uni0237
Encoding: 567 567 262
Width: 600
GlyphClass: 2
Flags: W
AnchorPoint: "Anchor-2" 300 -270 basechar 0
AnchorPoint: "Anchor-0" 391 550 basechar 0
LayerCount: 2
Fore
SplineSet
-62.4751946834 -180 m 2,0,-1
 -62.4751946834 -67 l 2,1,2
 -62.4751946834 -14.5771790432 -62.4751946834 -14.5771790432 -25.4490078201 22.4490078201 c 0,3,4
 12 59 12 59 64 59.4751946834 c 2,5,-1
 203.524805317 59.4751946834 l 1,6,-1
 203.524805317 310.524805317 l 1,7,-1
 84 310.524805317 l 2,8,9
 31.5771790432 310.524805317 31.5771790432 310.524805317 -5.4490078201 347.55099218 c 0,10,11
 -42 385 -42 385 -42.4751946834 437 c 2,12,-1
 -42.4751946834 550 l 2,13,14
 -42.4751946834 602.422820957 -42.4751946834 602.422820957 -5.4490078201 639.44900782 c 0,15,16
 32 676 32 676 84 676.475194683 c 2,17,-1
 455 676.475194683 l 2,18,19
 507.422820957 676.475194683 507.422820957 676.475194683 544.44900782 639.44900782 c 0,20,21
 581 602 581 602 581.475194683 550 c 2,22,-1
 581.475194683 36 l 2,23,24
 581.475194683 -27.4277016758 581.475194683 -27.4277016758 564.053841477 -81.8694304446 c 0,25,26
 539.656690633 -158.110526833 539.656690633 -158.110526833 483.765099965 -212.137457885 c 0,27,28
 386.171435714 -306.475194683 386.171435714 -306.475194683 233 -306.475194683 c 2,29,-1
 64 -306.475194683 l 2,30,31
 11.5771790432 -306.475194683 11.5771790432 -306.475194683 -25.4490078201 -269.44900782 c 128,-1,32
 -62.4751946834 -232.422820957 -62.4751946834 -232.422820957 -62.4751946834 -180 c 2,0,-1
EndSplineSet
EndChar

StartChar: k
Encoding: 107 107 264
Width: 600
GlyphClass: 2
Flags: W
AnchorPoint: "Anchor-2" 300 0 basechar 0
AnchorPoint: "Anchor-0" 300 730 basechar 0
LayerCount: 2
Fore
SplineSet
-46.4751946834 -4.59354776439e-14 m 2,0,-1
 -46.4751946834 730 l 2,1,2
 -46.4751946834 782.422820957 -46.4751946834 782.422820957 -9.4490078201 819.44900782 c 0,3,4
 28 856 28 856 80 856.475194683 c 2,5,-1
 205 856.475194683 l 2,6,7
 257.422820957 856.475194683 257.422820957 856.475194683 294.44900782 819.44900782 c 128,-1,8
 331.475194683 782.422820957 331.475194683 782.422820957 331.475194683 730 c 2,9,-1
 331.475194683 632.938461491 l 1,10,11
 334.38760652 636.28562216 334.38760652 636.28562216 337.55099218 639.44900782 c 0,12,13
 375 676 375 676 427 676.475194683 c 2,14,-1
 566 676.475194683 l 2,15,16
 618.422820957 676.475194683 618.422820957 676.475194683 655.44900782 639.44900782 c 128,-1,17
 692.557528628 602.340487012 692.557528628 602.340487012 692.557528628 548.749408588 c 0,18,19
 692.557528628 513.179491345 692.557528628 513.179491345 673.372653297 483.074237232 c 2,20,-1
 548.161910114 282.435335505 l 1,21,-1
 677.753401321 64.6602851935 l 2,22,23
 695.569628227 35.3986152989 695.569628227 35.3986152989 695.569628227 1.27704912377 c 0,24,25
 695.569628227 -52.3283874129 695.569628227 -52.3283874129 658.44900782 -89.4490078201 c 0,26,27
 621 -126 621 -126 569 -126.475194683 c 2,28,-1
 427 -126.475194683 l 2,29,30
 374.577179043 -126.475194683 374.577179043 -126.475194683 337.55099218 -89.4490078201 c 0,31,32
 326.059448758 -77.9574643983 326.059448758 -77.9574643983 316.145217942 -61.0884746514 c 1,33,34
 307.650615287 -76.2474003537 307.650615287 -76.2474003537 294.44900782 -89.4490078201 c 0,35,36
 257 -126 257 -126 205 -126.475194683 c 2,37,-1
 80 -126.475194683 l 2,38,39
 27.5771790432 -126.475194683 27.5771790432 -126.475194683 -9.4490078201 -89.4490078201 c 128,-1,40
 -46.4751946834 -52.4228209568 -46.4751946834 -52.4228209568 -46.4751946834 -4.59354776439e-14 c 2,0,-1
EndSplineSet
EndChar

StartChar: l
Encoding: 108 108 267
Width: 600
GlyphClass: 2
Flags: W
AnchorPoint: "Anchor-4" 300 365 basechar 0
AnchorPoint: "Anchor-2" 320 0 basechar 0
AnchorPoint: "Anchor-0" 262 730 basechar 0
LayerCount: 2
Fore
SplineSet
81.5248053166 178 m 2,0,-1
 81.5248053166 490.524805317 l 1,1,-1
 27 490.524805317 l 2,2,3
 -25.4228209568 490.524805317 -25.4228209568 490.524805317 -62.4490078201 527.55099218 c 0,4,5
 -99 565 -99 565 -99.4751946834 617 c 2,6,-1
 -99.4751946834 730 l 2,7,8
 -99.4751946834 782.422820957 -99.4751946834 782.422820957 -62.4490078201 819.44900782 c 0,9,10
 -25 856 -25 856 27 856.475194683 c 2,11,-1
 333 856.475194683 l 2,12,13
 385.422820957 856.475194683 385.422820957 856.475194683 422.44900782 819.44900782 c 128,-1,14
 459.475194683 782.422820957 459.475194683 782.422820957 459.475194683 730 c 2,15,-1
 459.475194683 239.475194683 l 1,16,-1
 559 239.475194683 l 2,17,18
 611.422820957 239.475194683 611.422820957 239.475194683 648.44900782 202.44900782 c 0,19,20
 685 165 685 165 685.475194683 113 c 2,21,-1
 685.475194683 4.59354776439e-14 l 2,22,23
 685.475194683 -52.4228209568 685.475194683 -52.4228209568 648.44900782 -89.4490078201 c 0,24,25
 611 -126 611 -126 559 -126.475194683 c 2,26,-1
 389 -126.475194683 l 2,27,28
 332.56145355 -126.475194683 332.56145355 -126.475194683 283.575409729 -110.683641083 c 0,29,30
 216.73591111 -89.1366974495 216.73591111 -89.1366974495 167.864144463 -40.2650982475 c 128,-1,31
 118.992377815 8.60650095452 118.992377815 8.60650095452 97.5540112684 73.6253853553 c 0,32,33
 81.5248053166 122.239214517 81.5248053166 122.239214517 81.5248053166 178 c 2,0,-1
EndSplineSet
EndChar

StartChar: uni019B
Encoding: 411 411 269
Width: 600
GlyphClass: 1
Flags: W
LayerCount: 2
Fore
SplineSet
-91.6562382463 1.02974160815 m 0,0,1
 -91.6562382463 23.9876117039 -91.6562382463 23.9876117039 -83.0762758189 45.4370782917 c 2,2,-1
 31.0652679663 342.879820471 l 1,3,4
 14.4958550157 351.606129344 14.4958550157 351.606129344 0.550992179902 365.55099218 c 0,5,6
 -36 403 -36 403 -36.4751946834 455 c 2,7,-1
 -36.4751946834 550 l 2,8,9
 -36.4751946834 602.422820957 -36.4751946834 602.422820957 0.550992179902 639.44900782 c 0,10,11
 15.1210644924 654.019080133 15.1210644924 654.019080133 33.3894513817 663.153273577 c 2,12,-1
 55.139215346 674.028155559 l 1,13,-1
 51.6394049639 682.740449489 l 2,14,15
 42.3497101485 704.970719861 42.3497101485 704.970719861 42.3497101485 728.916341529 c 0,16,17
 42.3497101485 741.400390573 42.3497101485 741.400390573 44.87470296 754.350682027 c 0,18,19
 52.2428778483 792.140893488 52.2428778483 792.140893488 79.5509921799 819.44900782 c 0,20,21
 117 856 117 856 169 856.475194683 c 2,22,-1
 301 856.475194683 l 2,23,24
 342.235715208 856.475194683 342.235715208 856.475194683 373.944958815 833.565712292 c 1,25,-1
 413.695454976 853.305754603 l 2,26,27
 439.688595956 866.612500579 439.688595956 866.612500579 468.736325455 866.612500579 c 0,28,29
 522.285515062 866.612500579 522.285515062 866.612500579 559.44900782 829.44900782 c 0,30,31
 596 792 596 792 596.475194683 740 c 2,32,-1
 596.475194683 645 l 2,33,34
 596.475194683 592.577179043 596.475194683 592.577179043 559.44900782 555.55099218 c 0,35,36
 544.568100289 540.670084649 544.568100289 540.670084649 525.845793545 531.467594893 c 2,37,-1
 509.629093741 523.496674651 l 1,38,-1
 683.882987282 43.2758506668 l 2,39,40
 691.662418595 22.7607188197 691.662418595 22.7607188197 691.662418595 5.13725168073 c 0,41,42
 691.662418595 -52.2355970449 691.662418595 -52.2355970449 654.44900782 -89.4490078201 c 0,43,44
 617 -126 617 -126 565 -126.475194683 c 2,45,-1
 433 -126.475194683 l 2,46,47
 380.577179043 -126.475194683 380.577179043 -126.475194683 343.55099218 -89.4490078201 c 0,48,49
 322.504948564 -68.4029642046 322.504948564 -68.4029642046 313.10075481 -40.3645346779 c 2,50,-1
 301.553717304 -5.93725618799 l 1,51,-1
 289.786982641 -40.6977017056 l 2,52,53
 280.364198083 -68.5338175573 280.364198083 -68.5338175573 259.44900782 -89.4490078201 c 0,54,55
 222 -126 222 -126 170 -126.475194683 c 2,56,-1
 35 -126.475194683 l 2,57,58
 -17.4228209568 -126.475194683 -17.4228209568 -126.475194683 -54.4490078201 -89.4490078201 c 0,59,60
 -81.3853242025 -62.5126914377 -81.3853242025 -62.5126914377 -88.936229907 -25.3010378498 c 0,61,62
 -91.6562382463 -11.8965520784 -91.6562382463 -11.8965520784 -91.6562382463 1.02974160815 c 0,0,1
EndSplineSet
EndChar

StartChar: lslash
Encoding: 322 322 273
Width: 600
GlyphClass: 2
Flags: W
AnchorPoint: "Anchor-4" 300 365 basechar 0
AnchorPoint: "Anchor-2" 320 0 basechar 0
AnchorPoint: "Anchor-0" 262 730 basechar 0
LayerCount: 2
Fore
SplineSet
-26.4751946834 230 m 2,0,-1
 -26.4751946834 345 l 2,1,2
 -26.4751946834 397.422820957 -26.4751946834 397.422820957 10.5509921799 434.44900782 c 0,3,4
 22.5050567819 446.403072422 22.5050567819 446.403072422 37.0348822216 454.744268508 c 2,5,-1
 81.5248053166 480.284779914 l 1,6,-1
 81.5248053166 490.524805317 l 1,7,-1
 27 490.524805317 l 2,8,9
 -25.4228209568 490.524805317 -25.4228209568 490.524805317 -62.4490078201 527.55099218 c 0,10,11
 -99 565 -99 565 -99.4751946834 617 c 2,12,-1
 -99.4751946834 730 l 2,13,14
 -99.4751946834 782.422820957 -99.4751946834 782.422820957 -62.4490078201 819.44900782 c 0,15,16
 -25 856 -25 856 27 856.475194683 c 2,17,-1
 333 856.475194683 l 2,18,19
 385.422820957 856.475194683 385.422820957 856.475194683 422.44900782 819.44900782 c 128,-1,20
 459.475194683 782.422820957 459.475194683 782.422820957 459.475194683 730 c 2,21,-1
 459.475194683 685.657540421 l 1,22,23
 466.972104665 686.581955206 466.972104665 686.581955206 475.148205175 686.581955206 c 0,24,25
 528.316060434 686.581955206 528.316060434 686.581955206 565.44900782 649.44900782 c 0,26,27
 602 612 602 612 602.475194683 560 c 2,28,-1
 602.475194683 445 l 2,29,30
 602.475194683 392.577179043 602.475194683 392.577179043 565.44900782 355.55099218 c 0,31,32
 553.472848004 343.574832363 553.472848004 343.574832363 538.912106617 335.225316323 c 2,33,-1
 459.475194683 289.67408011 l 1,34,-1
 459.475194683 239.475194683 l 1,35,-1
 559 239.475194683 l 2,36,37
 611.422820957 239.475194683 611.422820957 239.475194683 648.44900782 202.44900782 c 0,38,39
 685 165 685 165 685.475194683 113 c 2,40,-1
 685.475194683 4.59354776439e-14 l 2,41,42
 685.475194683 -52.4228209568 685.475194683 -52.4228209568 648.44900782 -89.4490078201 c 0,43,44
 611 -126 611 -126 559 -126.475194683 c 2,45,-1
 389 -126.475194683 l 2,46,47
 332.56145355 -126.475194683 332.56145355 -126.475194683 283.575409729 -110.683641083 c 0,48,49
 216.73591111 -89.1366974495 216.73591111 -89.1366974495 167.864144463 -40.2650982475 c 0,50,51
 107.693349938 19.9054901191 107.693349938 19.9054901191 89.2628573148 103.964983264 c 1,52,53
 43.0038028184 108.098181541 43.0038028184 108.098181541 10.5509921799 140.55099218 c 0,54,55
 -26.4751946834 177.577179043 -26.4751946834 177.577179043 -26.4751946834 230 c 2,0,-1
EndSplineSet
EndChar

StartChar: m
Encoding: 109 109 274
Width: 600
GlyphClass: 2
Flags: W
AnchorPoint: "Anchor-2" 300 0 basechar 0
AnchorPoint: "Anchor-0" 300 550 basechar 0
LayerCount: 2
Fore
SplineSet
341.674166913 665.124453696 m 1,0,1
 386.441153883 686.475194683 386.441153883 686.475194683 438.439069929 686.475194683 c 128,-1,2
 490.436985976 686.475194683 490.436985976 686.475194683 535.134457047 665.728424915 c 0,3,4
 583.340150056 643.353279511 583.340150056 643.353279511 618.490998755 599.275231143 c 0,5,6
 677.475194683 525.310921963 677.475194683 525.310921963 677.475194683 419 c 2,7,-1
 677.475194683 4.59354776439e-14 l 2,8,9
 677.475194683 -52.4228209568 677.475194683 -52.4228209568 640.44900782 -89.4490078201 c 0,10,11
 603 -126 603 -126 551 -126.475194683 c 2,12,-1
 443 -126.475194683 l 2,13,14
 417.12442196 -126.475194683 417.12442196 -126.475194683 395 -117.454326544 c 1,15,16
 373 -126 373 -126 347 -126.475194683 c 2,17,-1
 253 -126.475194683 l 2,18,19
 227.416529463 -126.475194683 227.416529463 -126.475194683 205.5 -117.656848763 c 1,20,21
 184 -126 184 -126 158 -126.475194683 c 2,22,-1
 49 -126.475194683 l 2,23,24
 -3.42282095683 -126.475194683 -3.42282095683 -126.475194683 -40.4490078201 -89.4490078201 c 128,-1,25
 -77.4751946834 -52.4228209568 -77.4751946834 -52.4228209568 -77.4751946834 -4.59354776439e-14 c 2,26,-1
 -77.4751946834 550 l 2,27,28
 -77.4751946834 602.422820957 -77.4751946834 602.422820957 -40.4490078201 639.44900782 c 0,29,30
 -3 676 -3 676 49 676.475194683 c 2,31,-1
 151 676.475194683 l 2,32,33
 163.162258645 676.475194683 163.162258645 676.475194683 174.495786483 674.482243395 c 1,34,35
 209.190555526 686.475194683 209.190555526 686.475194683 248 686.475194683 c 0,36,37
 298.041501774 686.475194683 298.041501774 686.475194683 341.674166913 665.124453696 c 1,0,1
EndSplineSet
EndChar

StartChar: n
Encoding: 110 110 275
Width: 600
GlyphClass: 2
Flags: W
AnchorPoint: "Anchor-2" 300 0 basechar 0
AnchorPoint: "Anchor-0" 305 550 basechar 0
LayerCount: 2
Fore
SplineSet
400 -126.475194683 m 2,0,1
 339.756469191 -126.475194683 339.756469191 -126.475194683 301 -78.8912931671 c 1,2,3
 296.580027456 -84.317988184 296.580027456 -84.317988184 291.44900782 -89.4490078201 c 0,4,5
 254 -126 254 -126 202 -126.475194683 c 2,6,-1
 77 -126.475194683 l 2,7,8
 24.5771790432 -126.475194683 24.5771790432 -126.475194683 -12.4490078201 -89.4490078201 c 128,-1,9
 -49.4751946834 -52.4228209568 -49.4751946834 -52.4228209568 -49.4751946834 -4.59354776439e-14 c 2,10,-1
 -49.4751946834 550 l 2,11,12
 -49.4751946834 602.422820957 -49.4751946834 602.422820957 -12.4490078201 639.44900782 c 0,13,14
 25 676 25 676 77 676.475194683 c 2,15,-1
 199 676.475194683 l 2,16,17
 222.056904138 676.475194683 222.056904138 676.475194683 242.13538099 669.312602872 c 1,18,19
 290 686 290 686 345.666660508 686.237597342 c 128,-1,20
 401.333321016 686.475194683 401.333321016 686.475194683 448.906851398 670.629577779 c 0,21,22
 519.916545644 646.977929426 519.916545644 646.977929426 570.679614641 590.458223738 c 0,23,24
 651.475194683 500.500258331 651.475194683 500.500258331 651.475194683 361 c 2,25,-1
 651.475194683 4.59354776439e-14 l 2,26,27
 651.475194683 -52.4228209568 651.475194683 -52.4228209568 614.44900782 -89.4490078201 c 0,28,29
 577 -126 577 -126 525 -126.475194683 c 2,30,-1
 400 -126.475194683 l 2,0,1
EndSplineSet
EndChar

StartChar: eng
Encoding: 331 331 280
Width: 600
GlyphClass: 1
Flags: W
LayerCount: 2
Fore
SplineSet
650.475194683 361 m 2,0,-1
 650.475194683 21 l 2,1,2
 650.475194683 -75.7690387103 650.475194683 -75.7690387103 602.428438935 -151.63233726 c 0,3,4
 555.200273955 -226.20312407 555.200273955 -226.20312407 475.715184427 -266.339159377 c 128,-1,5
 396.230094898 -306.475194683 396.230094898 -306.475194683 299 -306.475194683 c 2,6,-1
 244 -306.475194683 l 2,7,8
 191.577179043 -306.475194683 191.577179043 -306.475194683 154.55099218 -269.44900782 c 128,-1,9
 117.524805317 -232.422820957 117.524805317 -232.422820957 117.524805317 -180 c 2,10,-1
 117.524805317 -126.475194683 l 1,11,-1
 78 -126.475194683 l 2,12,13
 25.5771790432 -126.475194683 25.5771790432 -126.475194683 -11.4490078201 -89.4490078201 c 0,14,15
 -48 -52 -48 -52 -48.4751946834 -4.61852778244e-14 c 2,16,-1
 -48.4751946834 550 l 2,17,18
 -48.4751946834 602.422820957 -48.4751946834 602.422820957 -11.4490078201 639.44900782 c 0,19,20
 26 676 26 676 78 676.475194683 c 2,21,-1
 200 676.475194683 l 2,22,23
 222.767886987 676.475194683 222.767886987 676.475194683 242.63154758 669.491042918 c 1,24,25
 290.006234743 686.475194683 290.006234743 686.475194683 345.535468959 686.475194683 c 0,26,27
 484.833459195 686.475194683 484.833459195 686.475194683 570.617346466 589.968321503 c 0,28,29
 650.475194683 500.128242258 650.475194683 500.128242258 650.475194683 361 c 2,0,-1
EndSplineSet
EndChar

StartChar: o
Encoding: 111 111 282
Width: 600
GlyphClass: 2
Flags: W
AnchorPoint: "Anchor-4" 300 275 basechar 0
AnchorPoint: "Anchor-3" 347 0 basechar 0
AnchorPoint: "Anchor-2" 300 0 basechar 0
AnchorPoint: "Anchor-1" 325 550 basechar 0
AnchorPoint: "Anchor-0" 300 550 basechar 0
LayerCount: 2
Fore
SplineSet
300 -135.475194683 m 0,0,1
 234.171446584 -135.475194683 234.171446584 -135.475194683 177.885515056 -118.546007051 c 0,2,3
 96.5715924762 -94.0891203115 96.5715924762 -94.0891203115 38.3891361418 -35.9066639771 c 0,4,5
 -15.1831695918 17.6656417565 -15.1831695918 17.6656417565 -38.80643668 90.1071523232 c 0,6,7
 -56.4751946834 144.288968701 -56.4751946834 144.288968701 -56.4751946834 207 c 2,8,-1
 -56.4751946834 343 l 2,9,10
 -56.4751946834 405.711031299 -56.4751946834 405.711031299 -38.80643668 459.892847677 c 0,11,12
 -13.6691296326 536.977210619 -13.6691296326 536.977210619 43.8583285128 591.257150965 c 0,13,14
 143.713349205 685.475194683 143.713349205 685.475194683 300 685.475194683 c 0,15,16
 365.828553416 685.475194683 365.828553416 685.475194683 422.114484944 668.546007051 c 0,17,18
 503.430091465 644.08861383 503.430091465 644.08861383 561.651148129 585.867557166 c 0,19,20
 615.10940739 532.409297905 615.10940739 532.409297905 638.737943125 460.428012633 c 0,21,22
 656.475194683 406.393764437 656.475194683 406.393764437 656.475194683 344 c 2,23,-1
 656.475194683 207 l 2,24,25
 656.475194683 144.288968701 656.475194683 144.288968701 638.80643668 90.1071523232 c 0,26,27
 613.669129633 13.0227893815 613.669129633 13.0227893815 556.141671487 -41.2571509654 c 0,28,29
 456.286650795 -135.475194683 456.286650795 -135.475194683 300 -135.475194683 c 0,0,1
EndSplineSet
Substitution2: "Single Substitution lookup 399 subtable" ordmasculine
Substitution2: "'aalt' Access All Alternates in Latin lookup 0 subtable" ordmasculine
EndChar

StartChar: ohorn
Encoding: 417 417 296
Width: 600
GlyphClass: 2
Flags: W
AnchorPoint: "Anchor-4" 300 275 basechar 0
AnchorPoint: "Anchor-3" 347 0 basechar 0
AnchorPoint: "Anchor-2" 300 0 basechar 0
AnchorPoint: "Anchor-1" 325 550 basechar 0
AnchorPoint: "Anchor-0" 290 550 basechar 0
LayerCount: 2
Fore
SplineSet
689.475194683 563 m 2,0,1
 689.475194683 485.055911217 689.475194683 485.055911217 648.23162374 424.366514438 c 1,2,3
 656 386 656 386 656.475194683 344 c 2,4,-1
 656.475194683 207 l 2,5,6
 656.475194683 144.288968701 656.475194683 144.288968701 638.80643668 90.1071523232 c 0,7,8
 613.669129633 13.0227893815 613.669129633 13.0227893815 556.141671487 -41.2571509654 c 0,9,10
 456.286650795 -135.475194683 456.286650795 -135.475194683 300 -135.475194683 c 0,11,12
 234.171446584 -135.475194683 234.171446584 -135.475194683 177.885515056 -118.546007051 c 0,13,14
 96.5715924762 -94.0891203115 96.5715924762 -94.0891203115 38.3891361418 -35.9066639771 c 0,15,16
 -15.1831695918 17.6656417565 -15.1831695918 17.6656417565 -38.80643668 90.1071523232 c 0,17,18
 -56.4751946834 144.288968701 -56.4751946834 144.288968701 -56.4751946834 207 c 2,19,-1
 -56.4751946834 343 l 2,20,21
 -56.4751946834 405.711031299 -56.4751946834 405.711031299 -38.80643668 459.892847677 c 0,22,23
 -13.6691296326 536.977210619 -13.6691296326 536.977210619 43.8583285128 591.257150965 c 0,24,25
 143.713349205 685.475194683 143.713349205 685.475194683 300 685.475194683 c 0,26,27
 321.920252944 685.475194683 321.920252944 685.475194683 342.837706955 683.554223587 c 1,28,29
 351.979861153 708.877876793 351.979861153 708.877876793 372.55099218 729.44900782 c 0,30,31
 410 766 410 766 462 766.475194683 c 2,32,-1
 563 766.475194683 l 2,33,34
 615.422820957 766.475194683 615.422820957 766.475194683 652.44900782 729.44900782 c 0,35,36
 689 692 689 692 689.475194683 640 c 2,37,-1
 689.475194683 563 l 2,0,1
EndSplineSet
EndChar

StartChar: uni01EB
Encoding: 491 491 304
Width: 600
GlyphClass: 2
Flags: W
AnchorPoint: "Anchor-1" 325 550 basechar 0
AnchorPoint: "Anchor-0" 300 550 basechar 0
LayerCount: 2
Fore
SplineSet
110.524805317 -113 m 0,0,1
 110.524805317 -102.063804397 110.524805317 -102.063804397 111.660896403 -91.3106759026 c 1,2,3
 72.5329425448 -69.5146221063 72.5329425448 -69.5146221063 40.4865458131 -37.4727967474 c 0,4,5
 -13.1698309532 16.1835800189 -13.1698309532 16.1835800189 -36.8120725063 88.8402247916 c 0,6,7
 -54.4751946834 143.122014897 -54.4751946834 143.122014897 -54.4751946834 206 c 2,8,-1
 -54.4751946834 344 l 2,9,10
 -54.4751946834 406.877985103 -54.4751946834 406.877985103 -36.8120725063 461.159775208 c 0,11,12
 -11.8661664799 537.822803484 -11.8661664799 537.822803484 45.1815279408 592.083793791 c 0,13,14
 144.420627037 686.475194683 144.420627037 686.475194683 300 686.475194683 c 0,15,16
 365.546219681 686.475194683 365.546219681 686.475194683 421.626779012 669.45463582 c 0,17,18
 501.881415232 645.09719759 501.881415232 645.09719759 559.54821378 587.438910771 c 0,19,20
 613.093210685 533.893913866 613.093210685 533.893913866 636.742310128 461.696866381 c 0,21,22
 654.475194683 407.561109058 654.475194683 407.561109058 654.475194683 345 c 2,23,-1
 654.475194683 206 l 2,24,25
 654.475194683 115.882828556 654.475194683 115.882828556 616.169381152 42.4633526206 c 0,26,27
 592.566001275 -2.77645880917 592.566001275 -2.77645880917 557.393452265 -37.9490078201 c 0,28,29
 549.441471876 -40.4748801825 549.441471876 -40.4748801825 552.025504612 -43.1932581282 c 0,30,31
 586 -79 586 -79 586.475194683 -130 c 2,32,-1
 586.475194683 -216 l 2,33,34
 586.475194683 -268.422820957 586.475194683 -268.422820957 549.44900782 -305.44900782 c 128,-1,35
 512.422820957 -342.475194683 512.422820957 -342.475194683 460 -342.475194683 c 2,36,-1
 364 -342.475194683 l 2,37,38
 247.478169142 -342.475194683 247.478169142 -342.475194683 174.945365281 -269.942390822 c 0,39,40
 146.73490426 -241.731929802 146.73490426 -241.731929802 130.563340739 -206.623231026 c 0,41,42
 110.524805317 -163.119280211 110.524805317 -163.119280211 110.524805317 -113 c 0,0,1
EndSplineSet
EndChar

StartChar: oslash
Encoding: 248 248 305
Width: 600
GlyphClass: 2
Flags: W
AnchorPoint: "Anchor-2" 300 0 basechar 0
AnchorPoint: "Anchor-1" 325 550 basechar 0
AnchorPoint: "Anchor-0" 300 550 basechar 0
LayerCount: 2
Fore
SplineSet
-97.5255116096 -28.897448949 m 0,0,1
 -97.5255116096 10.7981169275 -97.5255116096 10.7981169275 -74.2708390335 43.0868319759 c 2,2,-1
 -38.3403613232 93.7580184903 l 1,3,4
 -54 146 -54 146 -54.4751946834 206 c 2,5,-1
 -54.4751946834 344 l 2,6,7
 -54.4751946834 406.877985103 -54.4751946834 406.877985103 -36.8120725063 461.159775208 c 0,8,9
 -11.8661664799 537.822803484 -11.8661664799 537.822803484 45.1815279408 592.083793791 c 0,10,11
 144.420627037 686.475194683 144.420627037 686.475194683 300 686.475194683 c 0,12,13
 340.289510881 686.475194683 340.289510881 686.475194683 377.119301376 680.01423975 c 1,14,15
 414 716 414 716 466 716.475194683 c 2,16,-1
 571 716.475194683 l 2,17,18
 623.422820957 716.475194683 623.422820957 716.475194683 660.44900782 679.44900782 c 128,-1,19
 697.527130349 642.370885292 697.527130349 642.370885292 697.527130349 588.886618123 c 0,20,21
 697.527130349 549.416331376 697.527130349 549.416331376 674.500735644 517.238470336 c 2,22,-1
 636.303832206 463.008298788 l 1,23,24
 654.475194683 408.403639135 654.475194683 408.403639135 654.475194683 345 c 2,25,-1
 654.475194683 206 l 2,26,27
 654.475194683 143.122014897 654.475194683 143.122014897 636.812072506 88.8402247916 c 0,28,29
 611.86616648 12.1771965155 611.86616648 12.1771965155 554.818472059 -42.0837937907 c 0,30,31
 455.579372963 -136.475194683 455.579372963 -136.475194683 300 -136.475194683 c 0,32,33
 254.776258921 -136.475194683 254.776258921 -136.475194683 213.82079474 -128.235918617 c 1,34,35
 179.781779704 -156.475194458 179.781779704 -156.475194458 134 -156.475194683 c 2,36,-1
 29 -156.475194683 l 2,37,38
 -23.4228209568 -156.475194683 -23.4228209568 -156.475194683 -60.4490078201 -119.44900782 c 128,-1,39
 -97.5255116096 -82.3725040306 -97.5255116096 -82.3725040306 -97.5255116096 -28.897448949 c 0,0,1
EndSplineSet
EndChar

StartChar: oe
Encoding: 339 339 308
Width: 600
GlyphClass: 1
Flags: W
LayerCount: 2
Fore
SplineSet
-91.4751946834 144 m 2,0,-1
 -91.4751946834 406 l 2,1,2
 -91.4751946834 456.08065709 -91.4751946834 456.08065709 -78.1566891928 499.745124458 c 0,3,4
 -58.5877559353 563.901500581 -58.5877559353 563.901500581 -13.8219324291 608.667324087 c 0,5,6
 63.9859381673 686.475194683 63.9859381673 686.475194683 180 686.475194683 c 0,7,8
 247.893975968 686.475194683 247.893975968 686.475194683 299.500003663 660.708509069 c 1,9,10
 351.107097476 686.47519314 351.107097476 686.47519314 420 686.475194683 c 0,11,12
 468.651555116 686.475194683 468.651555116 686.475194683 511.350177275 672.423542337 c 0,13,14
 573.008291222 652.132527366 573.008291222 652.132527366 616.422091921 605.971017761 c 0,15,16
 691.475194683 526.167718622 691.475194683 526.167718622 691.475194683 406 c 2,17,-1
 691.475194683 250 l 2,18,19
 691.475194683 217.642729856 691.475194683 217.642729856 677.368932112 191.151280139 c 1,20,21
 690.514164274 165.670981936 690.514164274 165.670981936 690.514164274 135.174370777 c 0,22,23
 690.514164274 130.784889871 690.514164274 130.784889871 690.241836821 126.291486895 c 0,24,25
 683.314055261 11.983091166 683.314055261 11.983091166 609.366611035 -61.027707741 c 0,26,27
 566.620307426 -103.232918899 566.620307426 -103.232918899 510.504031115 -122.14034677 c 0,28,29
 467.95893763 -136.475194683 467.95893763 -136.475194683 420 -136.475194683 c 0,30,31
 351.107097218 -136.475194683 351.107097218 -136.475194683 299.500003663 -110.7085083 c 1,32,33
 248 -136 248 -136 180 -136.475194683 c 0,34,35
 131.348444884 -136.475194683 131.348444884 -136.475194683 88.6498227245 -122.423542337 c 0,36,37
 26.9917087783 -102.132527366 26.9917087783 -102.132527366 -16.4220919212 -55.9710177611 c 0,38,39
 -91.4751946834 23.8322813784 -91.4751946834 23.8322813784 -91.4751946834 144 c 2,0,-1
EndSplineSet
EndChar

StartChar: p
Encoding: 112 112 309
Width: 600
GlyphClass: 2
Flags: W
AnchorPoint: "Anchor-2" 300 0 basechar 0
AnchorPoint: "Anchor-0" 300 550 basechar 0
LayerCount: 2
Fore
SplineSet
-49.4751946834 -180 m 2,0,-1
 -49.4751946834 550 l 2,1,2
 -49.4751946834 602.422820957 -49.4751946834 602.422820957 -12.4490078201 639.44900782 c 0,3,4
 25 676 25 676 77 676.475194683 c 2,5,-1
 199 676.475194683 l 2,6,7
 223.305910792 676.475194683 223.305910792 676.475194683 244.301967765 668.515580575 c 1,8,9
 292.612296229 686.475194683 292.612296229 686.475194683 348.295449031 686.475194683 c 0,10,11
 488.714744765 686.475194683 488.714744765 686.475194683 576.088837785 585.862602721 c 0,12,13
 656.475194683 493.296494777 656.475194683 493.296494777 656.475194683 350 c 2,14,-1
 656.475194683 201 l 2,15,16
 656.475194683 43.4415858228 656.475194683 43.4415858228 561.332949216 -51.7006596443 c 0,17,18
 513.955470029 -99.0781388314 513.955470029 -99.0781388314 451.548068116 -120.299447759 c 0,19,20
 403.978601833 -136.475194683 403.978601833 -136.475194683 350 -136.475194683 c 0,21,22
 339.079281264 -136.475194683 339.079281264 -136.475194683 328.475194683 -135.811373199 c 1,23,-1
 328.475194683 -180 l 2,24,25
 328.475194683 -232.422820957 328.475194683 -232.422820957 291.44900782 -269.44900782 c 128,-1,26
 254.422820957 -306.475194683 254.422820957 -306.475194683 202 -306.475194683 c 2,27,-1
 77 -306.475194683 l 2,28,29
 24.5771790432 -306.475194683 24.5771790432 -306.475194683 -12.4490078201 -269.44900782 c 128,-1,30
 -49.4751946834 -232.422820957 -49.4751946834 -232.422820957 -49.4751946834 -180 c 2,0,-1
EndSplineSet
EndChar

StartChar: thorn
Encoding: 254 254 310
Width: 600
GlyphClass: 2
Flags: W
AnchorPoint: "Anchor-2" 298 0 basechar 0
AnchorPoint: "Anchor-0" 298 730 basechar 0
LayerCount: 2
Fore
SplineSet
-51.4751946834 -170 m 2,0,-1
 -51.4751946834 730 l 2,1,2
 -51.4751946834 782.422820957 -51.4751946834 782.422820957 -14.4490078201 819.44900782 c 0,3,4
 23 856 23 856 75 856.475194683 c 2,5,-1
 200 856.475194683 l 2,6,7
 252.422820957 856.475194683 252.422820957 856.475194683 289.44900782 819.44900782 c 128,-1,8
 326.475194683 782.422820957 326.475194683 782.422820957 326.475194683 730 c 2,9,-1
 326.475194683 686.014611131 l 1,10,11
 335.613054352 686.475194683 335.613054352 686.475194683 345 686.475194683 c 0,12,13
 399.829614105 686.475194683 399.829614105 686.475194683 447.954528998 670.291594985 c 0,14,15
 521.11028783 645.690543342 521.11028783 645.690543342 573.171851797 586.34036042 c 0,16,17
 654.475194683 493.654549529 654.475194683 493.654549529 654.475194683 349 c 2,18,-1
 654.475194683 200 l 2,19,20
 654.475194683 44.1680881341 654.475194683 44.1680881341 559.916208233 -50.390898316 c 0,21,22
 511.781428821 -98.5256777279 511.781428821 -98.5256777279 448.303108675 -120.066368949 c 0,23,24
 399.947896554 -136.475194683 399.947896554 -136.475194683 345 -136.475194683 c 0,25,26
 334.068071297 -136.475194683 334.068071297 -136.475194683 323.475194683 -135.855535434 c 1,27,-1
 323.475194683 -170 l 2,28,29
 323.475194683 -222.422820957 323.475194683 -222.422820957 286.44900782 -259.44900782 c 128,-1,30
 249.422820957 -296.475194683 249.422820957 -296.475194683 197 -296.475194683 c 2,31,-1
 75 -296.475194683 l 2,32,33
 22.5771790432 -296.475194683 22.5771790432 -296.475194683 -14.4490078201 -259.44900782 c 128,-1,34
 -51.4751946834 -222.422820957 -51.4751946834 -222.422820957 -51.4751946834 -170 c 2,0,-1
EndSplineSet
EndChar

StartChar: q
Encoding: 113 113 311
Width: 600
GlyphClass: 2
Flags: W
AnchorPoint: "Anchor-2" 300 0 basechar 0
AnchorPoint: "Anchor-0" 300 550 basechar 0
LayerCount: 2
Fore
SplineSet
323.869539409 351.178867422 m 1,0,-1
 323.925639713 351.270086301 l 1,1,2
 323.896657163 351.237424009 323.896657163 351.237424009 323.869539409 351.178867422 c 1,0,-1
271.524805317 -180 m 2,3,-1
 271.524805317 -135.824439508 l 1,4,5
 260.923770178 -136.475194683 260.923770178 -136.475194683 250 -136.475194683 c 0,6,7
 196.536434661 -136.475194683 196.536434661 -136.475194683 149.503745217 -120.6003565 c 0,8,9
 75.8515692674 -95.7407027371 75.8515692674 -95.7407027371 24.0745210467 -34.8893264779 c 0,10,11
 -54.4751946834 57.4268342771 -54.4751946834 57.4268342771 -54.4751946834 201 c 2,12,-1
 -54.4751946834 350 l 2,13,14
 -54.4751946834 507.150093684 -54.4751946834 507.150093684 40.7162814361 602.341569804 c 0,15,16
 78.191060432 639.816348799 78.191060432 639.816348799 125.361041838 660.920657592 c 0,17,18
 182.477673864 686.475194683 182.477673864 686.475194683 250 686.475194683 c 0,19,20
 307.720035496 686.475194683 307.720035496 686.475194683 356.105788665 668.669293713 c 1,21,22
 377 676 377 676 401 676.475194683 c 2,23,-1
 523 676.475194683 l 2,24,25
 575.422820957 676.475194683 575.422820957 676.475194683 612.44900782 639.44900782 c 0,26,27
 649 602 649 602 649.475194683 550 c 2,28,-1
 649.475194683 -180 l 2,29,30
 649.475194683 -232.422820957 649.475194683 -232.422820957 612.44900782 -269.44900782 c 128,-1,31
 575.422820957 -306.475194683 575.422820957 -306.475194683 523 -306.475194683 c 2,32,-1
 398 -306.475194683 l 2,33,34
 345.577179043 -306.475194683 345.577179043 -306.475194683 308.55099218 -269.44900782 c 128,-1,35
 271.524805317 -232.422820957 271.524805317 -232.422820957 271.524805317 -180 c 2,3,-1
EndSplineSet
EndChar

StartChar: r
Encoding: 114 114 312
Width: 600
GlyphClass: 2
Flags: W
AnchorPoint: "Anchor-2" 145 0 basechar 0
AnchorPoint: "Anchor-0" 320 550 basechar 0
LayerCount: 2
Fore
SplineSet
-33.4751946834 -4.59354776439e-14 m 2,0,-1
 -33.4751946834 550 l 2,1,2
 -33.4751946834 602.422820957 -33.4751946834 602.422820957 3.5509921799 639.44900782 c 0,3,4
 41 676 41 676 93 676.475194683 c 2,5,-1
 215 676.475194683 l 2,6,7
 239.080826267 676.475194683 239.080826267 676.475194683 259.912816578 668.662317761 c 1,8,9
 309.059333353 686.475194683 309.059333353 686.475194683 366.736519646 686.475194683 c 0,10,11
 508.580655631 686.475194683 508.580655631 686.475194683 597.201934322 590.034391402 c 0,12,13
 681.475194683 498.325255127 681.475194683 498.325255127 681.475194683 353 c 2,14,-1
 681.475194683 308 l 2,15,16
 681.475194683 255.577179043 681.475194683 255.577179043 644.44900782 218.55099218 c 128,-1,17
 607.422820957 181.524805317 607.422820957 181.524805317 555 181.524805317 c 2,18,-1
 424 181.524805317 l 2,19,20
 378.41712112 181.524805317 378.41712112 181.524805317 344.475194683 209.519240841 c 1,21,-1
 344.475194683 4.59354776439e-14 l 2,22,23
 344.475194683 -52.4228209568 344.475194683 -52.4228209568 307.44900782 -89.4490078201 c 0,24,25
 270 -126 270 -126 218 -126.475194683 c 2,26,-1
 93 -126.475194683 l 2,27,28
 40.5771790432 -126.475194683 40.5771790432 -126.475194683 3.5509921799 -89.4490078201 c 128,-1,29
 -33.4751946834 -52.4228209568 -33.4751946834 -52.4228209568 -33.4751946834 -4.59354776439e-14 c 2,0,-1
EndSplineSet
EndChar

StartChar: s
Encoding: 115 115 316
Width: 600
GlyphClass: 2
Flags: W
AnchorPoint: "Anchor-2" 300 0 basechar 0
AnchorPoint: "Anchor-0" 300 550 basechar 0
LayerCount: 2
Fore
SplineSet
618.8828122 317.987851465 m 1,0,1
 664.475194683 250.035159069 664.475194683 250.035159069 664.475194683 158 c 0,2,3
 664.475194683 106.708199652 664.475194683 106.708199652 649.791513276 61.8825575571 c 0,4,5
 625.198644442 -13.193379182 625.198644442 -13.193379182 562.868392354 -63.515050592 c 0,6,7
 473.73594115 -135.475194683 473.73594115 -135.475194683 323 -135.475194683 c 2,8,-1
 279 -135.475194683 l 2,9,10
 191.173841703 -135.475194683 191.173841703 -135.475194683 120.285346346 -106.676743444 c 0,11,12
 39.2935474278 -73.7738251339 39.2935474278 -73.7738251339 -8.4606535848 -8.90019356961 c 0,13,14
 -59.4751946834 60.4025792435 -59.4751946834 60.4025792435 -59.4751946834 151 c 0,15,16
 -59.4751946834 203.422820957 -59.4751946834 203.422820957 -22.4490078201 240.44900782 c 0,17,18
 -15.360155739 247.537859901 -15.360155739 247.537859901 -7.70693921967 253.269515142 c 1,19,20
 -45.4751946834 317.337768079 -45.4751946834 317.337768079 -45.4751946834 400 c 0,21,22
 -45.4751946834 449.792054233 -45.4751946834 449.792054233 -31.7194552964 493.024378021 c 0,23,24
 -7.34518564331 569.629225502 -7.34518564331 569.629225502 56.3291634736 618.749437678 c 0,25,26
 142.825515147 685.475194683 142.825515147 685.475194683 286 685.475194683 c 2,27,-1
 324 685.475194683 l 2,28,29
 458.525089533 685.475194683 458.525089533 685.475194683 548.294823666 619.538133328 c 0,30,31
 605.573594139 577.466116078 605.573594139 577.466116078 633.225466644 517.317175711 c 0,32,33
 656.475194683 466.743873479 656.475194683 466.743873479 656.475194683 408 c 0,34,35
 656.475194683 355.175216797 656.475194683 355.175216797 618.8828122 317.987851465 c 1,0,1
EndSplineSet
EndChar

StartChar: scedilla
Encoding: 351 351 319
Width: 600
GlyphClass: 2
Flags: W
AnchorPoint: "Anchor-2" 300 0 basechar 0
AnchorPoint: "Anchor-0" 300 550 basechar 0
LayerCount: 2
Fore
SplineSet
618.8828122 317.987851465 m 1,0,1
 664.475194683 250.035159069 664.475194683 250.035159069 664.475194683 158 c 0,2,3
 664.475194683 106.708199652 664.475194683 106.708199652 649.791513276 61.8825575571 c 0,4,5
 623.653086187 -17.9115856892 623.653086187 -17.9115856892 555.533823663 -69.2361841937 c 1,6,7
 564.475194683 -97.2386001148 564.475194683 -97.2386001148 564.475194683 -128 c 0,8,9
 564.475194683 -173.273714018 564.475194683 -173.273714018 544.183380125 -213.579373073 c 0,10,11
 521.432617045 -258.769244943 521.432617045 -258.769244943 475.731319996 -291.949638692 c 0,12,13
 406.13951646 -342.475194683 406.13951646 -342.475194683 306 -342.475194683 c 2,14,-1
 206 -342.475194683 l 2,15,16
 153.577179043 -342.475194683 153.577179043 -342.475194683 116.55099218 -305.44900782 c 128,-1,17
 79.5248053166 -268.422820957 79.5248053166 -268.422820957 79.5248053166 -216 c 2,18,-1
 79.5248053166 -152 l 2,19,20
 79.5248053166 -120.068484779 79.5248053166 -120.068484779 93.2622914948 -93.8494413501 c 1,21,22
 50.3097836974 -71.4628328947 50.3097836974 -71.4628328947 16.9026144355 -38.0556636328 c 128,-1,23
 -16.5045548264 -4.64849437084 -16.5045548264 -4.64849437084 -35.833185813 37.9525892784 c 0,24,25
 -59.4751946834 90.0605320614 -59.4751946834 90.0605320614 -59.4751946834 151 c 0,26,27
 -59.4751946834 203.422820957 -59.4751946834 203.422820957 -22.4490078201 240.44900782 c 0,28,29
 -15.360155739 247.537859901 -15.360155739 247.537859901 -7.70693921967 253.269515142 c 1,30,31
 -45.4751946834 317.337768079 -45.4751946834 317.337768079 -45.4751946834 400 c 0,32,33
 -45.4751946834 449.792054233 -45.4751946834 449.792054233 -31.7194552964 493.024378021 c 0,34,35
 -7.34518564331 569.629225502 -7.34518564331 569.629225502 56.3291634736 618.749437678 c 0,36,37
 142.825515147 685.475194683 142.825515147 685.475194683 286 685.475194683 c 2,38,-1
 324 685.475194683 l 2,39,40
 458.525089533 685.475194683 458.525089533 685.475194683 548.294823666 619.538133328 c 0,41,42
 605.573594139 577.466116078 605.573594139 577.466116078 633.225466644 517.317175711 c 0,43,44
 656.475194683 466.743873479 656.475194683 466.743873479 656.475194683 408 c 0,45,46
 656.475194683 355.175216797 656.475194683 355.175216797 618.8828122 317.987851465 c 1,0,1
EndSplineSet
Substitution2: "'locl' Localized Forms in Latin lookup 390 subtable" uni0219
Substitution2: "'locl' Localized Forms in Latin lookup 389 subtable" uni0219
Substitution2: "'aalt' Access All Alternates in Latin lookup 0 subtable" uni0219
EndChar

StartChar: germandbls
Encoding: 223 223 322
Width: 600
GlyphClass: 1
Flags: W
LayerCount: 2
Fore
SplineSet
618.872418915 392.400296903 m 1,0,1
 674.475194683 314.010702056 674.475194683 314.010702056 674.475194683 209 c 0,2,3
 674.475194683 110.508004711 674.475194683 110.508004711 625.700359117 32.7989446558 c 0,4,5
 577.44224724 -44.086860708 577.44224724 -44.086860708 493.536840606 -86.4391135801 c 0,6,7
 414.220076156 -126.475194683 414.220076156 -126.475194683 313 -126.475194683 c 2,8,-1
 255 -126.475194683 l 2,9,10
 237.93414886 -126.475194683 237.93414886 -126.475194683 222.5 -122.551238763 c 1,11,12
 207.06585114 -126.475194683 207.06585114 -126.475194683 190 -126.475194683 c 2,13,-1
 73 -126.475194683 l 2,14,15
 20.5771790432 -126.475194683 20.5771790432 -126.475194683 -16.4490078201 -89.4490078201 c 128,-1,16
 -53.4751946834 -52.4228209568 -53.4751946834 -52.4228209568 -53.4751946834 -4.59354776439e-14 c 2,17,-1
 -53.4751946834 523 l 2,18,19
 -53.4751946834 621.686498693 -53.4751946834 621.686498693 -8.86847911151 699.748250944 c 0,20,21
 12.5732350013 737.271250641 12.5732350013 737.271250641 44.7170329854 769.415048626 c 128,-1,22
 76.8608309695 801.55884661 76.8608309695 801.55884661 120.795760478 824.818515173 c 0,23,24
 199.480599553 866.475194683 199.480599553 866.475194683 299 866.475194683 c 0,25,26
 449.353313484 866.475194683 449.353313484 866.475194683 548.33456126 787.443655762 c 0,27,28
 616.976598893 732.636447419 616.976598893 732.636447419 644.128386665 652.338718465 c 0,29,30
 660.475194683 603.995251341 660.475194683 603.995251341 660.475194683 549 c 0,31,32
 660.475194683 460.097605226 660.475194683 460.097605226 618.872418915 392.400296903 c 1,0,1
EndSplineSet
Substitution2: "Single Substitution lookup 4 subtable" germandbls.calt
Substitution2: "Single Substitution lookup 3 subtable" germandbls.calt
Substitution2: "'aalt' Access All Alternates in Latin lookup 0 subtable" germandbls.calt
EndChar

StartChar: longs
Encoding: 383 383 323
Width: 600
GlyphClass: 1
Flags: W
LayerCount: 2
Fore
SplineSet
20.5248053166 -4.59354776439e-14 m 2,0,-1
 20.5248053166 544 l 2,1,2
 20.5248053166 600.768871397 20.5248053166 600.768871397 36.6678739205 650.103296009 c 0,3,4
 59.7283679841 720.577890017 59.7283679841 720.577890017 112.312459982 770.213341342 c 0,5,6
 203.698779859 856.475194683 203.698779859 856.475194683 343 856.475194683 c 2,7,-1
 525 856.475194683 l 2,8,9
 577.422820957 856.475194683 577.422820957 856.475194683 614.44900782 819.44900782 c 0,10,11
 651 782 651 782 651.475194683 730 c 2,12,-1
 651.475194683 621 l 2,13,14
 651.475194683 568.577179043 651.475194683 568.577179043 614.44900782 531.55099218 c 0,15,16
 577 495 577 495 525 494.524805317 c 2,17,-1
 399.475194683 494.524805317 l 1,18,-1
 399.475194683 4.59354776439e-14 l 2,19,20
 399.475194683 -52.4228209568 399.475194683 -52.4228209568 362.44900782 -89.4490078201 c 0,21,22
 325 -126 325 -126 273 -126.475194683 c 2,23,-1
 147 -126.475194683 l 2,24,25
 94.5771790432 -126.475194683 94.5771790432 -126.475194683 57.5509921799 -89.4490078201 c 128,-1,26
 20.5248053166 -52.4228209568 20.5248053166 -52.4228209568 20.5248053166 -4.59354776439e-14 c 2,0,-1
EndSplineSet
EndChar

StartChar: t
Encoding: 116 116 324
Width: 600
GlyphClass: 2
Flags: W
AnchorPoint: "Anchor-4" 300 275 basechar 0
AnchorPoint: "Anchor-2" 360 0 basechar 0
AnchorPoint: "Anchor-0" 300 705 basechar 0
LayerCount: 2
Fore
SplineSet
65.5248053166 165 m 2,0,-1
 65.5248053166 310.524805317 l 1,1,-1
 43 310.524805317 l 2,2,3
 -9.42282095683 310.524805317 -9.42282095683 310.524805317 -46.4490078201 347.55099218 c 0,4,5
 -83 385 -83 385 -83.4751946834 437 c 2,6,-1
 -83.4751946834 550 l 2,7,8
 -83.4751946834 602.422820957 -83.4751946834 602.422820957 -46.4490078201 639.44900782 c 0,9,10
 -9 676 -9 676 43 676.475194683 c 2,11,-1
 65.5248053166 676.475194683 l 1,12,-1
 65.5248053166 705 l 2,13,14
 65.5248053166 757.422820957 65.5248053166 757.422820957 102.55099218 794.44900782 c 0,15,16
 140 831 140 831 192 831.475194683 c 2,17,-1
 318 831.475194683 l 2,18,19
 370.422820957 831.475194683 370.422820957 831.475194683 407.44900782 794.44900782 c 128,-1,20
 444.475194683 757.422820957 444.475194683 757.422820957 444.475194683 705 c 2,21,-1
 444.475194683 676.475194683 l 1,22,-1
 529 676.475194683 l 2,23,24
 581.422820957 676.475194683 581.422820957 676.475194683 618.44900782 639.44900782 c 0,25,26
 655 602 655 602 655.475194683 550 c 2,27,-1
 655.475194683 437 l 2,28,29
 655.475194683 384.577179043 655.475194683 384.577179043 618.44900782 347.55099218 c 128,-1,30
 581.422820957 310.524805317 581.422820957 310.524805317 529 310.524805317 c 2,31,-1
 444.475194683 310.524805317 l 1,32,-1
 444.475194683 239.475194683 l 1,33,-1
 519 239.475194683 l 2,34,35
 571.422820957 239.475194683 571.422820957 239.475194683 608.44900782 202.44900782 c 0,36,37
 645 165 645 165 645.475194683 113 c 2,38,-1
 645.475194683 4.59354776439e-14 l 2,39,40
 645.475194683 -52.4228209568 645.475194683 -52.4228209568 608.44900782 -89.4490078201 c 0,41,42
 571 -126 571 -126 519 -126.475194683 c 2,43,-1
 360 -126.475194683 l 2,44,45
 306.280814186 -126.475194683 306.280814186 -126.475194683 259.743244418 -111.865516696 c 0,46,47
 194.462000851 -91.3715813261 194.462000851 -91.3715813261 147.527765748 -44.4380573121 c 0,48,49
 65.5248053166 37.5636607126 65.5248053166 37.5636607126 65.5248053166 165 c 2,0,-1
EndSplineSet
EndChar

StartChar: tbar
Encoding: 359 359 325
Width: 600
GlyphClass: 2
Flags: W
AnchorPoint: "Anchor-4" 300 275 basechar 0
AnchorPoint: "Anchor-2" 360 0 basechar 0
AnchorPoint: "Anchor-0" 300 705 basechar 0
LayerCount: 2
Fore
SplineSet
608.158700372 202.738510917 m 1,0,1
 644.989844553 166.111298759 644.989844553 166.111298759 645.475194683 113 c 2,2,-1
 645.475194683 4.59354776439e-14 l 2,3,4
 645.475194683 -52.4228209568 645.475194683 -52.4228209568 608.44900782 -89.4490078201 c 0,5,6
 571 -126 571 -126 519 -126.475194683 c 2,7,-1
 360 -126.475194683 l 2,8,9
 306.280814186 -126.475194683 306.280814186 -126.475194683 259.743244418 -111.865516696 c 0,10,11
 194.462000851 -91.3715813261 194.462000851 -91.3715813261 147.527765748 -44.4380573121 c 0,12,13
 87.4242661795 15.6645316431 87.4242661795 15.6645316431 71.2380981373 101.60221961 c 1,14,15
 21.8841474159 103.217836944 21.8841474159 103.217836944 -14.2955236337 139.397507994 c 128,-1,16
 -50.4751946834 175.577179043 -50.4751946834 175.577179043 -50.4751946834 228 c 2,17,-1
 -50.4751946834 326 l 2,18,19
 -50.4751946834 338.220796265 -50.4751946834 338.220796265 -48.4630128219 349.604865064 c 1,20,21
 -83 386 -83 386 -83.4751946834 437 c 2,22,-1
 -83.4751946834 550 l 2,23,24
 -83.4751946834 602.422820957 -83.4751946834 602.422820957 -46.4490078201 639.44900782 c 0,25,26
 -9 676 -9 676 43 676.475194683 c 2,27,-1
 65.5248053166 676.475194683 l 1,28,-1
 65.5248053166 705 l 2,29,30
 65.5248053166 757.422820957 65.5248053166 757.422820957 102.55099218 794.44900782 c 0,31,32
 140 831 140 831 192 831.475194683 c 2,33,-1
 318 831.475194683 l 2,34,35
 370.422820957 831.475194683 370.422820957 831.475194683 407.44900782 794.44900782 c 128,-1,36
 444.475194683 757.422820957 444.475194683 757.422820957 444.475194683 705 c 2,37,-1
 444.475194683 676.475194683 l 1,38,-1
 529 676.475194683 l 2,39,40
 581.422820957 676.475194683 581.422820957 676.475194683 618.44900782 639.44900782 c 0,41,42
 655 602 655 602 655.475194683 550 c 2,43,-1
 655.475194683 437 l 2,44,45
 655.475194683 378.235941921 655.475194683 378.235941921 609.826602973 339.60684785 c 1,46,47
 610.475194662 332.93827617 610.475194662 332.93827617 610.475194683 326 c 2,48,-1
 610.475194683 228 l 2,49,50
 610.475194683 214.887620459 610.475194683 214.887620459 608.158700372 202.738510917 c 1,0,1
EndSplineSet
EndChar

StartChar: tcaron
Encoding: 357 357 326
Width: 600
GlyphClass: 2
Flags: W
AnchorPoint: "Anchor-4" 300 275 basechar 0
AnchorPoint: "Anchor-2" 360 0 basechar 0
AnchorPoint: "Anchor-0" 300 705 basechar 0
LayerCount: 2
Fore
SplineSet
65.5248053166 165 m 2,0,-1
 65.5248053166 310.524805317 l 1,1,-1
 43 310.524805317 l 2,2,3
 -9.42282095683 310.524805317 -9.42282095683 310.524805317 -46.4490078201 347.55099218 c 0,4,5
 -83 385 -83 385 -83.4751946834 437 c 2,6,-1
 -83.4751946834 550 l 2,7,8
 -83.4751946834 602.422820957 -83.4751946834 602.422820957 -46.4490078201 639.44900782 c 0,9,10
 -9 676 -9 676 43 676.475194683 c 2,11,-1
 65.5248053166 676.475194683 l 1,12,-1
 65.5248053166 705 l 2,13,14
 65.5248053166 757.422820957 65.5248053166 757.422820957 102.55099218 794.44900782 c 0,15,16
 140 831 140 831 192 831.475194683 c 2,17,-1
 318 831.475194683 l 2,18,19
 332.665179233 831.475194683 332.665179233 831.475194683 346.125434163 828.57756445 c 1,20,-1
 349.757889807 835.280309984 l 2,21,22
 358.483946411 851.381962051 358.483946411 851.381962051 371.55099218 864.44900782 c 0,23,24
 409 901 409 901 461 901.475194683 c 2,25,-1
 568 901.475194683 l 2,26,27
 620.422820957 901.475194683 620.422820957 901.475194683 657.44900782 864.44900782 c 128,-1,28
 694.564823993 827.333191647 694.564823993 827.333191647 694.564823993 773.731786894 c 0,29,30
 694.564823993 739.039099855 694.564823993 739.039099855 676.212903539 709.440005163 c 2,31,-1
 627.63475776 629.337743507 l 1,32,33
 655 595 655 595 655.475194683 550 c 2,34,-1
 655.475194683 437 l 2,35,36
 655.475194683 384.577179043 655.475194683 384.577179043 618.44900782 347.55099218 c 128,-1,37
 581.422820957 310.524805317 581.422820957 310.524805317 529 310.524805317 c 2,38,-1
 444.475194683 310.524805317 l 1,39,-1
 444.475194683 239.475194683 l 1,40,-1
 519 239.475194683 l 2,41,42
 571.422820957 239.475194683 571.422820957 239.475194683 608.44900782 202.44900782 c 0,43,44
 645 165 645 165 645.475194683 113 c 2,45,-1
 645.475194683 4.59354776439e-14 l 2,46,47
 645.475194683 -52.4228209568 645.475194683 -52.4228209568 608.44900782 -89.4490078201 c 0,48,49
 571 -126 571 -126 519 -126.475194683 c 2,50,-1
 360 -126.475194683 l 2,51,52
 306.280814186 -126.475194683 306.280814186 -126.475194683 259.743244418 -111.865516696 c 0,53,54
 194.462000851 -91.3715813261 194.462000851 -91.3715813261 147.527765748 -44.4380573121 c 0,55,56
 65.5248053166 37.5636607126 65.5248053166 37.5636607126 65.5248053166 165 c 2,0,-1
EndSplineSet
EndChar

StartChar: uni0163
Encoding: 355 355 327
Width: 600
GlyphClass: 2
Flags: W
AnchorPoint: "Anchor-4" 300 275 basechar 0
AnchorPoint: "Anchor-2" 360 0 basechar 0
AnchorPoint: "Anchor-0" 300 705 basechar 0
LayerCount: 2
Fore
SplineSet
129.524805317 -216 m 2,0,-1
 129.524805317 -152 l 2,1,2
 129.524805317 -115.311208345 129.524805317 -115.311208345 147.660534764 -86.1638140931 c 1,3,4
 146.347338529 -76.9311603828 146.347338529 -76.9311603828 146.347338529 -66.7460273064 c 128,-1,5
 146.347338529 -56.56089423 146.347338529 -56.56089423 148.447771505 -45.5659532325 c 1,6,7
 132.193842541 -29.5005073307 132.193842541 -29.5005073307 118.734423926 -10.7941967137 c 0,8,9
 65.5248053166 63.1581545738 65.5248053166 63.1581545738 65.5248053166 165 c 2,10,-1
 65.5248053166 310.524805317 l 1,11,-1
 43 310.524805317 l 2,12,13
 -9.42282095683 310.524805317 -9.42282095683 310.524805317 -46.4490078201 347.55099218 c 0,14,15
 -83 385 -83 385 -83.4751946834 437 c 2,16,-1
 -83.4751946834 550 l 2,17,18
 -83.4751946834 602.422820957 -83.4751946834 602.422820957 -46.4490078201 639.44900782 c 0,19,20
 -9 676 -9 676 43 676.475194683 c 2,21,-1
 65.5248053166 676.475194683 l 1,22,-1
 65.5248053166 705 l 2,23,24
 65.5248053166 757.422820957 65.5248053166 757.422820957 102.55099218 794.44900782 c 0,25,26
 140 831 140 831 192 831.475194683 c 2,27,-1
 318 831.475194683 l 2,28,29
 370.422820957 831.475194683 370.422820957 831.475194683 407.44900782 794.44900782 c 128,-1,30
 444.475194683 757.422820957 444.475194683 757.422820957 444.475194683 705 c 2,31,-1
 444.475194683 676.475194683 l 1,32,-1
 529 676.475194683 l 2,33,34
 581.422820957 676.475194683 581.422820957 676.475194683 618.44900782 639.44900782 c 0,35,36
 655 602 655 602 655.475194683 550 c 2,37,-1
 655.475194683 437 l 2,38,39
 655.475194683 384.577179043 655.475194683 384.577179043 618.44900782 347.55099218 c 128,-1,40
 581.422820957 310.524805317 581.422820957 310.524805317 529 310.524805317 c 2,41,-1
 444.475194683 310.524805317 l 1,42,-1
 444.475194683 239.475194683 l 1,43,-1
 519 239.475194683 l 2,44,45
 571.422820957 239.475194683 571.422820957 239.475194683 608.44900782 202.44900782 c 0,46,47
 645 165 645 165 645.475194683 113 c 2,48,-1
 645.475194683 4.59354776439e-14 l 2,49,50
 645.475194683 -51.05582176 645.475194683 -51.05582176 610.354851152 -87.5075180509 c 1,51,52
 614.475194683 -107.118064471 614.475194683 -107.118064471 614.475194683 -128 c 0,53,54
 614.475194683 -173.273714018 614.475194683 -173.273714018 594.183380125 -213.579373073 c 0,55,56
 571.432617045 -258.769244943 571.432617045 -258.769244943 525.731319996 -291.949638692 c 0,57,58
 456.13951646 -342.475194683 456.13951646 -342.475194683 356 -342.475194683 c 2,59,-1
 256 -342.475194683 l 2,60,61
 203.577179043 -342.475194683 203.577179043 -342.475194683 166.55099218 -305.44900782 c 128,-1,62
 129.524805317 -268.422820957 129.524805317 -268.422820957 129.524805317 -216 c 2,0,-1
EndSplineSet
Substitution2: "'locl' Localized Forms in Latin lookup 390 subtable" uni021B
Substitution2: "'locl' Localized Forms in Latin lookup 389 subtable" uni021B
Substitution2: "'aalt' Access All Alternates in Latin lookup 0 subtable" uni021B
EndChar

StartChar: u
Encoding: 117 117 329
Width: 600
GlyphClass: 2
Flags: W
AnchorPoint: "Anchor-3" 347 0 basechar 0
AnchorPoint: "Anchor-2" 300 0 basechar 0
AnchorPoint: "Anchor-1" 414 550 basechar 0
AnchorPoint: "Anchor-0" 300 550 basechar 0
LayerCount: 2
Fore
SplineSet
556.360277628 -38.0981244856 m 0,0,1
 457.98320743 -136.475194683 457.98320743 -136.475194683 299.627170146 -136.475194683 c 0,2,3
 234.312628212 -136.475194683 234.312628212 -136.475194683 178.406488256 -119.37449305 c 0,4,5
 99.9613400991 -95.3795065546 99.9613400991 -95.3795065546 44.8293813993 -40.2484480569 c 0,6,7
 -51.4751946834 56.0545555516 -51.4751946834 56.0545555516 -51.4751946834 208 c 2,8,-1
 -51.4751946834 550 l 2,9,10
 -51.4751946834 602.422820957 -51.4751946834 602.422820957 -14.4490078201 639.44900782 c 0,11,12
 23 676 23 676 75 676.475194683 c 2,13,-1
 200 676.475194683 l 2,14,15
 252.422820957 676.475194683 252.422820957 676.475194683 289.44900782 639.44900782 c 0,16,17
 295.165842956 633.732172684 295.165842956 633.732172684 300 627.648292687 c 1,18,19
 304.834157044 633.732172684 304.834157044 633.732172684 310.55099218 639.44900782 c 0,20,21
 348 676 348 676 400 676.475194683 c 2,22,-1
 525 676.475194683 l 2,23,24
 577.422820957 676.475194683 577.422820957 676.475194683 614.44900782 639.44900782 c 0,25,26
 651 602 651 602 651.475194683 550 c 2,27,-1
 651.475194683 208 l 2,28,29
 651.475194683 144.315924854 651.475194683 144.315924854 633.956491661 89.6417758726 c 0,30,31
 610.313864679 15.8554625652 610.313864679 15.8554625652 556.360277628 -38.0981244856 c 0,0,1
EndSplineSet
EndChar

StartChar: uhorn
Encoding: 432 432 342
Width: 600
GlyphClass: 2
Flags: W
AnchorPoint: "Anchor-2" 288 0 basechar 0
AnchorPoint: "Anchor-0" 288 550 basechar 0
LayerCount: 2
Fore
SplineSet
-51.4751946834 205 m 2,0,-1
 -51.4751946834 550 l 2,1,2
 -51.4751946834 602.422820957 -51.4751946834 602.422820957 -14.4490078201 639.44900782 c 0,3,4
 23 676 23 676 75 676.475194683 c 2,5,-1
 200 676.475194683 l 2,6,7
 251.752784229 676.475194683 251.752784229 676.475194683 288.5 640.389451637 c 1,8,9
 325 676 325 676 377 676.475194683 c 2,10,-1
 393.483862098 676.475194683 l 1,11,12
 398.483850174 718.381865815 398.483850174 718.381865815 429.55099218 749.44900782 c 0,13,14
 467 786 467 786 519 786.475194683 c 2,15,-1
 620 786.475194683 l 2,16,17
 672.422820957 786.475194683 672.422820957 786.475194683 709.44900782 749.44900782 c 0,18,19
 746 712 746 712 746.475194683 660 c 2,20,-1
 746.475194683 583 l 2,21,22
 746.475194683 540.547359496 746.475194683 540.547359496 735.074340809 503.019548828 c 0,23,24
 717.861309779 446.359988354 717.861309779 446.359988354 676.921858035 405.42053661 c 0,25,26
 655.139739466 383.638418041 655.139739466 383.638418041 628.475194683 368.869303123 c 1,27,-1
 628.475194683 205 l 2,28,29
 628.475194683 140.991558057 628.475194683 140.991558057 611.258498348 86.3472609943 c 0,30,31
 587.804580337 11.9065646967 587.804580337 11.9065646967 533.94900782 -41.9490078201 c 128,-1,32
 480.186555875 -95.7114597651 480.186555875 -95.7114597651 406.199032451 -119.183363748 c 0,33,34
 351.692174067 -136.475194683 351.692174067 -136.475194683 288.14269899 -136.475194683 c 128,-1,35
 224.593223913 -136.475194683 224.593223913 -136.475194683 170.377949251 -119.334970392 c 0,36,37
 95.9299530511 -95.7981468508 95.9299530511 -95.7981468508 42.349093039 -41.7471816545 c 128,-1,38
 -11.2317669731 12.3037835418 -11.2317669731 12.3037835418 -34.451471451 86.6475741948 c 0,39,40
 -51.4751946834 141.15335472 -51.4751946834 141.15335472 -51.4751946834 205 c 2,0,-1
EndSplineSet
EndChar

StartChar: uogonek
Encoding: 371 371 350
Width: 600
GlyphClass: 2
Flags: W
AnchorPoint: "Anchor-1" 414 550 basechar 0
AnchorPoint: "Anchor-0" 300 550 basechar 0
LayerCount: 2
Fore
SplineSet
110.524805317 -113 m 0,0,1
 110.524805317 -101.863231515 110.524805317 -101.863231515 111.702951001 -90.916306719 c 1,2,3
 74.4251059538 -69.844448248 74.4251059538 -69.844448248 43.7733134096 -39.1937171095 c 0,4,5
 -10.134528437 14.7141247371 -10.134528437 14.7141247371 -33.8316323914 88.027040096 c 0,6,7
 -51.4751946834 142.611810937 -51.4751946834 142.611810937 -51.4751946834 206 c 2,8,-1
 -51.4751946834 550 l 2,9,10
 -51.4751946834 602.422820957 -51.4751946834 602.422820957 -14.4490078201 639.44900782 c 0,11,12
 23 676 23 676 75 676.475194683 c 2,13,-1
 200 676.475194683 l 2,14,15
 252.422820957 676.475194683 252.422820957 676.475194683 289.44900782 639.44900782 c 0,16,17
 295.165842956 633.732172684 295.165842956 633.732172684 300 627.648292687 c 1,18,19
 304.834157044 633.732172684 304.834157044 633.732172684 310.55099218 639.44900782 c 0,20,21
 348 676 348 676 400 676.475194683 c 2,22,-1
 525 676.475194683 l 2,23,24
 577.422820957 676.475194683 577.422820957 676.475194683 614.44900782 639.44900782 c 0,25,26
 651 602 651 602 651.475194683 550 c 2,27,-1
 651.475194683 206 l 2,28,29
 651.475194683 117.614488363 651.475194683 117.614488363 616.139072688 45.3717500625 c 0,30,31
 592.818196398 -2.30648590871 592.818196398 -2.30648590871 556.091141153 -39.0335411534 c 0,32,33
 549.938163078 -41.0010173811 549.938163078 -41.0010173811 551.942228519 -43.1057262487 c 0,34,35
 586 -79 586 -79 586.475194683 -130 c 2,36,-1
 586.475194683 -216 l 2,37,38
 586.475194683 -268.422820957 586.475194683 -268.422820957 549.44900782 -305.44900782 c 128,-1,39
 512.422820957 -342.475194683 512.422820957 -342.475194683 460 -342.475194683 c 2,40,-1
 364 -342.475194683 l 2,41,42
 247.478169142 -342.475194683 247.478169142 -342.475194683 174.945365281 -269.942390822 c 0,43,44
 146.73490426 -241.731929802 146.73490426 -241.731929802 130.563340739 -206.623231026 c 0,45,46
 110.524805317 -163.119280211 110.524805317 -163.119280211 110.524805317 -113 c 0,0,1
EndSplineSet
EndChar

StartChar: v
Encoding: 118 118 353
Width: 600
GlyphClass: 2
Flags: W
AnchorPoint: "Anchor-2" 300 0 basechar 0
AnchorPoint: "Anchor-0" 300 550 basechar 0
LayerCount: 2
Fore
SplineSet
-87.6001194614 508.754426086 m 2,0,1
 -94.6672978997 528.38413251 -94.6672978997 528.38413251 -94.6672978997 545.712817637 c 0,2,3
 -94.6672978997 602.230717741 -94.6672978997 602.230717741 -57.4490078201 639.44900782 c 0,4,5
 -20 676 -20 676 32 676.475194683 c 2,6,-1
 162 676.475194683 l 2,7,8
 214.422820957 676.475194683 214.422820957 676.475194683 251.44900782 639.44900782 c 0,9,10
 272.624666351 618.273349289 272.624666351 618.273349289 282.009468775 590.034394249 c 2,11,-1
 300.694405265 533.811224846 l 1,12,-1
 318.743031502 589.281773374 l 2,13,14
 328.080026373 617.978042013 328.080026373 617.978042013 349.55099218 639.44900782 c 0,15,16
 387 676 387 676 439 676.475194683 c 2,17,-1
 568 676.475194683 l 2,18,19
 620.422820957 676.475194683 620.422820957 676.475194683 657.44900782 639.44900782 c 0,20,21
 683.500387392 613.397628248 683.500387392 613.397628248 691.455268946 577.565026291 c 0,22,23
 694.667714849 563.094629142 694.667714849 563.094629142 694.667714849 545.793888221 c 128,-1,24
 694.667714849 528.493147299 694.667714849 528.493147299 687.66660212 508.948407468 c 2,25,-1
 499.66660212 -41.0515925321 l 2,26,27
 490.225148126 -68.6728675143 490.225148126 -68.6728675143 469.44900782 -89.4490078201 c 0,28,29
 432 -126 432 -126 380 -126.475194683 c 2,30,-1
 221 -126.475194683 l 2,31,32
 168.577179043 -126.475194683 168.577179043 -126.475194683 131.55099218 -89.4490078201 c 0,33,34
 110.851096351 -68.7491119908 110.851096351 -68.7491119908 101.399880539 -41.2455739135 c 2,35,-1
 -87.6001194614 508.754426086 l 2,0,1
EndSplineSet
EndChar

StartChar: w
Encoding: 119 119 354
Width: 600
GlyphClass: 2
Flags: W
AnchorPoint: "Anchor-2" 300 0 basechar 0
AnchorPoint: "Anchor-0" 300 550 basechar 0
LayerCount: 2
Fore
SplineSet
-106.724096419 552.574462606 m 0,0,1
 -106.724096419 602.173919221 -106.724096419 602.173919221 -69.4490078201 639.44900782 c 0,2,3
 -32 676 -32 676 20 676.475194683 c 2,4,-1
 120 676.475194683 l 2,5,6
 155.85031988 676.475194683 155.85031988 676.475194683 184.5 659.158927264 c 1,7,8
 213 676 213 676 249 676.475194683 c 2,9,-1
 353 676.475194683 l 2,10,11
 389.163497192 676.475194683 389.163497192 676.475194683 418 658.855066702 c 1,12,13
 447 676 447 676 483 676.475194683 c 2,14,-1
 580 676.475194683 l 2,15,16
 632.422820957 676.475194683 632.422820957 676.475194683 669.579453131 639.318562509 c 128,-1,17
 706.736085306 602.161930334 706.736085306 602.161930334 706.736085306 552.620155979 c 0,18,19
 706.736085306 541.770076833 706.736085306 541.770076833 704.947617842 530.332203522 c 2,20,-1
 618.947617842 -19.6677964784 l 2,21,22
 612.593515012 -60.3045006285 612.593515012 -60.3045006285 583.44900782 -89.4490078201 c 0,23,24
 546 -126 546 -126 494 -126.475194683 c 2,25,-1
 365 -126.475194683 l 2,26,27
 328.208071678 -126.475194683 328.208071678 -126.475194683 299 -108.237358314 c 1,28,29
 270 -126 270 -126 233 -126.475194683 c 2,30,-1
 104 -126.475194683 l 2,31,32
 51.5771790432 -126.475194683 51.5771790432 -126.475194683 14.5509921799 -89.4490078201 c 0,33,34
 -14.768878182 -60.1291374582 -14.768878182 -60.1291374582 -21.0165388931 -19.2218351829 c 2,35,-1
 -105.016538893 530.778164817 l 2,36,37
 -106.724096419 541.958601 -106.724096419 541.958601 -106.724096419 552.574462606 c 0,0,1
EndSplineSet
EndChar

StartChar: x
Encoding: 120 120 359
Width: 600
GlyphClass: 2
Flags: W
AnchorPoint: "Anchor-2" 300 0 basechar 0
AnchorPoint: "Anchor-0" 300 550 basechar 0
LayerCount: 2
Fore
SplineSet
-90.5372272984 1.1718970142 m 0,0,1
 -90.5372272984 39.2864992472 -90.5372272984 39.2864992472 -68.8703681209 70.7768753619 c 2,2,-1
 75.3911113446 284.163647071 l 1,3,-1
 -56.0213599594 479.446984316 l 2,4,5
 -77.5383865122 510.858645098 -77.5383865122 510.858645098 -77.5383865122 548.822297469 c 0,6,7
 -77.5383865122 602.359629128 -77.5383865122 602.359629128 -40.4490078201 639.44900782 c 0,8,9
 -3 676 -3 676 49 676.475194683 c 2,10,-1
 190 676.475194683 l 2,11,12
 242.422820957 676.475194683 242.422820957 676.475194683 279.44900782 639.44900782 c 0,13,14
 289.55653654 629.3414791 289.55653654 629.3414791 300.479117568 611.993850408 c 1,15,16
 311.682430238 629.580445878 311.682430238 629.580445878 321.55099218 639.44900782 c 0,17,18
 359 676 359 676 411 676.475194683 c 2,19,-1
 552 676.475194683 l 2,20,21
 604.422820957 676.475194683 604.422820957 676.475194683 641.44900782 639.44900782 c 128,-1,22
 678.538386512 602.359629128 678.538386512 602.359629128 678.538386512 548.822297469 c 0,23,24
 678.538386512 510.858645098 678.538386512 510.858645098 657.021359959 479.446984316 c 2,25,-1
 525.484754957 283.979180234 l 1,26,-1
 669.040549397 70.5244911182 l 2,27,28
 690.538534473 39.1228769841 690.538534473 39.1228769841 690.538534473 1.17843096829 c 0,29,30
 690.538534473 -52.3594811672 690.538534473 -52.3594811672 653.44900782 -89.4490078201 c 0,31,32
 616 -126 616 -126 564 -126.475194683 c 2,33,-1
 422 -126.475194683 l 2,34,35
 369.577179043 -126.475194683 369.577179043 -126.475194683 332.55099218 -89.4490078201 c 0,36,37
 322.427578573 -79.3255942134 322.427578573 -79.3255942134 314.870508669 -67.3138304713 c 2,38,-1
 299.663395148 -43.1425237163 l 1,39,-1
 283.493887453 -68.3136130147 l 2,40,41
 276.146110198 -79.7519054418 276.146110198 -79.7519054418 266.44900782 -89.4490078201 c 0,42,43
 229.422820957 -126.475194683 229.422820957 -126.475194683 177 -126.475194683 c 2,44,-1
 36 -126.475194683 l 2,45,46
 -16.4228209568 -126.475194683 -16.4228209568 -126.475194683 -53.4490078201 -89.4490078201 c 128,-1,47
 -90.5372272984 -52.3607883418 -90.5372272984 -52.3607883418 -90.5372272984 1.1718970142 c 0,0,1
EndSplineSet
EndChar

StartChar: y
Encoding: 121 121 360
Width: 600
GlyphClass: 2
Flags: W
AnchorPoint: "Anchor-2" 300 0 basechar 0
AnchorPoint: "Anchor-0" 300 550 basechar 0
LayerCount: 2
Fore
SplineSet
694.66004362 549.011632468 m 0,0,1
 694.66004362 526.745354094 694.66004362 526.745354094 686.56295149 505.852215925 c 2,2,-1
 415.56295149 -224.147784075 l 2,3,4
 406.005755629 -249.892260011 406.005755629 -249.892260011 386.44900782 -269.44900782 c 0,5,6
 349.422820957 -306.475194683 349.422820957 -306.475194683 297 -306.475194683 c 2,7,-1
 166 -306.475194683 l 2,8,9
 113.577179043 -306.475194683 113.577179043 -306.475194683 76.5509921799 -269.44900782 c 0,10,11
 49.8721158058 -242.770131446 49.8721158058 -242.770131446 42.1991821047 -205.959404553 c 0,12,13
 39.3400135981 -192.242607936 39.3400135981 -192.242607936 39.3400135981 -179.010960929 c 0,14,15
 39.3400135981 -156.733840263 39.3400135981 -156.733840263 47.4445850127 -135.831919994 c 2,16,-1
 108.243619075 27.8577870976 l 1,17,-1
 -85.1181000349 502.141249065 l 2,18,19
 -94.6481953124 524.626739517 -94.6481953124 524.626739517 -94.6481953124 548.899818512 c 0,20,21
 -94.6481953124 561.237463716 -94.6481953124 561.237463716 -92.1860592006 574.036939171 c 0,22,23
 -84.8799173362 612.018098304 -84.8799173362 612.018098304 -57.4490078201 639.44900782 c 0,24,25
 -20 676 -20 676 32 676.475194683 c 2,26,-1
 168 676.475194683 l 2,27,28
 220.422820957 676.475194683 220.422820957 676.475194683 257.44900782 639.44900782 c 0,29,30
 276.472008252 620.426007388 276.472008252 620.426007388 286.052738379 595.498366965 c 2,31,-1
 303.393250936 550.380922257 l 1,32,-1
 319.257370788 593.660705542 l 2,33,34
 328.802045682 619.700061322 328.802045682 619.700061322 348.55099218 639.44900782 c 0,35,36
 386 676 386 676 438 676.475194683 c 2,37,-1
 568 676.475194683 l 2,38,39
 620.422820957 676.475194683 620.422820957 676.475194683 657.44900782 639.44900782 c 0,40,41
 684.123776138 612.774239503 684.123776138 612.774239503 691.798627175 575.969912257 c 0,42,43
 694.66004362 562.248146621 694.66004362 562.248146621 694.66004362 549.011632468 c 0,0,1
EndSplineSet
EndChar

StartChar: z
Encoding: 122 122 369
Width: 600
GlyphClass: 2
Flags: W
AnchorPoint: "Anchor-4" 300 275 basechar 0
AnchorPoint: "Anchor-2" 300 0 basechar 0
AnchorPoint: "Anchor-0" 300 550 basechar 0
LayerCount: 2
Fore
SplineSet
-48.4751946834 -4.59354776439e-14 m 2,0,-1
 -48.4751946834 113 l 2,1,2
 -48.4751946834 160.674189476 -48.4751946834 160.674189476 -17.148925501 196.366489207 c 2,3,-1
 85.6832428195 313.530667049 l 1,4,5
 34.1113060944 313.990678265 34.1113060944 313.990678265 -2.4490078201 350.55099218 c 0,6,7
 -39 388 -39 388 -39.4751946834 440 c 2,8,-1
 -39.4751946834 550 l 2,9,10
 -39.4751946834 602.422820957 -39.4751946834 602.422820957 -2.4490078201 639.44900782 c 0,11,12
 35 676 35 676 87 676.475194683 c 2,13,-1
 511 676.475194683 l 2,14,15
 563.422820957 676.475194683 563.422820957 676.475194683 600.44900782 639.44900782 c 0,16,17
 637 602 637 602 637.475194683 550 c 2,18,-1
 637.475194683 437 l 2,19,20
 637.475194683 388.954023818 637.475194683 388.954023818 605.713878447 353.140401717 c 2,21,-1
 502.24932175 236.475194683 l 1,22,-1
 522 236.475194683 l 2,23,24
 574.422820957 236.475194683 574.422820957 236.475194683 611.44900782 199.44900782 c 0,25,26
 648 162 648 162 648.475194683 110 c 2,27,-1
 648.475194683 4.59354776439e-14 l 2,28,29
 648.475194683 -52.4228209568 648.475194683 -52.4228209568 611.44900782 -89.4490078201 c 0,30,31
 574 -126 574 -126 522 -126.475194683 c 2,32,-1
 78 -126.475194683 l 2,33,34
 25.5771790432 -126.475194683 25.5771790432 -126.475194683 -11.4490078201 -89.4490078201 c 128,-1,35
 -48.4751946834 -52.4228209568 -48.4751946834 -52.4228209568 -48.4751946834 -4.59354776439e-14 c 2,0,-1
EndSplineSet
EndChar

StartChar: ordfeminine
Encoding: 170 170 374
Width: 600
GlyphClass: 1
Flags: W
LayerCount: 2
Fore
SplineSet
196.662695982 333.314303442 m 0,0,1
 149.634102424 346.99534884 149.634102424 346.99534884 114.244434134 377.88087753 c 128,-1,2
 78.8547658445 408.766406219 78.8547658445 408.766406219 59.1964639987 452.729517619 c 0,3,4
 42.5248053166 490.013408854 42.5248053166 490.013408854 42.5248053166 536.770111113 c 128,-1,5
 42.5248053166 583.526813372 42.5248053166 583.526813372 60.995577176 623.805732561 c 1,6,7
 57.1629836267 638.328693317 57.1629836267 638.328693317 57.1629836267 652.498212277 c 128,-1,8
 57.1629836267 666.667731237 57.1629836267 666.667731237 59.6290982871 680.055212904 c 0,9,10
 72.0283395095 747.36537954 72.0283395095 747.36537954 119.714287837 795.051327868 c 0,11,12
 134.261750395 809.598790425 134.261750395 809.598790425 151.573760314 821.584028062 c 0,13,14
 216.416556546 866.475194683 216.416556546 866.475194683 305 866.475194683 c 0,15,16
 401.882370612 866.475194683 401.882370612 866.475194683 468.314253464 817.154554384 c 0,17,18
 512.48079347 784.36424438 512.48079347 784.36424438 534.166298273 736.656133813 c 0,19,20
 552.475194683 696.376561711 552.475194683 696.376561711 552.475194683 650 c 2,21,-1
 552.475194683 455 l 2,22,23
 552.475194683 402.577179043 552.475194683 402.577179043 515.44900782 365.55099218 c 128,-1,24
 478.422820957 328.524805317 478.422820957 328.524805317 426 328.524805317 c 2,25,-1
 361 328.524805317 l 2,26,27
 345.375032626 328.524805317 345.375032626 328.524805317 331.11786731 331.814127788 c 1,28,29
 301.253898569 323.524805319 301.253898569 323.524805319 265.783997177 323.524805318 c 128,-1,30
 230.314095786 323.524805317 230.314095786 323.524805317 196.662695982 333.314303442 c 0,0,1
EndSplineSet
EndChar

StartChar: ordmasculine
Encoding: 186 186 375
Width: 600
GlyphClass: 1
Flags: W
LayerCount: 2
Fore
SplineSet
300 321.524805317 m 128,-1,1
 255.925153445 321.524805317 255.925153445 321.524805317 217.050464863 333.232946819 c 0,2,3
 157.877816973 351.054356066 157.877816973 351.054356066 114.70086758 394.231305459 c 0,4,5
 84.5013489851 424.430824054 84.5013489851 424.430824054 67.3592573288 462.339335317 c 0,6,7
 46.5248053166 508.413237766 46.5248053166 508.413237766 46.5248053166 562 c 2,8,-1
 46.5248053166 624 l 2,9,10
 46.5248053166 666.202495291 46.5248053166 666.202495291 59.2992342341 703.841437637 c 0,11,12
 78.3665888359 760.022036017 78.3665888359 760.022036017 123.444554745 800.592205335 c 0,13,14
 194.425654021 864.475194683 194.425654021 864.475194683 300 864.475194683 c 0,15,16
 413.147591599 864.475194683 413.147591599 864.475194683 485.800072545 791.822713737 c 0,17,18
 523.705236947 753.917549335 523.705236947 753.917549335 540.700765766 703.841437637 c 0,19,20
 553.475194683 666.202495291 553.475194683 666.202495291 553.475194683 624 c 2,21,-1
 553.475194683 562 l 2,22,23
 553.475194683 508.413237766 553.475194683 508.413237766 532.640742671 462.339335317 c 0,24,25
 513.245138688 419.447342507 513.245138688 419.447342507 477.297038026 386.580507617 c 0,26,27
 436.631670271 349.400742813 436.631670271 349.400742813 382.949535137 333.232946819 c 0,28,0
 344.074846555 321.524805317 344.074846555 321.524805317 300 321.524805317 c 128,-1,1
EndSplineSet
EndChar

StartChar: uni0411
Encoding: 1041 1041 377
Width: 600
GlyphClass: 1
Flags: W
LayerCount: 2
Fore
SplineSet
-48.4751946834 -4.59354776439e-14 m 2,0,-1
 -48.4751946834 730 l 2,1,2
 -48.4751946834 782.422820957 -48.4751946834 782.422820957 -11.4490078201 819.44900782 c 0,3,4
 26 856 26 856 78 856.475194683 c 2,5,-1
 516 856.475194683 l 2,6,7
 568.422820957 856.475194683 568.422820957 856.475194683 605.44900782 819.44900782 c 0,8,9
 642 782 642 782 642.475194683 730 c 2,10,-1
 642.475194683 617 l 2,11,12
 642.475194683 564.577179043 642.475194683 564.577179043 605.44900782 527.55099218 c 0,13,14
 577.438263012 499.540247371 577.438263012 499.540247371 540.6158705 492.719959674 c 1,15,16
 592.439492607 454.725377902 592.439492607 454.725377902 625.936964871 400.012839871 c 0,17,18
 674.475194683 320.733731178 674.475194683 320.733731178 674.475194683 219.153253416 c 128,-1,19
 674.475194683 117.572775653 674.475194683 117.572775653 626.231508445 37.9706933607 c 0,20,21
 577.395626624 -42.6085116443 577.395626624 -42.6085116443 491.528895126 -85.9431238024 c 0,22,23
 411.215347269 -126.475194683 411.215347269 -126.475194683 308 -126.475194683 c 2,24,-1
 78 -126.475194683 l 2,25,26
 25.5771790432 -126.475194683 25.5771790432 -126.475194683 -11.4490078201 -89.4490078201 c 128,-1,27
 -48.4751946834 -52.4228209568 -48.4751946834 -52.4228209568 -48.4751946834 -4.59354776439e-14 c 2,0,-1
EndSplineSet
EndChar

